<svg height="390.566038" viewBox="0 0 400 390.56603774" width="400" xmlns="http://www.w3.org/2000/svg"><g fill-rule="evenodd"><path d="m0 195.313v195.312h200 200v-195.312-195.313h-12.109c-10.504 0-12.11.078-12.11.586 0 .322.22.587.489.588.268.002 1.015.29 1.66.642.644.351 1.787.973 2.539 1.382 3.475 1.888 7.98 5.787 9.012 7.801.403.786.898 1.489 1.099 1.563 1.077.392 4.075 7.339 4.863 11.266l.822 4.102.118 161.523c.083 114.128-.006 162.269-.303 164.063-.232 1.396-.666 4.077-.965 5.957-.517 3.249-1.984 6.775-3.549 8.527-.303.339-.55.753-.55.92 0 .605-5.855 7.242-6.394 7.248-.187.002-.966.554-1.732 1.227-.767.673-2.196 1.601-3.177 2.062s-2.223 1.128-2.76 1.483-2.383 1.05-4.101 1.545l-3.125.9-164.844.125c-120.608.092-165.42.008-166.992-.312-4.085-.832-11.328-3.619-12.11-4.659-.107-.143-.876-.674-1.708-1.18-3.51-2.134-8.414-8.042-9.416-11.343-.163-.537-.538-1.253-.833-1.59-2.286-2.613-2.107 12.193-2.085-172.397.022-177.541-.05-170.598 1.813-174.256.437-.859 1.013-2.234 1.278-3.054.266-.821.734-1.589 1.04-1.706.306-.118 1.021-1.028 1.588-2.024 1.239-2.174 2.434-3.567 3.06-3.567.253 0 1.012-.527 1.686-1.172.675-.645 1.435-1.172 1.69-1.172s.915-.525 1.468-1.166c.625-.725 1.954-1.501 3.514-2.051 3.852-1.358 3.559-1.861-1.08-1.861-3.396 0-3.934.09-4.089.684-.17.651-.181.651-.224 0-.042-.635-.881-.684-11.764-.684h-11.719zm137.305-104.391c-1.198.273-1.767.876-2.882 3.057-2.149 4.204-2.926 5.48-4.201 6.901-.724.806-1.316 1.649-1.316 1.872 0 .579-7.422 8.152-8.593 8.768-.538.283-1.784 1.278-2.77 2.212-.987.934-3.315 2.664-5.174 3.846l-3.38 2.149-.002 15.076c-.002 14.111.043 15.117.712 15.722.964.873 2.482.815 3.699-.143.553-.434 1.758-1.055 2.679-1.38s2.031-.901 2.467-1.281c.435-.379 1.759-1.339 2.94-2.134 2.513-1.689 5.632-4.153 7.068-5.583l1.013-1.01 1.07.921 1.07.921-.029 68.782c-.029 67.132-.012 68.797.713 69.454.841.761 33.812.951 34.564.199.306-.306.337-187.893.031-188.199-.281-.28-28.48-.424-29.679-.15m94.673.06c-2.377.335-2.932.858-3.258 3.074-.15 1.013-.519 2.37-.822 3.014-.303.645-.883 2.315-1.291 3.711-.749 2.568-.988 3.311-2.193 6.836-.367 1.074-.922 3.008-1.234 4.297s-.821 2.842-1.132 3.451-.675 1.839-.809 2.734c-.135.895-.554 2.155-.931 2.799-.378.645-.886 2.346-1.129 3.781s-.787 3.368-1.208 4.297c-.422.928-.77 2.236-.775 2.905s-.334 1.636-.731 2.148c-.397.513-.844 1.712-.993 2.665-.148.953-.524 2.272-.835 2.93-.531 1.124-1.14 3.206-2.875 9.821-.399 1.52-.898 3.102-1.109 3.515s-.597 1.63-.857 2.704c-.259 1.074-.709 2.319-.999 2.767-.289.447-.653 1.678-.807 2.734-.154 1.057-.609 2.573-1.01 3.37-.402.797-.73 1.923-.73 2.502 0 .578-.42 1.948-.933 3.042-.513 1.095-1.062 2.782-1.219 3.749s-.616 2.41-1.02 3.207-.742 1.852-.751 2.344c-.01.492-.288 1.598-.619 2.457s-.862 2.617-1.18 3.906c-.319 1.289-.834 2.738-1.147 3.22-.312.482-.675 1.712-.807 2.734s-.553 2.21-.936 2.64-.815 1.66-.961 2.734c-.145 1.075-.697 3.241-1.226 4.815l-.962 2.862.029 16.035c.016 8.819.168 16.282.336 16.584.259.462 4.082.545 24.21.531 20.128-.015 24.118.072 25.271.554l1.368.572.046 15.742c.072 24.978-.003 23.306 1.087 24.188 1.273 1.031 32.988.987 33.641-.047.22-.348.373-8.543.376-20.235l.006-19.648 1.355-.566c1.06-.443 3.473-.566 11.091-.566 8.839 0 9.76-.062 9.994-.671.316-.824.314-24.003-.003-25.263l-.227-.907-9.64.034c-8.237.029-9.853-.061-11.105-.622l-1.465-.657-.046-58.32c-.025-32.077-.159-58.848-.297-59.493l-.25-1.172-23.239-.047c-12.781-.026-24.053.068-25.049.209m16.86 27.401c.549 1.327.305 19.829-.402 30.445-.288 4.322-.991 40.27-1.152 58.907-.028 3.138-.607 3.299-12.323 3.424-10.191.108-12.101-.129-12.764-1.583-.512-1.124.15-6.283 1.024-7.972.309-.598.769-2.303 1.022-3.788.253-1.484.696-2.97.986-3.301.289-.331.645-1.65.79-2.93s.583-3.15.974-4.157c.39-1.006.911-3.027 1.157-4.492.246-1.464.667-3.014.935-3.444.269-.429.618-1.66.778-2.734.159-1.074.522-2.512.807-3.196.285-.683.815-2.705 1.178-4.492s.881-3.689 1.15-4.226.611-1.927.759-3.089c.149-1.161.506-2.567.794-3.125.287-.557.817-2.585 1.177-4.507.359-1.921.848-3.855 1.085-4.296.237-.442.659-1.77.937-2.952.958-4.073 1.779-7.234 2.537-9.766.418-1.396.865-3.33.994-4.296.129-.967.474-2.233.766-2.813s.718-1.986.947-3.125.659-2.861.954-3.828c.296-.967.683-2.361.86-3.097.21-.872.728-1.577 1.488-2.022 1.64-.962 1.98-.901 2.542.455" fill="#faf7f3"/><path d="m37.891.514c0 .283-1.185.927-2.637 1.434-1.45.507-2.988 1.136-3.418 1.399s-1.221.609-1.758.769c-.537.161-1.762.982-2.722 1.826-.96.843-2.253 1.635-2.872 1.759-.785.157-1.245.563-1.515 1.34-.214.613-.545 1.115-.736 1.115s-.804.692-1.364 1.537c-.559.845-1.503 1.706-2.097 1.913-.864.301-1.131.69-1.331 1.94-.24 1.497-2.046 5.501-2.693 5.966-1.001.721-1.062 10.45-1.065 170.258-.003 146.249.069 167.533.568 168.386.315.537.838 1.536 1.162 2.22.325.683.756 1.345.959 1.47.202.125.584.884.848 1.687.498 1.517 3.227 5.135 4.812 6.382.502.394 1.019 1.25 1.149 1.901.2.997.419 1.184 1.389 1.184.638 0 1.643.411 2.255.923.608.508 1.499 1.047 1.981 1.198.482.15 1.098.489 1.367.751.573.556 4.567 2.132 6.546 2.582.752.171 2.07.64 2.929 1.042 1.519.71 6.109.731 163.477.731h161.914l1.548-.879c.9-.512 2.207-.879 3.127-.879 1.091 0 2.67-.544 5.094-1.754 1.932-.964 3.731-1.755 3.998-1.758.266-.002.955-.531 1.529-1.176.574-.644 1.279-1.172 1.566-1.172.681 0 1.938-1.271 2.26-2.285.14-.44.553-.895.92-1.011 1.415-.449 6.716-8.489 6.716-10.186 0-.295.351-.782.781-1.083.67-.469.838-1.262 1.188-5.588.57-7.061.269-325.201-.311-328.479-.513-2.9-1.709-6.204-2.602-7.191-.37-.409-.919-1.561-1.22-2.56-.39-1.298-1.175-2.431-2.746-3.965-1.21-1.181-2.326-2.622-2.48-3.201-.205-.775-.566-1.086-1.37-1.18-.6-.07-2.024-.888-3.165-1.817-1.141-.93-2.628-1.812-3.305-1.96-.676-.149-1.32-.506-1.43-.794-.111-.288-1.079-.712-2.152-.942-2.425-.52-3.454-1.055-3.454-1.795 0-.501-20.455-.572-165.82-.572-136.772 0-165.82.09-165.82.514m130.128 88.413c.45.543.552 15.898.636 96.233l.101 95.586-.837 1.065c-.614.78-1.059 1.001-1.664.826-1.962-.569-5.21-.691-19.854-.744-13.645-.05-15.588-.132-16.138-.682-.568-.568-.621-6.779-.588-68.59.02-37.381-.072-68.246-.204-68.59-.259-.674-1.628-.288-2.903.818-1.196 1.037-3.522 2.643-5.482 3.784-1.107.644-2.679 1.711-3.493 2.369-.814.659-2.337 1.501-3.384 1.871s-2.362.906-2.922 1.193c-1.156.591-2.833.107-3.842-1.108-.593-.714-.676-33.815-.088-34.855.543-.959 3.363-2.889 4.891-3.347.879-.263 2.373-1.225 3.335-2.148.96-.919 1.863-1.67 2.008-1.67.65 0 6.162-5.387 6.841-6.687.321-.614.986-1.112 1.668-1.248.94-.188 1.174-.469 1.364-1.637.126-.776.721-2.009 1.324-2.741 2.208-2.683 2.728-3.545 3.221-5.345.362-1.318.994-2.283 2.241-3.418l1.738-1.581h15.747c14.171 0 15.801.065 16.284.646m113.945 1.326.905 1.972-.042 58.138c-.035 49.625.04 58.168.509 58.348.302.116 5.077.223 10.612.237 13.375.036 12.198-1.464 12.236 15.589.038 17.003 1.285 15.443-12.548 15.697l-10.628.196-.061 19.4-.06 19.401-1.292 1.972c-1.239 1.893-1.321 1.945-2.03 1.303-1.016-.92-28.301-1.239-30.423-.356-2.626 1.092-6.766-1.898-6.007-4.337 1.104-3.546 1.555-36.597.509-37.262-.264-.167-11.434-.307-24.822-.311-26.527-.006-25.455.093-26.417-2.443-1.099-2.894-.688-31.843.488-34.358.471-1.008.857-2.257.857-2.773 0-1.15.753-3.4 1.138-3.4.155 0 .504-1.124.777-2.497.273-1.372.734-2.954 1.024-3.513.291-.56.647-1.811.793-2.782.145-.97.573-2.158.951-2.639s.816-1.841.975-3.022c.158-1.182.543-2.764.856-3.516.312-.752.734-2.237.937-3.3.204-1.063.7-2.294 1.102-2.734.474-.52.793-1.591.906-3.042.108-1.385.437-2.53.861-2.998.407-.45.816-1.809 1.006-3.34.176-1.42.615-3.031.974-3.58.36-.548.753-1.957.874-3.129.149-1.438.452-2.293.933-2.63.483-.338.8-1.235.981-2.773.173-1.473.521-2.49.988-2.89.443-.379.725-1.148.73-1.995.014-1.896.711-4.76 1.333-5.474.283-.325.641-1.471.795-2.545s.599-2.656.988-3.515c.389-.86.837-2.442.996-3.516.28-1.891 1.572-5.799 2.711-8.203.306-.645.662-2.004.791-3.022.143-1.119.51-2.044.932-2.343.466-.332.785-1.264.967-2.831.149-1.284.57-2.778.935-3.32.364-.541.871-2.185 1.126-3.653.254-1.467.724-2.961 1.044-3.32.321-.358.712-1.706.87-2.996.158-1.289.613-3.294 1.012-4.455.399-1.162.725-2.359.725-2.662 0-.575 2.202-5.419 2.847-6.261.293-.382 6.039-.489 26.403-.489h26.028zm-110.87 1.349c0 .322-.176.586-.391.586s-.39-.264-.39-.586c0-.323.175-.586.39-.586s.391.263.391.586m74.791 33.177c-.151 1.204-.603 2.835-1.006 3.625-.402.789-.844 2.324-.981 3.41s-.508 2.273-.825 2.637c-.32.367-.735 2.075-.932 3.834-.195 1.745-.679 3.821-1.075 4.612-.397.791-.828 2.386-.96 3.543-.131 1.158-.501 2.396-.823 2.751-.322.356-.705 1.694-.852 2.974s-.523 3.03-.836 3.89c-.313.859-.81 2.775-1.104 4.256-.295 1.482-.783 2.976-1.085 3.321-.302.344-.67 1.856-.818 3.36-.149 1.504-.597 3.438-.996 4.297s-.843 2.441-.986 3.516c-.143 1.074-.611 2.649-1.04 3.5s-.876 2.521-.993 3.711-.515 2.779-.885 3.531c-.369.752-.785 2.235-.924 3.295s-.499 2.303-.799 2.761c-.301.458-.756 2.215-1.012 3.905-.256 1.689-.692 3.435-.97 3.879-.277.445-.7 2.18-.94 3.856-.239 1.677-.693 3.548-1.009 4.158-.568 1.099-.561 1.112.684 1.308 2.238.352 19.743.314 19.964-.043.117-.19.395-6.689.617-14.441.222-7.753.562-14.51.754-15.016.402-1.057.756-55.968.364-56.36-.142-.142-.382.726-.532 1.93" fill="#fb6404"/><path d="m33.594.524c0 .288-1.478 1.183-3.285 1.988s-3.683 1.887-4.17 2.405c-.486.519-1.117.942-1.401.942-.711 0-5.447 4.692-5.753 5.7-.136.449-.682 1.048-1.212 1.332-.53.283-1.076.883-1.214 1.332-.137.449-.975 2.222-1.861 3.941l-1.612 3.125v169.922 169.922l2.344 4.264c1.332 2.424 3.235 5.205 4.409 6.445 1.136 1.2 2.318 2.564 2.626 3.031.309.467.961.971 1.45 1.119.489.149 1.418.666 2.064 1.149 1.868 1.397 6.579 3.646 8.647 4.128 1.044.243 2.425.702 3.069 1.02.807.398 2.024.532 3.907.432l2.734-.146-2.98-.077c-1.993-.051-3.129-.256-3.431-.621-.249-.3-1.106-.667-1.904-.816-2.013-.375-6.46-2.312-8.554-3.725-.961-.649-2.337-1.426-3.058-1.727s-1.582-1.073-1.914-1.716c-.333-.642-1.107-1.579-1.72-2.081-1.849-1.513-4.903-6.259-6.931-10.77-.494-1.098-.554-23.191-.467-170.312l.1-169.05 1.654-2.93c.91-1.611 1.657-3.333 1.66-3.827.004-.584.414-1.129 1.175-1.562.643-.366 1.171-.789 1.172-.94.006-.673 4.79-5.58 5.891-6.043.674-.284 1.618-.894 2.1-1.357.481-.464 2.352-1.509 4.158-2.324 3-1.353 4.455-2.697 2.921-2.697-.338 0-.614.236-.614.524m338.281.009c0 .293.835.848 1.855 1.233 2.217.836 5.845 2.785 6.934 3.723.43.37 1.516 1.041 2.413 1.492.898.45 1.731 1.131 1.852 1.514.122.382 1.365 1.873 2.763 3.313s2.542 2.836 2.542 3.102.794 2.115 1.763 4.108c1.28 2.63 1.828 4.296 2 6.073.13 1.346.479 2.837.776 3.313.841 1.349.79 319.011-.052 324.135-.317 1.934-.578 4.159-.579 4.945-.003 2.626-7.074 14.782-8.598 14.782-.18 0-.525.598-.766 1.329-.311.944-.745 1.405-1.495 1.591-.581.145-1.408.58-1.838.968-1.258 1.138-8.578 4.705-9.652 4.705-.542 0-1.421.344-1.955.764-.732.576-1.731.797-4.057.898l-3.086.134 3.136.079c2.099.053 3.39-.095 3.906-.447.424-.289 1.624-.735 2.666-.992 2.255-.556 7.48-3.121 9.078-4.457.625-.522 1.538-1.076 2.029-1.229.491-.154 1.282-.858 1.758-1.566.475-.707 1.854-2.458 3.062-3.892 3.076-3.648 5.714-9.096 6.19-12.78.204-1.583.554-3.826.777-4.983.704-3.646.526-323.418-.18-324.654-.307-.537-.565-1.591-.574-2.343-.031-2.675-3.043-10.008-5.178-12.605-4.07-4.954-7.304-7.572-12.51-10.13-1.879-.923-3.417-1.899-3.417-2.167 0-.269-.352-.489-.782-.489-.429 0-.781.24-.781.533m-92.969 88.543c-.39.268-8.759.374-25.102.316-15.18-.053-24.658.056-24.889.287-.432.431-2.151 5.289-2.914 8.232-.287 1.106-.82 2.909-1.184 4.005-.364 1.097-.598 2.187-.519 2.423.078.235.536-.864 1.017-2.444.481-1.579 1.146-3.663 1.478-4.629.332-.967.772-2.461.977-3.321.577-2.411 1.149-3.632 1.826-3.892 1.775-.681 51.017-.246 51.409.455.213.382.515 2.805.671 5.386l.283 4.692-.085-4.688c-.108-6.011-1.038-8.149-2.968-6.822m-143.926 1.294c-.762.612-1.387 1.315-1.387 1.562-.002.837-2.424 5.126-3.901 6.907-.807.972-1.594 2.347-1.749 3.053-.155.707-.573 1.388-.929 1.513s-1.965 1.57-3.576 3.213c-3.913 3.988-9.006 8.082-11.744 9.441-1.227.609-2.69 1.652-3.252 2.319l-1.02 1.213v15.808 15.808l.959.959c2.019 2.02 7.639-.432 16.605-7.244 4.616-3.508 4.325-3.341 4.728-2.706.206.326.355 28.978.358 69.014.006 66.704.025 68.476.747 69.199.977.976 35.703 1.483 36.759.537.726-.651 1.135-187.864.416-190.359l-.399-1.385-15.615.018-15.614.018zm32.58.176c.569 1.249.574 188.494.004 189.558-.39.729-1.001.755-17.791.755h-17.387l-.963-.963-.964-.964.036-68.425c.041-77.996.4-70.899-3.431-67.813-2.822 2.273-8.795 6.436-9.748 6.795-.393.147-1.593.786-2.668 1.418-2.769 1.63-3.973 1.914-5.272 1.242-1.587-.821-1.563-.564-1.563-17.187v-15.365l1.464-1.129c.806-.621 2.432-1.733 3.614-2.471 4.691-2.933 14.857-12.225 15.45-14.123.154-.494.754-1.442 1.334-2.107 1.428-1.637 3.796-5.584 4.116-6.859.787-3.144 1.454-3.26 18.722-3.26h14.638zm56.299 15.034c-.017.384-.278 1.087-.581 1.563-.303.475-.758 1.892-1.012 3.147s-.793 3.013-1.199 3.906c-.405.893-.729 2.152-.72 2.796.02 1.318.345.414 1.895-5.273.439-1.612 1.083-3.574 1.431-4.361.349-.787.54-1.665.425-1.953-.138-.347-.219-.289-.239.175m-4.42 13.463c-.333.376-.731 1.65-.886 2.832-.154 1.182-.681 3.115-1.17 4.297-.49 1.182-1.114 3.203-1.389 4.492-.274 1.289-.636 2.527-.804 2.75s-.48 1.102-.694 1.953c-.367 1.458-.748 2.679-2.222 7.113-.339 1.021-.845 2.955-1.124 4.298-.28 1.343-.702 2.675-.938 2.96-.237.285-.676 1.691-.977 3.124-.3 1.434-.729 2.827-.952 3.096s-.761 1.807-1.195 3.418-1.136 4.211-1.561 5.778c-.424 1.566-.955 3.069-1.179 3.339s-.5 1.273-.612 2.23c-.175 1.482-.152 1.566.159.566.655-2.104 1.995-6.224 2.415-7.422.226-.644.641-2.1.924-3.234.282-1.134.861-2.98 1.287-4.102.965-2.546 2.429-7.278 3.047-9.851.735-3.062 2.306-8.117 2.814-9.057.254-.469.462-1.239.462-1.711 0-.473.329-1.407.731-2.077s.84-2.069.974-3.109c.133-1.04.593-2.683 1.022-3.652s.982-2.931 1.231-4.359c.248-1.429.71-2.993 1.026-3.477.683-1.045.461-1.157-.389-.195m26.776.006c-.255.167-.735 1.53-1.067 3.03-.526 2.382-2.28 9.045-3.132 11.905-.28.938-.268.945.283.196.317-.43.794-1.836 1.061-3.124s.903-3.622 1.414-5.188c.511-1.565.932-3.411.935-4.103.009-1.772.496-2.378 1.726-2.143.66.126.982.04.89-.24-.177-.538-1.48-.744-2.11-.333m1.676 6.819c-.567 7.777-.992 24.938-.931 37.609l.064 13.281.26-16.406c.144-9.024.479-21.208.746-27.077.473-10.393.392-14.687-.139-7.407m-6.539 10.46c-.279 1.626-2.452 10.004-3.243 12.5-.529 1.667-.994 3.403-2.358 8.789-.326 1.289-.865 3.311-1.197 4.492-.332 1.182-.754 2.852-.937 3.711-.305 1.424-1.593 6.358-2.959 11.328-.295 1.075-.905 3.36-1.357 5.079-.451 1.718-1.264 4.661-1.807 6.538-.543 1.878-.91 3.812-.817 4.297.148.768.177.744.223-.183.029-.586.309-1.729.623-2.539.499-1.289 1.544-5.146 2.57-9.481.178-.752.509-1.982.735-2.734 1.387-4.616 2.939-10.604 3.595-13.867.26-1.289.652-2.695.872-3.125.367-.715.741-2.177 2.443-9.554.32-1.387.73-2.706.911-2.93.18-.224.632-1.813 1.002-3.532.371-1.719 1.015-4.158 1.431-5.421s.7-2.845.63-3.516l-.126-1.219zm-38.182 36.794c-.025.364-.383 1.243-.796 1.953-.413.711-.876 2.153-1.03 3.205-.153 1.052-.517 2.371-.809 2.93-.291.559-.527 1.28-.524 1.603.011 1.031 1.413-2.476 1.693-4.236.148-.932.627-2.396 1.064-3.252.436-.856.716-1.85.621-2.21-.161-.605-.177-.605-.219.007m43.486 16.331c0 5.908.054 8.325.12 5.371.067-2.954.067-7.788 0-10.742-.066-2.954-.12-.537-.12 5.371m-46.993-5.072c-.03.54-.391 1.612-.803 2.381-.413.769-.965 2.525-1.227 3.9-.262 1.376-.716 2.78-1.008 3.119s-.531.758-.531.931c0 1.009 1.511-1.843 1.752-3.306.159-.967.718-2.786 1.243-4.044.525-1.257.881-2.664.791-3.125-.144-.735-.171-.717-.217.144m25.971 11.59c-.34 1.034-.877 3.023-1.193 4.42-.317 1.396-.848 3.5-1.18 4.675-1.417 5.004-1.701 4.884 11.233 4.75 12.943-.133 12.012.261 11.909-5.045l-.082-4.185-.123 3.906c-.166 5.25.725 4.883-11.85 4.883-12.669 0-12.07.318-10.301-5.469.296-.967.811-2.9 1.146-4.297.334-1.396.77-3.149.967-3.895.545-2.057.174-1.876-.526.257m-29.878.186c-.029.571-.39 1.978-.802 3.125-1.938 5.39-2.084 7.02-2.037 22.696.043 14.771.137 15.908 1.433 17.406.06.07 10.647.108 23.526.085 12.88-.024 24.144.073 25.032.215l1.614.258.109 14.502.11 14.501-.007-14.631-.007-14.631-.977-.274c-.537-.151-11.611-.288-24.609-.305-12.998-.016-23.862-.032-24.141-.036-1.4-.016-1.614-2.252-1.625-16.933-.011-15.106.193-17.47 1.959-22.7.456-1.348.749-2.871.652-3.384-.169-.895-.179-.89-.23.106m86.448 12.994c.873.708.762.702 12.132.653 9.518-.041 9.323-.082 9.903 2.11.671 2.531.565 24.16-.126 25.814l-.558 1.335h-9.955c-9.59 0-11.959.239-11.959 1.21 0 .301.211.272.646-.088.505-.419 2.835-.554 10.644-.615 5.499-.044 10.192-.088 10.428-.098 1.931-.085 2.874-25.507 1.06-28.615l-.751-1.287-10.525-.195c-5.789-.107-10.789-.34-11.112-.517-.322-.177-.244-.045.173.293m-37.611 66.706c-.055 3.009.038 3.513.817 4.418l.879 1.022 17.188.008 17.187.008.683-1.301c.438-.835.664-2.071.63-3.449l-.053-2.149-.269 2.344c-.149 1.289-.483 2.739-.742 3.222l-.472.879h-16.74c-19.998 0-18.427.413-18.803-4.936l-.243-3.462z" fill="#f79b60"/><path d="m31.515.545c-.115.299-1.371.931-2.792 1.404-1.795.597-2.838 1.206-3.422 1.994-.461.624-1.071 1.135-1.355 1.135-.283 0-1.067.527-1.742 1.172-.674.645-1.433 1.172-1.686 1.172-.626 0-1.821 1.393-3.06 3.567-.567.996-1.282 1.906-1.588 2.024-.306.117-.774.885-1.04 1.706-.265.82-.841 2.195-1.278 3.054-1.863 3.658-1.791-3.285-1.813 174.256-.022 184.59-.201 169.784 2.085 172.397.295.337.67 1.053.833 1.59 1.002 3.301 5.906 9.209 9.416 11.343.832.506 1.601 1.037 1.708 1.18.782 1.04 8.025 3.827 12.11 4.659 1.572.32 46.384.404 166.992.312l164.844-.125 3.125-.9c1.718-.495 3.564-1.19 4.101-1.545s1.779-1.022 2.76-1.483 2.41-1.389 3.177-2.062c.766-.673 1.545-1.225 1.732-1.227.539-.006 6.394-6.643 6.394-7.248 0-.167.247-.581.55-.92 1.565-1.752 3.032-5.278 3.549-8.527.299-1.88.733-4.561.965-5.957.297-1.794.386-49.935.303-164.063l-.118-161.523-.822-4.102c-.788-3.927-3.786-10.874-4.863-11.266-.201-.074-.696-.777-1.099-1.563-1.032-2.014-5.537-5.913-9.012-7.801-.752-.409-1.895-1.031-2.539-1.382-.645-.352-1.392-.64-1.66-.642-.269-.001-.489-.266-.489-.588 0-.391-.39-.586-1.172-.586-2.062 0-1.281.924 2.246 2.656 5.206 2.558 8.44 5.176 12.51 10.13 2.135 2.597 5.147 9.93 5.178 12.605.009.752.267 1.806.574 2.343.706 1.236.884 321.008.18 324.654-.223 1.157-.573 3.4-.777 4.983-.476 3.684-3.114 9.132-6.19 12.78-1.208 1.434-2.587 3.185-3.062 3.892-.476.708-1.267 1.412-1.758 1.566-.491.153-1.404.707-2.029 1.229-1.598 1.336-6.823 3.901-9.078 4.457-1.042.257-2.242.703-2.666.992-1.165.795-330.912.783-332.052-.011-.424-.296-1.514-.662-2.422-.815-1.85-.31-7.3-2.833-9.21-4.263-.686-.515-1.649-1.057-2.138-1.206-.489-.148-1.141-.652-1.45-1.119-.308-.467-1.49-1.831-2.626-3.031-1.174-1.24-3.077-4.021-4.409-6.445l-2.344-4.264v-169.922-169.922l1.612-3.125c.886-1.719 1.724-3.492 1.861-3.941.138-.449.684-1.049 1.214-1.332.53-.284 1.076-.883 1.212-1.332.306-1.008 5.042-5.7 5.753-5.7.284 0 .915-.423 1.401-.942.487-.518 2.363-1.6 4.17-2.405 3.212-1.431 4.223-2.512 2.35-2.512-.514 0-1.029.245-1.144.545m105.341 89.376c-1.363.365-2.746 1.712-3.065 2.987-.32 1.275-2.688 5.222-4.116 6.859-.58.665-1.18 1.613-1.334 2.107-.593 1.898-10.759 11.19-15.45 14.123-1.182.738-2.808 1.85-3.614 2.471l-1.464 1.129v15.365c0 16.623-.024 16.366 1.563 17.187 1.299.672 2.503.388 5.272-1.242 1.075-.632 2.275-1.271 2.668-1.418.953-.359 6.926-4.522 9.748-6.795 3.831-3.086 3.472-10.183 3.431 67.813l-.036 68.425.964.964.963.963h17.387c16.79 0 17.401-.026 17.791-.755.57-1.064.565-188.309-.004-189.558l-.409-.898h-14.638c-8.05 0-15.096.123-15.657.273m93.066.04c-.974.325-1.518 1.331-2.152 3.984-.205.86-.644 2.354-.975 3.321-.331.966-1.071 3.339-1.645 5.273-.573 1.934-1.369 4.339-1.768 5.346s-.726 2.11-.726 2.452c0 .861-1.87 6.71-2.753 8.608-.399.86-.916 2.653-1.149 3.986-.232 1.333-.769 3.206-1.192 4.164-.424.957-.88 2.591-1.013 3.631-.134 1.04-.572 2.439-.974 3.109s-.731 1.604-.731 2.077c0 .472-.208 1.242-.462 1.711-.508.94-2.079 5.995-2.814 9.057-.618 2.573-2.082 7.305-3.047 9.851-.426 1.122-1.005 2.968-1.287 4.102-.283 1.134-.698 2.59-.924 3.234-1.037 2.959-2.093 6.434-2.552 8.399-.277 1.181-.781 2.682-1.121 3.335s-.795 2.059-1.011 3.125c-.367 1.813-.66 2.789-2.253 7.504-.344 1.021-.885 2.911-1.201 4.2s-.739 2.607-.939 2.929c-.674 1.086-1.05 2.139-1.464 4.102-.226 1.074-.808 3.271-1.293 4.883-1.759 5.851-1.483 36.717.328 36.719 29.043.03 49.373.27 49.69.587.249.249.435 7.569.508 20.055l.115 19.661.922.747c.876.709 1.765.746 17.696.746h16.774l.534-1.278c.425-1.017.542-5.183.575-20.4.026-12.49.179-19.26.441-19.522.248-.249 4.41-.445 10.956-.517l10.556-.116.55-1.317c.684-1.636.783-23.285.118-25.795-.581-2.193-.274-2.135-11.093-2.083-6.848.033-10.043-.091-10.645-.414l-.86-.46-.011-53.6c-.013-61.315-.037-63.897-.599-64.844-.448-.755-48.929-1.279-51.109-.552m-62.938 1.111c.306.306.275 187.893-.031 188.199-.752.752-33.723.562-34.564-.199-.725-.657-.742-2.322-.713-69.454l.029-68.782-1.07-.921-1.07-.921-1.013 1.01c-1.436 1.43-4.555 3.894-7.068 5.583-1.181.795-2.505 1.755-2.94 2.134-.436.38-1.546.956-2.467 1.281s-2.126.946-2.679 1.38c-1.217.958-2.735 1.016-3.699.143-.669-.605-.714-1.611-.712-15.722l.002-15.076 3.38-2.149c1.859-1.182 4.187-2.912 5.174-3.846.986-.934 2.232-1.929 2.77-2.212 1.171-.616 8.593-8.189 8.593-8.768 0-.223.592-1.066 1.316-1.872 1.275-1.421 2.052-2.697 4.201-6.901 1.115-2.181 1.684-2.784 2.882-3.057 1.199-.274 29.398-.13 29.679.15m113.532.92c.138.645.272 27.416.297 59.493l.046 58.32 1.465.657c1.252.561 2.868.651 11.105.622l9.64-.034.227.907c.317 1.26.319 24.439.003 25.263-.234.609-1.155.671-9.994.671-7.618 0-10.031.123-11.091.566l-1.355.566-.006 19.648c-.003 11.692-.156 19.887-.376 20.235-.653 1.034-32.368 1.078-33.641.047-1.09-.882-1.015.79-1.087-24.188l-.046-15.742-1.368-.572c-1.153-.482-5.143-.569-25.271-.554-20.128.014-23.951-.069-24.21-.531-.168-.302-.32-7.765-.336-16.584l-.029-16.035.962-2.862c.529-1.574 1.081-3.74 1.226-4.815.146-1.074.578-2.304.961-2.734s.804-1.618.936-2.64.495-2.252.807-2.734c.313-.482.828-1.931 1.147-3.22.318-1.289.849-3.047 1.18-3.906s.609-1.965.619-2.457c.009-.492.347-1.547.751-2.344s.863-2.24 1.02-3.207.706-2.654 1.219-3.749c.513-1.094.933-2.464.933-3.042 0-.579.328-1.705.73-2.502.401-.797.856-2.313 1.01-3.37.154-1.056.518-2.287.807-2.734.29-.448.74-1.693.999-2.767.26-1.074.646-2.291.857-2.704s.71-1.995 1.109-3.515c1.735-6.615 2.344-8.697 2.875-9.821.311-.658.687-1.977.835-2.93.149-.953.596-2.152.993-2.665.397-.512.726-1.479.731-2.148s.353-1.977.775-2.905c.421-.929.965-2.862 1.208-4.297s.751-3.136 1.129-3.781c.377-.644.796-1.904.931-2.799.134-.895.498-2.125.809-2.734s.82-2.162 1.132-3.451.867-3.223 1.234-4.297c1.205-3.525 1.444-4.268 2.193-6.836.408-1.396.988-3.066 1.291-3.711.303-.644.672-2.001.822-3.014.51-3.464-.555-3.341 28.307-3.283l23.239.047zm-34.22 25.936c-.76.445-1.278 1.15-1.488 2.022-.177.736-.564 2.13-.86 3.097-.295.967-.725 2.689-.954 3.828s-.655 2.545-.947 3.125-.637 1.846-.766 2.813c-.129.966-.576 2.9-.994 4.296-.758 2.532-1.579 5.693-2.537 9.766-.278 1.182-.7 2.51-.937 2.952-.237.441-.726 2.375-1.085 4.296-.36 1.922-.89 3.95-1.177 4.507-.288.558-.645 1.964-.794 3.125-.148 1.162-.49 2.552-.759 3.089s-.787 2.439-1.15 4.226-.893 3.809-1.178 4.492c-.285.684-.648 2.122-.807 3.196-.16 1.074-.509 2.305-.778 2.734-.268.43-.689 1.98-.935 3.444-.246 1.465-.767 3.486-1.157 4.492-.391 1.007-.829 2.877-.974 4.157s-.501 2.599-.79 2.93c-.29.331-.733 1.817-.986 3.301-.253 1.485-.713 3.19-1.022 3.788-.874 1.689-1.536 6.848-1.024 7.972.663 1.454 2.573 1.691 12.764 1.583 11.716-.125 12.295-.286 12.323-3.424.161-18.637.864-54.585 1.152-58.907.207-3.115.494-10.971.637-17.457.317-14.362.152-15.16-2.777-13.443m2.02 1.46c.135.35.036 5.756-.219 12.011-.256 6.256-.629 22.185-.83 35.398-.57 37.354-.741 42.138-1.528 42.559-.361.193-5.422.4-11.245.46-12.934.134-12.65.254-11.233-4.75.332-1.175.861-3.279 1.175-4.675.314-1.397.909-3.594 1.321-4.883.413-1.289.92-3.135 1.127-4.102.324-1.516 1.094-4.422 3.778-14.258 1.496-5.483 2.655-9.928 2.955-11.328.183-.859.605-2.529.937-3.711.332-1.181.871-3.203 1.197-4.492 1.13-4.463 1.83-7.045 2.754-10.156.51-1.719 1.116-4.004 1.346-5.078s.667-2.832.971-3.906c.305-1.075 1.108-4.063 1.785-6.641.678-2.578 1.474-5.479 1.769-6.445.295-.967.716-2.716.936-3.886.22-1.171.618-2.267.884-2.436.809-.514 1.861-.356 2.12.319" fill="#fcb47c"/><path d="m34.697.608c-.07.334-1.604 1.274-3.41 2.089s-3.677 1.86-4.158 2.324c-.482.463-1.426 1.073-2.1 1.357-1.101.463-5.885 5.37-5.891 6.043-.001.151-.529.574-1.172.94-.761.433-1.171.978-1.175 1.562-.003.494-.75 2.216-1.66 3.827l-1.654 2.93-.1 169.05c-.087 147.121-.027 169.214.467 170.312 2.028 4.511 5.082 9.257 6.931 10.77.613.502 1.387 1.439 1.72 2.081.332.643 1.193 1.415 1.914 1.716s2.097 1.078 3.058 1.727c2.094 1.413 6.541 3.35 8.554 3.725.798.149 1.655.516 1.904.816.311.376 1.256.531 3.041.499 2.578-.046 2.581-.047.781-.352-.995-.168-2.225-.529-2.735-.803-.509-.274-1.541-.629-2.293-.788-1.909-.405-5.956-1.988-6.546-2.561-.269-.262-.885-.601-1.367-.751-.482-.151-1.373-.69-1.981-1.198-.612-.512-1.617-.923-2.255-.923-.97 0-1.189-.187-1.389-1.184-.13-.651-.647-1.507-1.149-1.901-1.585-1.247-4.314-4.865-4.812-6.382-.264-.803-.646-1.562-.848-1.687-.203-.125-.634-.787-.959-1.47-.324-.684-.847-1.683-1.162-2.22-.499-.853-.571-22.137-.568-168.386.003-159.808.064-169.537 1.065-170.258.647-.465 2.453-4.469 2.693-5.966.2-1.25.467-1.639 1.331-1.94.594-.207 1.538-1.068 2.097-1.913.56-.845 1.173-1.537 1.364-1.537s.522-.502.736-1.115c.27-.777.73-1.183 1.515-1.34.619-.124 1.912-.916 2.872-1.759.96-.844 2.185-1.665 2.722-1.826.537-.16 1.328-.506 1.758-.769s1.968-.892 3.418-1.399c2.982-1.041 3.495-1.948 1.103-1.948-1.074 0-1.572.182-1.66.608m334.834-.036c0 .74 1.029 1.275 3.454 1.795 1.073.23 2.041.654 2.152.942.11.288.754.645 1.43.794.677.148 2.164 1.03 3.305 1.96 1.141.929 2.565 1.747 3.165 1.817.804.094 1.165.405 1.37 1.18.154.579 1.27 2.02 2.48 3.201 1.571 1.534 2.356 2.667 2.746 3.965.301.999.85 2.151 1.22 2.56.893.987 2.089 4.291 2.602 7.191.58 3.278.881 321.418.311 328.479-.35 4.326-.518 5.119-1.188 5.588-.43.301-.781.788-.781 1.083 0 1.697-5.301 9.737-6.716 10.186-.367.116-.78.571-.92 1.011-.322 1.014-1.579 2.285-2.26 2.285-.287 0-.992.528-1.566 1.172-.574.645-1.263 1.174-1.529 1.176-.267.003-2.066.794-3.998 1.758-2.307 1.151-4.022 1.754-4.993 1.754-.815 0-2.134.299-2.933.665s-1.98.782-2.624.925c-.802.178-.267.276 1.696.311 2.328.042 3.055-.095 3.861-.729.547-.43 1.436-.782 1.978-.782 1.074 0 8.394-3.567 9.652-4.705.43-.388 1.257-.823 1.838-.968.75-.186 1.184-.647 1.495-1.591.241-.731.586-1.329.766-1.329 1.524 0 8.595-12.156 8.598-14.782.001-.786.262-3.011.579-4.945.842-5.124.893-322.786.052-324.135-.297-.476-.646-1.967-.776-3.313-.172-1.777-.72-3.443-2-6.073-.969-1.993-1.763-3.842-1.763-4.108s-1.144-1.662-2.542-3.102-2.641-2.931-2.763-3.313c-.121-.383-.954-1.064-1.852-1.514-.897-.451-1.983-1.122-2.413-1.492-1.089-.938-4.717-2.887-6.934-3.723-1.02-.385-1.855-.94-1.855-1.233 0-.332-.442-.533-1.172-.533-.769 0-1.172.197-1.172.572m-235.281 89.29c-1.247 1.135-1.879 2.1-2.241 3.418-.493 1.8-1.013 2.662-3.221 5.345-.603.732-1.198 1.965-1.324 2.741-.19 1.168-.424 1.449-1.364 1.637-.682.136-1.347.634-1.668 1.248-.679 1.3-6.191 6.687-6.841 6.687-.145 0-1.048.751-2.008 1.67-.962.923-2.456 1.885-3.335 2.148-1.528.458-4.348 2.388-4.891 3.347-.588 1.04-.505 34.141.088 34.855 1.009 1.215 2.686 1.699 3.842 1.108.56-.287 1.875-.823 2.922-1.193s2.57-1.212 3.384-1.871c.814-.658 2.386-1.725 3.493-2.369 1.96-1.141 4.286-2.747 5.482-3.784 1.275-1.106 2.644-1.492 2.903-.818.132.344.224 31.209.204 68.59-.033 61.811.02 68.022.588 68.59.55.55 2.493.632 16.138.682 14.644.053 17.892.175 19.854.744.605.175 1.05-.046 1.664-.826l.837-1.065-.101-95.586c-.084-80.335-.186-95.69-.636-96.233-.483-.581-2.113-.646-16.284-.646h-15.747zm94.378-1.092c-.645.842-2.847 5.686-2.847 6.261 0 .303-.326 1.5-.725 2.662-.399 1.161-.854 3.166-1.012 4.455-.158 1.29-.549 2.638-.87 2.996-.32.359-.79 1.853-1.044 3.32-.255 1.468-.762 3.112-1.126 3.653-.365.542-.786 2.036-.935 3.32-.182 1.567-.501 2.499-.967 2.831-.422.299-.789 1.224-.932 2.343-.129 1.018-.485 2.377-.791 3.022-1.139 2.404-2.431 6.312-2.711 8.203-.159 1.074-.607 2.656-.996 3.516-.389.859-.834 2.441-.988 3.515s-.512 2.22-.795 2.545c-.622.714-1.319 3.578-1.333 5.474-.005.847-.287 1.616-.73 1.995-.467.4-.815 1.417-.988 2.89-.181 1.538-.498 2.435-.981 2.773-.481.337-.784 1.192-.933 2.63-.121 1.172-.514 2.581-.874 3.129-.359.549-.798 2.16-.974 3.58-.19 1.531-.599 2.89-1.006 3.34-.424.468-.753 1.613-.861 2.998-.113 1.451-.432 2.522-.906 3.042-.402.44-.898 1.671-1.102 2.734-.203 1.063-.625 2.548-.937 3.3-.313.752-.698 2.334-.856 3.516-.159 1.181-.597 2.541-.975 3.022s-.806 1.669-.951 2.639c-.146.971-.502 2.222-.793 2.782-.29.559-.751 2.141-1.024 3.513-.273 1.373-.622 2.497-.777 2.497-.385 0-1.138 2.25-1.138 3.4 0 .516-.386 1.765-.857 2.773-1.176 2.515-1.587 31.464-.488 34.358.962 2.536-.11 2.437 26.417 2.443 13.388.004 24.558.144 24.822.311 1.046.665.595 33.716-.509 37.262-.759 2.439 3.381 5.429 6.007 4.337 2.122-.883 29.407-.564 30.423.356.709.642.791.59 2.03-1.303l1.292-1.972.06-19.401.061-19.4 10.628-.196c13.833-.254 12.586 1.306 12.548-15.697-.038-17.053 1.139-15.553-12.236-15.589-5.535-.014-10.31-.121-10.612-.237-.469-.18-.544-8.723-.509-58.348l.042-58.138-.905-1.972-.905-1.972h-26.028c-20.364 0-26.11.107-26.403.489m52.57 1.234c.454.947.529 10.545.469 59.822-.058 47.969.022 58.754.439 59.024.281.181 5.248.418 11.037.525l10.525.195.751 1.287c1.814 3.108.871 28.53-1.06 28.615-.236.01-4.929.054-10.428.098-8.092.063-10.129.187-10.683.647-.641.531-.677 1.851-.549 19.944.118 16.731.057 19.495-.449 20.25l-.586.874-17.187.006-17.188.006-.829-.964c-.819-.952-.83-1.195-.892-20.609-.034-10.805-.159-19.742-.277-19.861-.119-.118-11.319-.255-24.89-.305s-24.774-.093-24.895-.098c-1.295-.043-1.546-2.81-1.59-17.516-.046-15.59.071-16.912 2.01-22.725.394-1.182.82-2.752.947-3.49.126-.738.467-1.617.757-1.953.289-.337.74-1.755 1.002-3.151s.718-2.916 1.013-3.377c.296-.46.814-2.03 1.152-3.488s.764-2.839.946-3.069.454-1.296.605-2.371c.151-1.074.604-2.52 1.007-3.213.403-.692.932-2.362 1.176-3.71.244-1.349.619-2.664.834-2.923s.738-1.754 1.162-3.32c.425-1.567 1.127-4.167 1.561-5.778s.972-3.149 1.195-3.418.652-1.662.952-3.096c.301-1.433.74-2.839.977-3.124.236-.285.658-1.617.938-2.96.279-1.343.785-3.277 1.124-4.298 1.474-4.434 1.855-5.655 2.222-7.113.214-.851.526-1.73.694-1.953s.53-1.461.804-2.75c.275-1.289.902-3.31 1.394-4.492s1.019-3.149 1.171-4.372c.175-1.414.545-2.468 1.014-2.893.417-.377.743-1.197.748-1.878.005-.665.341-1.94.746-2.833.406-.893.948-2.651 1.206-3.906s.706-2.722.997-3.259.822-2.119 1.182-3.515c1.74-6.764 3.811-13.186 4.463-13.837.231-.231 9.709-.34 24.889-.287 16.343.058 24.712-.048 25.102-.316.909-.625 1.702-.305 2.292.928m-113.204.603c.719 2.495.31 189.708-.416 190.359-1.056.946-35.782.439-36.759-.537-.722-.723-.741-2.495-.747-69.199-.003-40.036-.152-68.688-.358-69.014-.403-.635-.112-.802-4.728 2.706-8.966 6.812-14.586 9.264-16.605 7.244l-.959-.959v-15.808-15.808l1.02-1.213c.562-.667 2.025-1.71 3.252-2.319 2.738-1.359 7.831-5.453 11.744-9.441 1.611-1.643 3.22-3.088 3.576-3.213s.774-.806.929-1.513c.155-.706.942-2.081 1.749-3.053 1.477-1.781 3.899-6.07 3.901-6.907 0-.247.625-.95 1.387-1.562l1.386-1.112 15.614-.018 15.615-.018zm2.319.995c0 .322.175.586.39.586s.391-.264.391-.586c0-.323-.176-.586-.391-.586s-.39.263-.39.586m75.635 28.526c-.135.351-.245 1.147-.245 1.767s-.418 2.408-.929 3.973c-.511 1.566-1.147 3.9-1.414 5.188s-.728 2.689-1.024 3.113c-.297.424-.539 1.352-.539 2.063s-.331 2.298-.736 3.526c-.405 1.229-1.039 3.64-1.41 5.359-.37 1.719-.822 3.308-1.002 3.532-.181.224-.591 1.543-.911 2.93-1.702 7.377-2.076 8.839-2.443 9.554-.22.43-.612 1.836-.872 3.125-.656 3.263-2.208 9.251-3.595 13.867-.226.752-.555 1.982-.732 2.734-.644 2.748-1.635 6.506-2.369 8.985-.782 2.644-1.646 5.966-2.589 9.961-.305 1.289-.795 3.134-1.091 4.101-.952 3.115-1.096 4.297-.596 4.899.566.683 20.598.856 21.844.189.906-.485 1.08-5.361 1.586-44.346.201-15.468.578-31.289.838-35.156.688-10.208.711-9.744-.501-9.884-.668-.078-1.11.104-1.27.52m.591 30.57c-.075 15.174-.293 28.004-.486 28.511-.192.506-.532 7.263-.754 15.016-.222 7.752-.5 14.251-.617 14.441-.221.357-17.726.395-19.964.043-1.245-.196-1.252-.209-.684-1.308.316-.61.77-2.481 1.009-4.158.24-1.676.663-3.411.94-3.856.278-.444.714-2.19.97-3.879.256-1.69.711-3.447 1.012-3.905.3-.458.66-1.701.799-2.761s.555-2.543.924-3.295c.37-.752.768-2.341.885-3.531s.564-2.86.993-3.711.897-2.426 1.04-3.5c.143-1.075.587-2.657.986-3.516s.847-2.793.996-4.297c.148-1.504.516-3.016.818-3.36.302-.345.79-1.839 1.085-3.321.294-1.481.791-3.397 1.104-4.256.313-.86.689-2.61.836-3.89s.53-2.618.852-2.974c.322-.355.692-1.593.823-2.751.132-1.157.563-2.752.96-3.543.396-.791.88-2.867 1.075-4.612.197-1.759.612-3.467.932-3.834.317-.364.688-1.551.825-2.637s.579-2.621.981-3.41c.403-.79.855-2.421 1.006-3.625.652-5.217.782-.042.654 25.919m-122.809 232.017c43.882.055 115.689.055 159.571 0s7.978-.1-79.785-.1c-87.764 0-123.667.045-79.786.1" fill="#f88436"/></g></svg>