<svg height="390.566038" viewBox="0 0 400 390.56603774" width="400" xmlns="http://www.w3.org/2000/svg"><g fill-rule="evenodd"><path d="m0 195.313v195.312h200 200v-195.312-195.313h-200-200zm363.867-192.142c2.794.286 5.079.765 6.531 1.369 1.229.511 2.46.929 2.735.93.475.002 2.556 1.233 6.109 3.613 2.55 1.708 6.87 5.971 7.696 7.594.417.818.897 1.548 1.068 1.623.337.148 1.589 2.591 3.533 6.895l1.234 2.735.101 165.625c.087 142.434.023 165.899-.456 167.578-1.042 3.654-2.083 6.246-3.293 8.203-.664 1.074-1.499 2.48-1.856 3.125-.356.644-2.164 2.637-4.017 4.429-4.375 4.228-4.343 4.202-5.713 4.805-.644.284-1.26.62-1.367.748-.588.699-5.38 2.706-6.954 2.911-1.01.132-2.626.537-3.593.9-2.279.856-326.483 1.042-327.971.188-.452-.259-2.034-.665-3.515-.901-6.839-1.09-19.686-10.401-19.686-14.268 0-.261-.257-.687-.57-.948-.815-.675-2.709-4.788-3.784-8.216l-.919-2.929v-164.453-164.454l.909-2.734c.5-1.504 1.335-3.631 1.855-4.726.521-1.096.947-2.123.947-2.282 0-.16.361-.758.803-1.329s1.296-1.804 1.898-2.74c1.391-2.163 5.735-6.587 7.231-7.365.629-.327 1.951-1.163 2.939-1.857.987-.694 2.494-1.479 3.348-1.745.855-.266 2.433-.826 3.507-1.243 1.225-.476 3.629-.88 6.446-1.083 7.268-.525 319.668-.523 324.804.002m-126.562 91.401c-2.807.191-5.688.638-7.18 1.115-1.371.439-3.02.797-3.665.797s-1.721.331-2.39.734c-.67.404-1.911.956-2.757 1.227-.846.27-2.34.996-3.32 1.612s-2.271 1.426-2.869 1.801c-1.029.645-4.88 4.291-6.136 5.81-3.181 3.844-5.922 10.39-6.793 16.218-.31 2.074-.798 4.183-1.086 4.688-.871 1.529-.753 29.091.131 30.41.359.537.841 2.012 1.07 3.277.23 1.264.572 2.495.761 2.734.188.239.564 1.138.834 1.997.27.86.711 1.826.98 2.149.269.322.801 1.201 1.182 1.953.841 1.659 3.923 5.515 4.841 6.054.365.215 1.268.95 2.007 1.634 2.474 2.29 6.063 4.427 10.034 5.974 2.315.902 1.473 2.933-1.679 4.053-1.759.625-7.753 4.193-8.98 5.345-.449.422-1.019.768-1.266.768s-.651.377-.898.837c-.246.461-1.118 1.565-1.936 2.453-1.616 1.753-5.841 9.655-5.855 10.95-.005.439-.356 1.566-.782 2.504-2.08 4.583-2.259 45.466-.213 48.589.338.516.798 1.931 1.023 3.144.224 1.213.662 2.694.973 3.29.311.597.575 1.348.586 1.67.054 1.51 5.062 8.807 7.607 11.085 2.53 2.264 6.449 4.826 7.915 5.174.585.139 1.327.478 1.65.753.322.275 1.289.626 2.148.78.86.153 2.266.619 3.125 1.034.895.432 3.15.92 5.274 1.142 2.041.213 4.765.574 6.054.802 4.186.739 14.933.851 17.173.179 1.082-.325 3.638-.695 5.679-.824 2.415-.153 4.598-.556 6.25-1.156 6.304-2.288 8.466-3.148 9.375-3.732.537-.344 1.416-.82 1.953-1.056.809-.356 4.555-3.273 5.549-4.32 1.375-1.45 3.045-3.583 3.045-3.89 0-.21.351-.699.781-1.088s.781-.909.781-1.156c0-.248.44-1.045.977-1.773.537-.729.977-1.686.978-2.127.001-.442.332-1.345.736-2.008.404-.662.854-1.805 1.001-2.539.146-.734.587-2.477.978-3.873 2.109-7.515 2.049-43.708-.079-47.87-.325-.635-.717-1.769-.871-2.521s-.501-1.719-.769-2.148c-.269-.43-.706-1.445-.972-2.256-.266-.812-.883-1.954-1.371-2.54-.489-.585-1.169-1.591-1.512-2.236-.577-1.084-3.67-4.414-5.804-6.25-1.494-1.285-7.068-4.57-8.383-4.94-2.843-.801-4.41-3.46-2.389-4.055 1.545-.456 5.916-2.635 7.166-3.574.664-.499 1.375-.907 1.578-.907.204 0 .994-.679 1.757-1.509.763-.829 1.654-1.664 1.981-1.855.779-.456 4.608-5.086 4.608-5.574 0-.207.432-.892.961-1.52.529-.629 1.148-1.972 1.375-2.985.227-1.012.659-2.225.96-2.695 2.053-3.205 3.519-30.678 1.853-34.736-.241-.588-.628-2.59-.859-4.448-.23-1.858-.687-3.896-1.013-4.527s-.744-2.073-.928-3.204-.785-2.72-1.335-3.53-1.479-2.453-2.065-3.65c-1.035-2.115-6.182-7.892-7.031-7.892-.229 0-.633-.261-.898-.58-.608-.732-4.311-2.75-6.182-3.367-.782-.258-1.953-.793-2.602-1.189-.65-.397-1.746-.721-2.437-.722-.69-.001-2.11-.339-3.155-.75-3.376-1.331-16.517-1.893-27.23-1.164m-99.7 2.559c-.703.285-2.672 3.327-3.212 4.962-.256.777-.624 1.51-.818 1.63s-1.007 1.221-1.807 2.447c-2.606 3.995-7.704 9.607-11.496 12.655-3.168 2.547-5.428 4.222-5.696 4.222-.144 0-1.194.642-2.334 1.428-2.654 1.827-2.529.851-2.394 18.689l.113 14.844 1.172-.127c.644-.07 1.435-.357 1.758-.638.322-.28 1.018-.642 1.546-.804.865-.264 3.372-1.607 6.973-3.733 1.33-.785 5.825-4.371 6.52-5.202.215-.256 1.027-.855 1.806-1.33 2.675-1.633 2.47-7.007 2.686 70.195l.195 69.764 16.992.094c9.346.052 17.22-.052 17.499-.23.533-.34.768-187.111.237-188.495-.236-.613-28.278-.962-29.74-.371m112.049 19.283c4.033.764 5.985 4.055 7.002 11.812.81 6.172.291 34.257-.691 37.399-.953 3.047-1.686 4.688-2.095 4.688-.166 0-.402.315-.524.7s-1.193 1.176-2.379 1.757c-6.449 3.163-12.359-1.084-13.478-9.684-.997-7.67-.277-38.214.947-40.147.302-.478.663-1.412.801-2.076.736-3.54 5.185-5.44 10.417-4.449m1.214 85.114c3.319.771 5.622 3.954 6.167 8.52.199 1.671.587 3.741.863 4.6.71 2.218.717 34.774.008 37.305-.271.967-.645 3.191-.832 4.942-.783 7.366-3.207 9.707-10.052 9.707h-4.796l-1.535-1.499c-2.296-2.241-3.582-5.057-3.582-7.847 0-1.267-.278-4.955-.619-8.197-.752-7.152-.57-25.611.344-34.878 1.095-11.103 5.112-14.725 14.034-12.653" fill="#f8f7f8"/><path d="m38.672 4.554c-2.483.402-9.644 2.931-11.176 3.947-1.412.938-2.88 1.903-4.243 2.792-2.336 1.524-4.782 4.22-6.522 7.188-.858 1.464-1.792 2.751-2.076 2.859-.283.109-.621.761-.75 1.448s-.591 1.916-1.028 2.729c-2.253 4.205-2.103-7.025-2.239 167.452l-.123 159.57.826 5.15c.454 2.832 1.165 5.814 1.578 6.625.414.812.753 1.778.753 2.147s.251.921.557 1.228c.307.306.878 1.076 1.27 1.711 2.222 3.599 6.82 8.598 9.041 9.831.646.358 1.892 1.051 2.77 1.539.878.487 1.596 1.059 1.596 1.269 0 .211.396.385.879.387.484.002 1.846.485 3.028 1.074l2.148 1.07h166.211 166.211l2.539-1.101c4.287-1.859 6.726-3.156 7.662-4.074.493-.484 1.136-.879 1.429-.879.294 0 .916-.396 1.384-.879.468-.484 1.122-1.143 1.454-1.465 1.225-1.19 4.477-5.401 4.477-5.797 0-.225.332-.641.738-.925.405-.285.924-1.194 1.153-2.022.228-.828.693-1.811 1.032-2.186.339-.374.774-1.628.966-2.786.192-1.157.627-2.759.966-3.56.559-1.32.606-16.712.505-164.648l-.112-163.193-.977-2.983c-.537-1.641-1.177-3.224-1.421-3.518s-.572-1.061-.729-1.705c-.158-.643-.687-1.652-1.177-2.241-.489-.59-1.004-1.431-1.143-1.868-.138-.438-.634-1.196-1.101-1.685-.466-.489-1.384-1.494-2.038-2.234-1.42-1.606-4.87-4.665-5.26-4.665-.153 0-.893-.418-1.646-.928-.753-.511-2.051-1.149-2.886-1.417s-1.782-.71-2.104-.981c-.323-.271-1.201-.622-1.953-.779s-1.895-.572-2.539-.922c-1.098-.596-324.295-1.162-327.93-.575m220.004 88.323c.582.248 2.719.621 4.748.829 2.03.207 4.191.633 4.801.946.611.313 2.124.794 3.362 1.069 1.238.274 2.446.734 2.684 1.022.239.287.641.523.894.523.254 0 1.572.747 2.93 1.66s2.88 1.935 3.383 2.271 1.348 1.039 1.878 1.562c.529.524 1.143 1.128 1.363 1.343 1.577 1.534 3.319 3.926 4.161 5.709.546 1.157 1.239 2.543 1.542 3.08.662 1.176 1.68 4.233 2.211 6.64.213.967.772 2.989 1.241 4.492 1.311 4.204 1.329 35.936.021 38.086-.457.752-.942 1.993-1.078 2.757-.135.764-.596 2.075-1.024 2.914-.427.839-.777 1.743-.777 2.009s-.44.957-.977 1.537-.976 1.339-.976 1.688c0 1.664-8.796 10.189-10.512 10.189-.175 0-.961.437-1.749.972-.787.534-1.867 1.081-2.398 1.214-.532.133-.966.36-.966.504 0 .749 1.32 1.968 2.384 2.202.666.146 1.508.563 1.871.926.364.364 1.213.89 1.889 1.17.675.279 1.971 1.195 2.88 2.034s1.758 1.525 1.886 1.525c.419 0 4.379 4.602 5.105 5.932 2.055 3.764 3.516 6.933 3.516 7.631 0 .431.362 1.245.804 1.808.563.714.915 1.996 1.17 4.252.201 1.776.63 4.19.953 5.364.867 3.147.861 30.115-.007 33.229-.327 1.174-.755 3.916-.95 6.092-.243 2.708-.61 4.432-1.163 5.463-.444.829-.809 1.861-.811 2.294-.002.432-.436 1.665-.964 2.74-.529 1.074-.966 2.229-.973 2.567s-.535 1.304-1.173 2.148c-.639.844-1.166 1.754-1.172 2.021-.017.758-6.295 6.944-7.824 7.709-.752.377-1.718.996-2.148 1.376s-1.221.823-1.758.984c-.537.162-1.37.601-1.851.977-.481.375-1.711.806-2.734.957-1.023.152-2.145.53-2.493.841-.347.311-1.754.749-3.125.973-1.371.225-3.371.669-4.445.988-4.603 1.365-25.142 1.544-29.688.259-1.074-.304-3.313-.771-4.976-1.038-1.806-.29-3.222-.735-3.516-1.105-.271-.34-1.196-.723-2.056-.85-1.322-.195-4.801-1.757-8.146-3.658-2.154-1.224-7.562-6.568-8.739-8.636-2.26-3.973-3.595-6.987-3.86-8.72-.144-.935-.509-2.192-.813-2.793-2.394-4.747-4.084-41.168-2.151-46.367.279-.752.752-2.748 1.049-4.435.298-1.686.816-3.37 1.152-3.741s.611-1.104.611-1.628c0-.805 1.286-3.618 3.733-8.165 1.072-1.994 7.457-7.975 9.536-8.934.759-.35 1.513-.843 1.675-1.096.163-.252.954-.669 1.758-.927 2.882-.922 3.936-2.502 1.95-2.922-.698-.147-1.621-.58-2.051-.962-.429-.382-1.22-.827-1.757-.99-2.012-.608-9.597-7.654-11.091-10.303-.238-.422-1.098-1.938-1.91-3.368-.85-1.496-1.573-3.375-1.702-4.421-.124-1.001-.563-2.545-.976-3.431-2.175-4.672-1.847-32.819.469-40.066.416-1.303.757-2.883.757-3.511 0-.627.34-1.791.756-2.586.416-.794 1.25-2.499 1.855-3.788 2.421-5.162 9.421-12.695 11.796-12.695.24 0 .436-.18.436-.401 0-.22.448-.57.996-.778.548-.209 1.927-.819 3.065-1.358 1.138-.538 2.316-.98 2.618-.981.301-.002 1.043-.261 1.647-.576 1.071-.559 2.666-.904 8.276-1.79 1.504-.238 3.349-.581 4.101-.762 2.057-.496 20.291-.239 21.567.304m-90.683 2.42c.12.008.604.374 1.074.812l.855.796v94.702 94.701l-1.153.596c-1.753.907-35.53.892-37.068-.016l-1.037-.613.092-62.18c.051-34.2.107-63.587.124-65.306.117-11.263-.348-11.789-5.726-6.476-.452.446-.993.812-1.201.812-.209 0-.768.414-1.243.92-.476.506-2.923 1.927-5.44 3.158-2.516 1.231-5.055 2.495-5.641 2.809-1.247.666-2.186.316-3.168-1.182-.558-.852-.63-2.788-.606-16.324.029-15.964.176-17.583 1.681-18.445.411-.236 1.07-.736 1.465-1.112s.888-.683 1.095-.683c.208 0 1.269-.791 2.357-1.758 1.089-.967 2.211-1.758 2.495-1.758.86 0 6.568-5.312 9.419-8.766.86-1.041 1.861-2.21 2.226-2.597.364-.388.939-1.198 1.277-1.8s1.215-1.911 1.948-2.908c.733-.998 1.521-2.513 1.751-3.367.551-2.048 1.758-3.53 3.175-3.897.812-.21 28.525-.315 31.249-.118m75.464 23.313c-.913.55-1.66 1.189-1.66 1.418 0 .23-.285.733-.634 1.119-2.107 2.328-3.662 35.053-1.953 41.111.311 1.1.687 2.791.836 3.758.149.966.58 2.109.958 2.539.377.429.859 1.106 1.07 1.504 1.355 2.552 8.825 2.312 10.159-.326.328-.648.847-1.466 1.155-1.818.35-.4.769-2.596 1.117-5.86.306-2.87.736-5.833.956-6.584.638-2.186.501-18.332-.187-22.042-.322-1.736-.735-4.944-.916-7.129-.601-7.225-5.703-10.824-10.901-7.69m.135 85.115c-2.607 1.293-3.3 1.998-3.589 3.653-.136.776-.532 1.851-.881 2.388-.853 1.312-1.104 11.141-.822 32.226l.215 16.016 1.087 2.344c2.349 5.061 8.234 6.707 12.311 3.443.989-.792 1.857-1.482 1.93-1.533.073-.05.303-.85.511-1.777.208-.926.612-1.951.898-2.276 1.387-1.58 1.551-46.958.177-48.672-.187-.234-.605-1.174-.928-2.09-1.395-3.955-6.753-5.783-10.909-3.722" fill="#040404"/><path d="m36.914 4.185c-2.215.31-8.205 2.553-10.156 3.803-1.074.688-2.417 1.537-2.985 1.886-5.4 3.324-10.822 11.438-12.903 19.308l-.909 3.435v162.305 162.305l.874 3.081c3.33 11.745 9.493 18.726 20.795 23.558 5.131 2.193-4.778 2.072 169.665 2.063 174.979-.008 165.442.113 169.843-2.163.687-.355 1.793-.847 2.458-1.093 6.931-2.562 14.086-10.825 17.299-19.978l1.097-3.125v-165.039-165.039l-1.046-2.734c-4.047-10.582-9.901-16.695-19.965-20.849l-4.379-1.807-164.258-.041c-90.342-.022-164.785.034-165.43.124m329.688.944c.644.35 1.787.765 2.539.922s1.63.508 1.953.779c.322.271 1.269.713 2.104.981s2.133.906 2.886 1.417c.753.51 1.493.928 1.646.928.39 0 3.84 3.059 5.26 4.665.654.74 1.572 1.745 2.038 2.234.467.489.963 1.247 1.101 1.685.139.437.654 1.278 1.143 1.868.49.589 1.019 1.598 1.177 2.241.157.644.485 1.411.729 1.705s.884 1.877 1.421 3.518l.977 2.983.112 163.193c.101 147.936.054 163.328-.505 164.648-.339.801-.774 2.403-.966 3.56-.192 1.158-.627 2.412-.966 2.786-.339.375-.804 1.358-1.032 2.186-.229.828-.748 1.737-1.153 2.022-.406.284-.738.7-.738.925 0 .396-3.252 4.607-4.477 5.797-.332.322-.986.981-1.454 1.465-.468.483-1.09.879-1.384.879-.293 0-.936.395-1.429.879-.936.918-3.375 2.215-7.662 4.074l-2.539 1.101h-166.211-166.211l-2.148-1.07c-1.182-.589-2.544-1.072-3.028-1.074-.483-.002-.879-.176-.879-.387 0-.21-.718-.782-1.596-1.269-.878-.488-2.124-1.181-2.77-1.539-2.221-1.233-6.819-6.232-9.041-9.831-.392-.635-.963-1.405-1.27-1.711-.306-.307-.557-.859-.557-1.228s-.339-1.335-.753-2.147c-.413-.811-1.124-3.793-1.578-6.625l-.826-5.15.123-159.57c.136-174.477-.014-163.247 2.239-167.452.437-.813.899-2.042 1.028-2.729s.467-1.339.75-1.448c.284-.108 1.218-1.395 2.076-2.859 1.74-2.968 4.186-5.664 6.522-7.188 1.363-.889 2.831-1.854 4.243-2.792 1.532-1.016 8.693-3.545 11.176-3.947 3.635-.587 326.832-.021 327.93.575m-129.493 87.444c-.752.181-2.597.524-4.101.762-5.61.886-7.205 1.231-8.276 1.79-.604.315-1.346.574-1.647.576-.302.001-1.48.443-2.618.981-1.138.539-2.517 1.149-3.065 1.358-.548.208-.996.558-.996.778 0 .221-.196.401-.436.401-2.375 0-9.375 7.533-11.796 12.695-.605 1.289-1.439 2.994-1.855 3.788-.416.795-.756 1.959-.756 2.586 0 .628-.341 2.208-.757 3.511-2.316 7.247-2.644 35.394-.469 40.066.413.886.852 2.43.976 3.431.129 1.046.852 2.925 1.702 4.421.812 1.43 1.672 2.946 1.91 3.368 1.494 2.649 9.079 9.695 11.091 10.303.537.163 1.328.608 1.757.99.43.382 1.353.815 2.051.962 1.986.42.932 2-1.95 2.922-.804.258-1.595.675-1.758.927-.162.253-.916.746-1.675 1.096-2.079.959-8.464 6.94-9.536 8.934-2.447 4.547-3.733 7.36-3.733 8.165 0 .524-.275 1.257-.611 1.628s-.854 2.055-1.152 3.741c-.297 1.687-.77 3.683-1.049 4.435-1.933 5.199-.243 41.62 2.151 46.367.304.601.669 1.858.813 2.793.265 1.733 1.6 4.747 3.86 8.72 1.177 2.068 6.585 7.412 8.739 8.636 3.345 1.901 6.824 3.463 8.146 3.658.86.127 1.785.51 2.056.85.294.37 1.71.815 3.516 1.105 1.663.267 3.902.734 4.976 1.038 4.546 1.285 25.085 1.106 29.688-.259 1.074-.319 3.074-.763 4.445-.988 1.371-.224 2.778-.662 3.125-.973.348-.311 1.47-.689 2.493-.841 1.023-.151 2.253-.582 2.734-.957.481-.376 1.314-.815 1.851-.977.537-.161 1.328-.604 1.758-.984s1.396-.999 2.148-1.376c1.529-.765 7.807-6.951 7.824-7.709.006-.267.533-1.177 1.172-2.021.638-.844 1.166-1.81 1.173-2.148s.444-1.493.973-2.567c.528-1.075.962-2.308.964-2.74.002-.433.367-1.465.811-2.294.553-1.031.92-2.755 1.163-5.463.195-2.176.623-4.918.95-6.092.868-3.114.874-30.082.007-33.229-.323-1.174-.752-3.588-.953-5.364-.255-2.256-.607-3.538-1.17-4.252-.442-.563-.804-1.377-.804-1.808 0-.698-1.461-3.867-3.516-7.631-.726-1.33-4.686-5.932-5.105-5.932-.128 0-.977-.686-1.886-1.525s-2.205-1.755-2.88-2.034c-.676-.28-1.525-.806-1.889-1.17-.363-.363-1.205-.78-1.871-.926-1.064-.234-2.384-1.453-2.384-2.202 0-.144.434-.371.966-.504.531-.133 1.611-.68 2.398-1.214.788-.535 1.574-.972 1.749-.972 1.716 0 10.512-8.525 10.512-10.189 0-.349.439-1.108.976-1.688s.977-1.271.977-1.537.35-1.17.777-2.009c.428-.839.889-2.15 1.024-2.914.136-.764.621-2.005 1.078-2.757 1.308-2.15 1.29-33.882-.021-38.086-.469-1.503-1.028-3.525-1.241-4.492-.531-2.407-1.549-5.464-2.211-6.64-.303-.537-.996-1.923-1.542-3.08-.842-1.783-2.584-4.175-4.161-5.709-.22-.215-.834-.819-1.363-1.343-.53-.523-1.375-1.226-1.878-1.562s-2.025-1.358-3.383-2.271-2.676-1.66-2.93-1.66c-.253 0-.655-.236-.894-.523-.238-.288-1.446-.748-2.684-1.022-1.238-.275-2.751-.756-3.362-1.069-.61-.313-2.771-.739-4.801-.946-2.029-.208-4.166-.581-4.748-.829-1.276-.543-19.51-.8-21.567-.304m20.508.99c15.019 2.095 21.164 5.019 28.714 13.664 1.158 1.326 4.685 8.43 4.685 9.437 0 .524.246 1.43.548 2.013.301.583.757 2.2 1.013 3.594.256 1.393.756 3.413 1.112 4.487.559 1.687.644 3.998.623 16.992l-.023 15.039-1.458 3.906c-.802 2.149-1.721 4.742-2.043 5.762-.321 1.021-.751 1.856-.954 1.856-.204 0-.64.646-.97 1.436-1.08 2.583-6.022 7.91-9.372 10.101-1.728 1.131-6.945 3.697-7.515 3.697-1.344 0 .469 1.941 2.652 2.84 4.607 1.896 11.912 7.978 14.277 11.886 1.247 2.061 3.261 6.335 3.546 7.526.13.545.56 1.636.956 2.425.395.79.899 3.075 1.12 5.078.221 2.004.62 4.61.886 5.792.659 2.922.625 25.437-.043 28.711-.263 1.289-.642 4.16-.842 6.38-.458 5.086-3.068 13.094-5.411 16.605-.568.85-1.208 1.826-1.423 2.169-2.86 4.564-12.628 11.738-16.015 11.762-.43.003-1.698.432-2.817.953-1.195.557-3.777 1.205-6.25 1.57-2.318.342-5.093.782-6.168.978-2.6.474-16.183.485-19.14.015-1.289-.205-4.511-.714-7.159-1.131-2.675-.421-5.106-1.014-5.469-1.334-.359-.317-1.269-.699-2.021-.85-8.477-1.699-19.439-13.011-20.919-21.585-.14-.808-.663-2.788-1.162-4.399-2.199-7.095-2.915-33.512-1.201-44.336 1.303-8.234 4.983-16.162 9.718-20.94 2.603-2.627 9.514-7.381 10.728-7.381.537 0 2.836-1.904 2.836-2.348 0-.179-.62-.53-1.379-.781-8.418-2.778-18.406-13.609-19.577-21.231-.137-.889-.619-2.495-1.072-3.569-1.131-2.684-1.278-30.123-.18-33.789.353-1.182.861-3.379 1.127-4.883 2.206-12.45 11.478-22.493 24.011-26.01 9.019-2.531 22.589-3.423 32.031-2.107m-120.873 1.852c-1.417.367-2.624 1.849-3.175 3.897-.23.854-1.018 2.369-1.751 3.367-.733.997-1.61 2.306-1.948 2.908s-.913 1.412-1.277 1.8c-.365.387-1.366 1.556-2.226 2.597-2.851 3.454-8.559 8.766-9.419 8.766-.284 0-1.406.791-2.495 1.758-1.088.967-2.149 1.758-2.357 1.758-.207 0-.7.307-1.095.683s-1.054.876-1.465 1.112c-1.505.862-1.652 2.481-1.681 18.445-.024 13.536.048 15.472.606 16.324.982 1.498 1.921 1.848 3.168 1.182.586-.314 3.125-1.578 5.641-2.809 2.517-1.231 4.964-2.652 5.44-3.158.475-.506 1.034-.92 1.243-.92.208 0 .749-.366 1.201-.812 5.378-5.313 5.843-4.787 5.726 6.476-.017 1.719-.073 31.106-.124 65.306l-.092 62.18 1.037.613c1.538.908 35.315.923 37.068.016l1.153-.596v-94.701-94.702l-.855-.796c-.47-.438-.954-.804-1.074-.812-2.724-.197-30.437-.092-31.249.118m31.196.969.847.686-.001 94.336-.002 94.336-.841.684c-.998.81-34.069 1.07-35.547.279-.742-.397-.755-1.585-.755-69.304 0-37.895-.1-69.158-.221-69.474-.36-.939-1.702-.315-4.857 2.256-3.92 3.193-7.739 5.621-11.524 7.326-6.577 2.962-6.055 4.305-6.055-15.567v-16.205l1.27-1.178c.698-.649 1.973-1.543 2.832-1.987.859-.445 1.914-1.133 2.344-1.529.429-.396 1.335-1.118 2.013-1.604 3.178-2.282 4.489-3.471 7.851-7.118 3.985-4.325 7.111-8.759 9.054-12.843 1.81-3.802 1.034-3.644 18.178-3.718 13.371-.057 14.638-.006 15.414.624m76.795 20.841c-2.867.698-4.257 2.549-5.689 7.58-1.687 5.923-1.552 35.019.191 41.185 1.527 5.403 6.373 8.364 10.27 6.276.802-.43 1.668-.782 1.924-.782 1.203 0 2.908-3.615 3.757-7.961.771-3.95.848-5.599.857-18.21.01-13.663-.033-14.307-1.424-21.786-.902-4.852-5.032-7.484-9.886-6.302m5.747 1.427c3.017 2.31 3.513 3.289 3.876 7.648.181 2.185.594 5.393.916 7.129.688 3.71.825 19.856.187 22.042-.22.751-.65 3.714-.956 6.584-.348 3.264-.767 5.46-1.117 5.86-.308.352-.827 1.17-1.155 1.818-1.334 2.638-8.804 2.878-10.159.326-.211-.398-.693-1.075-1.07-1.504-.378-.43-.809-1.573-.958-2.539-.149-.967-.525-2.658-.836-3.758-1.709-6.058-.154-38.783 1.953-41.111.349-.386.634-.889.634-1.119 0-2.132 6.378-3.143 8.685-1.376m-5.861 83.662c-2.637.671-4.257 2.241-5.614 5.44l-1.268 2.988-.152 19.336c-.18 22.859.102 28.154 1.66 31.23 3.652 7.206 13.454 6.387 16.135-1.347 2.958-8.532 2.731-46.837-.315-53.156-1.767-3.667-6.2-5.573-10.446-4.491m5.598 1.126c2.385.994 3.631 2.16 4.282 4.007.323.916.741 1.856.928 2.09 1.374 1.714 1.21 47.092-.177 48.672-.286.325-.69 1.35-.898 2.276-.208.927-.438 1.727-.511 1.777-.073.051-.941.741-1.93 1.533-4.077 3.264-9.962 1.618-12.311-3.443l-1.087-2.344-.215-16.016c-.282-21.085-.031-30.914.822-32.226.349-.537.745-1.612.881-2.388.595-3.405 6.26-5.589 10.216-3.938" fill="#595959"/><path d="m39.063 3.169c-2.817.203-5.221.607-6.446 1.083-1.074.417-2.652.977-3.507 1.243-.854.266-2.361 1.051-3.348 1.745-.988.694-2.31 1.53-2.939 1.857-1.496.778-5.84 5.202-7.231 7.365-.602.936-1.456 2.169-1.898 2.74s-.803 1.169-.803 1.329c0 .159-.426 1.186-.947 2.282-.52 1.095-1.355 3.222-1.855 4.726l-.909 2.734v164.454 164.453l.919 2.929c1.075 3.428 2.969 7.541 3.784 8.216.313.261.57.687.57.948 0 3.867 12.847 13.178 19.686 14.268 1.481.236 3.063.642 3.515.901 1.488.854 325.692.668 327.971-.188.967-.363 2.583-.768 3.593-.9 1.574-.205 6.366-2.212 6.954-2.911.107-.128.723-.464 1.367-.748 1.37-.603 1.338-.577 5.713-4.805 1.853-1.792 3.661-3.785 4.017-4.429.357-.645 1.192-2.051 1.856-3.125 1.21-1.957 2.251-4.549 3.293-8.203.479-1.679.543-25.144.456-167.578l-.101-165.625-1.234-2.735c-1.944-4.304-3.196-6.747-3.533-6.895-.171-.075-.651-.805-1.068-1.623-.826-1.623-5.146-5.886-7.696-7.594-3.553-2.38-5.634-3.611-6.109-3.613-.275-.001-1.506-.419-2.735-.93-1.452-.604-3.737-1.083-6.531-1.369-5.136-.525-317.536-.527-324.804-.002m324.804.723c12.231 1.234 23.033 10.391 27.4 23.227l.921 2.705v164.898 164.897l-1.136 3.296c-3.103 9.002-11.207 18.244-17.614 20.088-.538.155-1.377.534-1.866.842-.489.309-3.302.993-6.25 1.521l-5.361.959-158.643.001-158.642.002-4.834-.816c-2.659-.448-5.362-1.052-6.006-1.342-.645-.29-1.787-.808-2.539-1.152-9.626-4.396-15.824-11.884-18.564-22.426l-.967-3.721v-162.144-162.145l.997-3.836c.548-2.11 1.233-4.211 1.521-4.67.289-.458.651-1.252.804-1.764.984-3.286 7.628-11.069 11.064-12.961.788-.434 2.137-1.277 2.996-1.873 1.915-1.327 7.223-3.125 10.479-3.549 3.392-.442 321.87-.478 326.24-.037m-121.094 89.311c-7.246.73-12.641 1.482-13.957 1.946-.864.305-1.944.558-2.4.562-1.349.012-8.447 3.213-11.057 4.986-6.639 4.509-12.031 12.647-13.383 20.201-.269 1.504-.849 4.229-1.289 6.055-1.143 4.75-1.279 29.729-.176 32.209.379.85.957 2.73 1.287 4.178 1.917 8.429 8.84 16.553 17.64 20.703 1.878.885 3.486 1.672 3.574 1.749.375.328-1.467 1.881-3.09 2.607-5.262 2.352-12.673 8.462-14.36 11.839-.417.836-1.299 2.575-1.959 3.864-3.757 7.335-4.775 14.041-4.775 31.461 0 13.668.655 21.514 2.176 26.062.522 1.559.949 3.095.949 3.413 0 4.734 7.864 15.165 14.111 18.72 2.719 1.547 5.908 2.961 6.679 2.961.439 0 1.346.335 2.016.745.669.41 2.624.948 4.343 1.196 1.718.247 4.619.728 6.445 1.068 4.618.86 17.71.871 22.266.019 1.826-.342 4.375-.739 5.664-.882 1.289-.144 3.412-.685 4.718-1.204 1.306-.518 2.629-.942 2.94-.942.92 0 6.157-2.64 9.04-4.557 2.346-1.56 4.992-4.295 7.952-8.22 2.564-3.399 5.753-12.545 6.169-17.692.148-1.826.539-5.14.869-7.364 1.936-13.045-.151-35.584-4.067-43.915-.475-1.011-.864-1.994-.864-2.185 0-.19-.273-.574-.608-.852-.335-.277-.841-1.046-1.125-1.708-1.297-3.021-10.907-10.898-14.337-11.751-.968-.241-3.406-2.374-3.042-2.661.092-.072 1.573-.787 3.292-1.588 6.052-2.821 14.258-10.048 14.258-12.557 0-.3.335-.859.746-1.244.873-.818 2.86-6.232 4.342-11.831.619-2.338.475-28.378-.171-30.875-.303-1.173-.767-3.276-1.032-4.672-.265-1.397-.655-2.878-.867-3.292s-.614-1.732-.894-2.93c-.512-2.186-4.246-9.403-4.865-9.403-.182 0-.44-.344-.574-.763-.949-2.99-10.601-9.206-16.425-10.577-1.067-.252-2.643-.701-3.502-1-3.081-1.07-18.221-2.326-22.657-1.879m13.447 1.361c4.593.303 6.955.635 8.315 1.172 1.045.411 2.465.749 3.155.75.691.001 1.787.325 2.437.722.649.396 1.82.931 2.602 1.189 1.871.617 5.574 2.635 6.182 3.367.265.319.669.58.898.58.849 0 5.996 5.777 7.031 7.892.586 1.197 1.515 2.84 2.065 3.65s1.151 2.399 1.335 3.53.602 2.573.928 3.204.783 2.669 1.013 4.527c.231 1.858.618 3.86.859 4.448 1.666 4.058.2 31.531-1.853 34.736-.301.47-.733 1.683-.96 2.695-.227 1.013-.846 2.356-1.375 2.985-.529.628-.961 1.313-.961 1.52 0 .488-3.829 5.118-4.608 5.574-.327.191-1.218 1.026-1.981 1.855-.763.83-1.553 1.509-1.757 1.509-.203 0-.914.408-1.578.907-1.25.939-5.621 3.118-7.166 3.574-2.021.595-.454 3.254 2.389 4.055 1.315.37 6.889 3.655 8.383 4.94 2.134 1.836 5.227 5.166 5.804 6.25.343.645 1.023 1.651 1.512 2.236.488.586 1.105 1.728 1.371 2.54.266.811.703 1.826.972 2.256.268.429.615 1.396.769 2.148s.546 1.886.871 2.521c2.128 4.162 2.188 40.355.079 47.87-.391 1.396-.832 3.139-.978 3.873-.147.734-.597 1.877-1.001 2.539-.404.663-.735 1.566-.736 2.008-.001.441-.441 1.398-.978 2.127-.537.728-.977 1.525-.977 1.773 0 .247-.351.767-.781 1.156s-.781.878-.781 1.088c0 .307-1.67 2.44-3.045 3.89-.994 1.047-4.74 3.964-5.549 4.32-.537.236-1.416.712-1.953 1.056-.909.584-3.071 1.444-9.375 3.732-1.652.6-3.835 1.003-6.25 1.156-2.041.129-4.597.499-5.679.824-2.24.672-12.987.56-17.173-.179-1.289-.228-4.013-.589-6.054-.802-2.124-.222-4.379-.71-5.274-1.142-.859-.415-2.265-.881-3.125-1.034-.859-.154-1.826-.505-2.148-.78-.323-.275-1.065-.614-1.65-.753-1.466-.348-5.385-2.91-7.915-5.174-2.545-2.278-7.553-9.575-7.607-11.085-.011-.322-.275-1.073-.586-1.67-.311-.596-.749-2.077-.973-3.29-.225-1.213-.685-2.628-1.023-3.144-2.046-3.123-1.867-44.006.213-48.589.426-.938.777-2.065.782-2.504.014-1.295 4.239-9.197 5.855-10.95.818-.888 1.69-1.992 1.936-2.453.247-.46.651-.837.898-.837s.817-.346 1.266-.768c1.227-1.152 7.221-4.72 8.98-5.345 3.152-1.12 3.994-3.151 1.679-4.053-3.971-1.547-7.56-3.684-10.034-5.974-.739-.684-1.642-1.419-2.007-1.634-.918-.539-4-4.395-4.841-6.054-.381-.752-.913-1.631-1.182-1.953-.269-.323-.71-1.289-.98-2.149-.27-.859-.646-1.758-.834-1.997-.189-.239-.531-1.47-.761-2.734-.229-1.265-.711-2.74-1.07-3.277-.884-1.319-1.002-28.881-.131-30.41.288-.505.776-2.614 1.086-4.688.871-5.828 3.612-12.374 6.793-16.218 1.256-1.519 5.107-5.165 6.136-5.81.598-.375 1.889-1.185 2.869-1.801s2.474-1.342 3.32-1.612c.846-.271 2.087-.823 2.757-1.227.669-.403 1.745-.734 2.39-.734s2.294-.358 3.665-.797c4.258-1.361 15.272-1.835 26.095-1.123m-119.378 1.923c-.525.211-1.384 1.446-2.228 3.198-2.63 5.466-9.571 14.196-14.239 17.911-3.98 3.168-5.006 3.943-6.07 4.581-5.705 3.422-5.234 1.619-5.282 20.243-.048 19.073-.602 17.912 6.85 14.36 4.065-1.937 6.51-3.53 10.69-6.965 3.169-2.605 4.495-3.222 4.864-2.262.125.326.226 31.536.226 69.357-.001 49.768.118 68.909.431 69.287.35.421 3.813.522 17.955.522h17.521l.597-.912c1.05-1.602.694-188.388-.361-189.159-.876-.641-29.395-.789-30.954-.161m30.503 1.015c.531 1.384.296 188.155-.237 188.495-.279.178-8.153.282-17.499.23l-16.992-.094-.195-69.764c-.216-77.202-.011-71.828-2.686-70.195-.779.475-1.591 1.074-1.806 1.33-.695.831-5.19 4.417-6.52 5.202-3.601 2.126-6.108 3.469-6.973 3.733-.528.162-1.224.524-1.546.804-.323.281-1.114.568-1.758.638l-1.172.127-.113-14.844c-.135-17.838-.26-16.862 2.394-18.689 1.14-.786 2.19-1.428 2.334-1.428.268 0 2.528-1.675 5.696-4.222 3.792-3.048 8.89-8.66 11.496-12.655.8-1.226 1.613-2.327 1.807-2.447s.562-.853.818-1.63c.54-1.635 2.509-4.677 3.212-4.962 1.462-.591 29.504-.242 29.74.371m76.676 18.891c-1.839.356-4.433 2.78-4.784 4.47-.138.664-.499 1.598-.801 2.076-1.224 1.933-1.944 32.477-.947 40.147 1.119 8.6 7.029 12.847 13.478 9.684 1.186-.581 2.257-1.372 2.379-1.757s.358-.7.524-.7c.409 0 1.142-1.641 2.095-4.688.982-3.142 1.501-31.227.691-37.399-1.331-10.143-4.762-13.357-12.635-11.833m6.045.806c4.894 1.36 6.286 7.476 6.309 27.723.022 20.013-1.148 25.263-6.075 27.238-3.348 1.342-3.661 1.372-5.34.516-.863-.441-1.825-.801-2.138-.801-.951 0-2.81-2.772-3.8-5.664-.936-2.733-.936-2.745-.936-21.094v-18.359l1.096-3.32c1.914-5.797 5.361-7.773 10.884-6.239m-6.776 84.356c-3.915 1.181-5.665 4.604-6.456 12.626-.914 9.267-1.096 27.726-.344 34.878.341 3.242.619 6.93.619 8.197 0 2.79 1.286 5.606 3.582 7.847l1.535 1.499h4.796c6.845 0 9.269-2.341 10.052-9.707.187-1.751.561-3.975.832-4.942.709-2.531.702-35.087-.008-37.305-.276-.859-.664-2.929-.863-4.6-.839-7.033-6.663-10.631-13.745-8.493m9.118 1.778c4.264 2.984 5.164 8.23 5.192 30.261.034 27.073-1.685 32.418-10.442 32.472-8.909.055-10.054-3.626-10.042-32.277.01-23.347.78-27.987 5.082-30.591 2.978-1.804 7.526-1.743 10.21.135" fill="#848484"/><path d="m120.215 3.809c44.311.054 116.821.054 161.133 0 44.311-.055 8.056-.1-80.567-.1s-124.878.045-80.566.1m-92.937 3.426c-.788.516-1.546 1.123-1.686 1.348-.191.31 2.603-1.369 3.672-2.206.72-.563-.855.117-1.986.858m-7.069 5.363c-2.768 2.707-2.782 2.729-.322.514 1.416-1.274 2.831-2.549 3.146-2.832s.46-.514.322-.514c-.137 0-1.552 1.274-3.146 2.832m362.779 1.074c3.177 3.499 3.674 3.97 2.268 2.148-.663-.859-1.963-2.265-2.889-3.125-1.204-1.117-1.027-.839.621.977m-372.609 16.239c-.143.572-.185 1.116-.093 1.208s.285-.301.428-.873c.144-.573.186-1.117.094-1.209s-.285.301-.429.874m-.507 3.683c0 .967.076 1.362.169.879.093-.484.093-1.275 0-1.758-.093-.484-.169-.088-.169.879m230.655 59.657c.699.087 1.841.087 2.539 0 .699-.086.127-.157-1.269-.157-1.397 0-1.968.071-1.27.157m10.945.001c.702.087 1.757.085 2.344-.004s.012-.16-1.277-.158-1.769.075-1.067.162m-23.738 1.865c-.752.29-1.103.527-.781.527s1.201-.237 1.953-.527c.752-.289 1.104-.526.782-.526-.323 0-1.202.237-1.954.526m37.838.015c.723.314 1.514.564 1.758.556.244-.009-.148-.272-.871-.586s-1.514-.564-1.758-.555c-.244.008.148.272.871.585m-126.206.858c.919.082 2.325.081 3.125-.003s.048-.151-1.671-.15c-1.718.001-2.373.07-1.454.153m19.228.108c5.049.125 9.229.263 9.29.307.06.044.269.475.463.958.257.639.36.698.378.218.063-1.666-1.204-1.883-10.511-1.794l-8.8.083zm63.086.947c-2.567 1.236-2.066 1.274.633.048 1.156-.525 1.925-.962 1.71-.972-.214-.009-1.269.406-2.343.924m-86.75 1.215c-.572.976-.975 1.841-.894 1.922.08.08.629-.719 1.219-1.776 1.35-2.417 1.078-2.54-.325-.146m138.117-.799c.537.307 1.152.558 1.367.558s-.049-.251-.586-.558-1.152-.558-1.367-.558.049.251.586.558m4.687 2.256c0 .075.572.554 1.27 1.065.785.576 1.058.67.716.248-.521-.641-1.986-1.609-1.986-1.313m-146.201 4.667c-1.241 1.918-2.102 3.392-1.913 3.275.482-.298 4.509-6.478 4.322-6.634-.084-.07-1.168 1.441-2.409 3.359m37.316-1.454c.004.859.084 1.165.177.679.094-.486.09-1.189-.008-1.563-.097-.373-.174.024-.169.884m113.573.39c.729.752 1.413 1.368 1.52 1.368.108 0-.401-.616-1.129-1.368-.729-.752-1.414-1.367-1.521-1.367s.401.615 1.13 1.367m-113.573 3.516c.004.859.084 1.165.177.679.094-.486.09-1.189-.008-1.563-.097-.373-.174.025-.169.884m39.48-.098c-.435.484-.931 1.143-1.102 1.465-.329.622-.239.537 1.343-1.269.518-.591.853-1.075.746-1.075-.108 0-.551.396-.987.879m77.609.554c.226.111.761.889 1.19 1.728.428.84.876 1.527.995 1.527.428 0-1.611-3.265-2.098-3.36-.274-.053-.313-.006-.087.105m-158.033 2.181-1.147 1.269 1.269-1.147c1.184-1.07 1.449-1.392 1.148-1.392-.068 0-.639.571-1.27 1.27m-3.676 3.993c-1.378 1.39-2.428 2.581-2.332 2.647.095.065 1.302-1.073 2.682-2.529 3.191-3.367 2.951-3.448-.35-.118m-4.74 4.435c-.944.822-2.287 1.826-2.985 2.232s-1.27.873-1.27 1.038-.846.729-1.88 1.253-2.128 1.251-2.431 1.616c-.356.43-.053.337.859-.262.776-.51 1.914-1.234 2.529-1.61 2.221-1.359 7.663-5.754 7.131-5.759-.131-.002-1.01.67-1.953 1.492m121.767 1.241c-.777.86-1.407 1.783-1.4 2.051.006.267.205.135.442-.295.236-.429.969-1.352 1.627-2.05.658-.699 1.095-1.27.971-1.27-.125 0-.863.704-1.64 1.564m10.93-.415c.451.55 1.11 1.434 1.465 1.965.355.532.646.774.646.539s-.659-1.12-1.465-1.966c-.806-.845-1.096-1.088-.646-.538m38.857-.563c0 .215.252.83.559 1.367s.558.801.558.586-.251-.83-.558-1.367-.559-.801-.559-.586m-52.539 7.45c-.143.572-.185 1.116-.093 1.208s.285-.301.428-.873c.144-.573.186-1.117.094-1.209s-.285.301-.429.874m-37.89.39c-.144.573-.186 1.117-.094 1.209s.285-.301.429-.874c.143-.572.186-1.116.093-1.208-.092-.092-.284.301-.428.873m37.394 3.684c0 1.181.073 1.665.162 1.074.09-.591.09-1.558 0-2.149-.089-.591-.162-.107-.162 1.075m17.942 1.953c0 .752.08 1.059.179.683.098-.376.098-.991 0-1.367-.099-.376-.179-.068-.179.684m-56.204 3.125c0 1.826.067 2.573.149 1.66.083-.913.083-2.407 0-3.321-.082-.913-.149-.166-.149 1.661m94.568 8.984c0 6.553.053 9.233.119 5.957.065-3.276.065-8.638 0-11.914-.066-3.276-.119-.596-.119 5.957m-37.902 1.563c0 3.974.058 5.6.129 3.613.071-1.988.071-5.239 0-7.227-.071-1.987-.129-.361-.129 3.614m-126.139 1.835c-.429.091-1.66.967-2.734 1.946-1.775 1.618-1.802 1.667-.298.533.91-.685 1.755-1.41 1.878-1.609s.555-.362.959-.362.844-.176.977-.39c.132-.215.187-.367.12-.338-.066.029-.472.128-.902.22m-6.445 4.864c-.752.659-1.014 1.02-.581.801.713-.36 2.482-2.054 2.107-2.016-.087.009-.774.555-1.526 1.215m75.902 2.48c.003 1.289.076 1.77.162 1.067.087-.702.086-1.756-.004-2.343-.089-.587-.16-.013-.158 1.276m-80.785.771c-.859.53-1.44.968-1.292.975.339.015 3.05-1.571 3.05-1.784 0-.255-.121-.199-1.758.809m-4.882 2.354c-.967.518-1.583.941-1.368.941s1.182-.423 2.149-.941 1.582-.941 1.367-.941-1.182.423-2.148.941m141.887.586c0 .752.08 1.06.179.684.098-.376.098-.991 0-1.367-.099-.376-.179-.069-.179.683m-146.733.153c.12.312.494.674.83.803.952.365.904.088-.117-.676-.701-.524-.877-.555-.713-.127m128.791 2.191c0 1.182.073 1.665.162 1.074.09-.591.09-1.558 0-2.148-.089-.591-.162-.108-.162 1.074m-36.026 4.687c-.001.563 1.101 2.8 1.129 2.291.008-.136-.243-.839-.557-1.562s-.571-1.051-.572-.729m37.862 3.286c0 .537 2.387 3.355 2.842 3.355.237 0 .138-.22-.221-.488-.359-.269-1.095-1.094-1.637-1.834-.541-.74-.984-1.205-.984-1.033m-28.711 10.333c.859.922 1.914 1.863 2.344 2.09.429.227.693.333.586.236-3.806-3.454-4.474-3.984-2.93-2.326m71.259.293c-.521.561-1.992 1.704-3.27 2.539-1.279.835-2.176 1.518-1.994 1.518.579 0 4.276-2.617 5.465-3.87.631-.664 1.057-1.208.947-1.208-.111 0-.627.459-1.148 1.021m-8.173 5.229c-.752.412-1.227.756-1.055.765.414.022 2.617-1.124 2.617-1.361 0-.256-.023-.247-1.562.596m-52.31 2.493-.943 1.218 1.117-1.062c.615-.585 1.039-1.133.943-1.218-.096-.086-.599.392-1.117 1.062m49.185-.97c0 .363 2.299 2.578 2.444 2.355.06-.092-.465-.723-1.168-1.403-.702-.68-1.276-1.108-1.276-.952m-58.9 6.973c-.934.913-.95.958-.103.299 1.667-1.299 1.746-1.373 1.47-1.373-.147 0-.762.483-1.367 1.074m69.568-.022c.328.531 3.394 3.005 3.394 2.739 0-.1-.827-.859-1.837-1.687-1.011-.828-1.711-1.301-1.557-1.052m4.761 4.807c.84.86 1.614 1.563 1.721 1.563.108 0-.491-.703-1.33-1.563-.839-.859-1.614-1.562-1.721-1.562s.491.703 1.33 1.562m-81.979 4.004-.703 1.27.805-.977c.714-.866 1.031-1.562.712-1.562-.061 0-.428.571-.814 1.269m-1.538 2.837c-.357.749-.569 1.362-.471 1.362.268 0 1.453-2.391 1.275-2.57-.085-.085-.447.459-.804 1.208m37.949-.491c-1.087.919-2.092 2.566-1.765 2.893.106.105.317-.203.47-.684.153-.482.823-1.374 1.49-1.983 1.438-1.314 1.292-1.483-.195-.226m15.386 6.932c0 .751.08 1.059.178.683.099-.376.099-.991 0-1.367-.098-.376-.178-.068-.178.684m36.655-.977c0 .215.252.83.559 1.367s.558.801.558.586-.251-.83-.558-1.367-.559-.801-.559-.586m-55.384 4.297c.003 1.074.079 1.467.168.873.09-.593.088-1.472-.005-1.953-.093-.48-.166.006-.163 1.08m56.619.195c0 .752.081 1.06.179.684s.098-.991 0-1.367-.179-.069-.179.683m-37.492.586c.004.859.084 1.165.178.679.093-.486.09-1.189-.008-1.562-.098-.374-.174.024-.17.883m.404 4.297c.003 1.074.079 1.467.169.873.089-.593.087-1.472-.006-1.953-.092-.48-.166.006-.163 1.08m-58.216 1.562c.004.86.084 1.165.177.679.094-.485.09-1.189-.007-1.562-.098-.373-.175.024-.17.883m38.358 13.086c0 7.627.053 10.747.117 6.934.064-3.814.064-10.054 0-13.867-.064-3.814-.117-.694-.117 6.933m58.118-10.937c0 .752.081 1.059.179.683s.098-.991 0-1.367-.179-.068-.179.684m-37.807 11.523c0 6.875.053 9.633.118 6.128s.065-9.13 0-12.5-.118-.503-.118 6.372m-58.984 1.563c0 6.875.053 9.632.118 6.128.065-3.505.065-9.13 0-12.5-.065-3.371-.118-.503-.118 6.372m97.258-1.563c0 4.727.056 6.607.125 4.178s.068-6.296-.001-8.594-.125-.31-.124 4.416m-.467 13.086c0 .752.081 1.06.179.684s.098-.991 0-1.367-.179-.069-.179.683m-38.281.782c0 .751.08 1.059.179.683.098-.376.098-.991 0-1.367-.099-.376-.179-.068-.179.684m-58.203 1.953c0 .752.08 1.059.178.683.099-.376.099-.991 0-1.367-.098-.376-.178-.068-.178.684m57.812 1.562c0 .752.081 1.06.179.684s.098-.991 0-1.367-.179-.069-.179.683m-57.422 1.563c0 .752.081 1.059.179.683s.098-.991 0-1.367-.179-.068-.179.684m38.297.39c0 .967.077 1.363.17.879.093-.483.093-1.274 0-1.758-.093-.483-.17-.088-.17.879m18.743 2.149c.004.859.084 1.165.177.679.094-.486.09-1.189-.008-1.563-.097-.373-.174.024-.169.884m37.898.976c0 .967.076 1.363.169.879.093-.483.093-1.274 0-1.758-.093-.483-.169-.088-.169.879m-94.547.391c0 .752.08 1.059.179.683.098-.376.098-.991 0-1.367-.099-.376-.179-.068-.179.684m38.224 1.289c-.034.719.999 3.008 1.358 3.008.109 0-.008-.385-.26-.856s-.594-1.306-.761-1.856c-.202-.664-.314-.764-.337-.296m15.18 5.254-1.346 1.465 1.465-1.346c1.363-1.253 1.644-1.584 1.346-1.584-.065 0-.725.659-1.465 1.465m-11.612.696c.584.615 1.133 1.039 1.218.943.086-.096-.392-.599-1.062-1.117l-1.218-.943zm-39.51 1.745c-.001.563 1.101 2.799 1.129 2.291.008-.136-.243-.839-.557-1.562s-.571-1.051-.572-.729m89.488.603c-.655 1.436-.53 1.743.178.437.33-.61.528-1.182.438-1.271-.089-.09-.367.286-.616.834m-86.051 6.624c.211.43.669 1.133 1.019 1.562l.636.782-.383-.782c-.211-.429-.67-1.132-1.02-1.562l-.636-.781zm79.361 4.465c-1.388 1.626-2.219 2.712-1.845 2.412.951-.763 4.699-5.124 4.518-5.258-.081-.061-1.284 1.219-2.673 2.846m-115.896.222c.001 1.719.07 2.374.153 1.455.082-.919.081-2.325-.003-3.125s-.152-.048-.15 1.67m38.147-2.026c0 .067.572.639 1.27 1.27l1.269 1.147-1.147-1.27c-1.069-1.183-1.392-1.449-1.392-1.147m2.539 2.863c1.989 1.765 2.722 2.28 1.955 1.373-.426-.503-1.128-1.096-1.56-1.317s-.61-.246-.395-.056m4.883 3.802c0 .092.626.536 1.391.987.765.452 1.281.644 1.147.427-.262-.423-2.538-1.691-2.538-1.414m-73.144 4.052c4.78.062 12.602.062 17.382 0 4.781-.062.87-.113-8.691-.113s-13.472.051-8.691.113m98.428 3.505c.694.087 1.924.088 2.735.003.81-.084.243-.155-1.261-.156-1.504-.002-2.167.067-1.474.153m11.728.001c.698.087 1.841.087 2.539 0s.127-.158-1.27-.158c-1.396 0-1.967.071-1.269.158m-241.601 65.538c.004.859.084 1.165.178.679.093-.486.09-1.189-.008-1.563-.098-.373-.174.024-.17.884m1.882 8.203c0 .215.252.83.559 1.367s.558.801.558.586-.251-.83-.558-1.367-.559-.801-.559-.586m375.679 5.957c-.689.801-1.205 1.66-.998 1.66.08 0 .535-.527 1.011-1.172.942-1.273.933-1.59-.013-.488m-371.953 1.198c.406.713 1.079 1.591 1.495 1.953.439.382.285.004-.369-.905-1.566-2.174-1.998-2.577-1.126-1.048m368.468 3.489c-1.244 1.376-2.049 2.442-1.844 2.442.088 0 .822-.791 1.63-1.758 1.613-1.93 1.757-2.39.214-.684m-364.604 1.27c1.058 1.074 2.012 1.953 2.119 1.953s-.67-.879-1.728-1.953c-1.059-1.074-2.012-1.953-2.12-1.953-.107 0 .671.879 1.729 1.953m101.855 10.058c43.99.055 115.972.055 159.961 0 43.99-.054 7.998-.099-79.98-.099-87.979 0-123.97.045-79.981.099" fill="#747474"/></g></svg>