<svg height="390.566038" viewBox="0 0 400 390.56603774" width="400" xmlns="http://www.w3.org/2000/svg"><g fill-rule="evenodd"><path d="m0 195.313v195.312h200 200v-195.312-195.313h-200-200zm373.047-191.282c.967.391 2.44.88 3.274 1.087 1.944.484 4.832 2.175 5.342 3.127.218.407.647.739.954.739 1.874 0 8.453 8.165 11.079 13.751l1.231 2.618-.001 169.222c-.001 167.394-.01 169.237-.767 170.521-.422.714-.968 2.048-1.214 2.965-.246.916-.956 2.359-1.579 3.207-.622.848-1.132 1.789-1.132 2.091 0 1.071-7.877 8.164-11.002 9.906-.638.356-1.456.903-1.818 1.217-.361.313-1.475.675-2.476.805-1.001.129-2.583.636-3.516 1.126l-1.695.892h-166.407-166.406l-1.905-.879c-1.048-.484-2.244-.879-2.658-.879-1.286 0-6.314-2.33-7.546-3.497-.645-.61-2.082-1.662-3.193-2.337-1.112-.676-2.376-1.792-2.808-2.482-.433-.69-1.478-2.249-2.323-3.464-.844-1.216-1.724-2.752-1.955-3.414s-.948-1.865-1.594-2.673-1.354-2.26-1.575-3.227c-.5-2.197-.563-336.605-.063-338.758.186-.8.799-2.206 1.364-3.125 1.423-2.317 1.612-2.657 2.347-4.211 1.623-3.433 4.672-7.019 7.238-8.513.979-.57 2.317-1.6 2.973-2.289.656-.69 1.711-1.378 2.344-1.531.633-.152 1.866-.69 2.74-1.194 1.193-.688 2.554-1.002 5.468-1.26 8.705-.771 335.335-.327 337.279.459m-135.862 95.807c-4.943.611-12.356 2.458-14.709 3.665-.851.437-1.863.794-2.249.794-.385 0-1.095.457-1.577 1.017-.932 1.081-5.107 4.376-5.961 4.703-.28.108-.609.593-.731 1.079s-.743 1.539-1.38 2.341c-.637.801-1.546 2.281-2.021 3.287-.474 1.007-1.165 2.182-1.534 2.612s-.783 1.788-.92 3.019-.601 3.132-1.032 4.225-.959 3.778-1.174 5.966c-.215 2.187-.577 5.823-.804 8.079-.668 6.617-.631 8.879.156 9.668 1.001 1.003 6.154 1.35 20.94 1.412l12.666.053 1.051-1.451c1.029-1.42 1.058-1.622 1.34-9.18.193-5.183.461-8.062.812-8.741.288-.557.647-2.374.797-4.038.299-3.29 2.467-6.814 4.721-7.671 2.592-.985 7.414-.449 8.992 1.001.818.751 1.615 1.366 1.772 1.367.47.003 1.722 2.751 2.6 5.708 1.833 6.168.947 32.936-1.18 35.655-.439.561-.731 1.571-.735 2.539-.003.884-.264 2.047-.579 2.584-.316.537-.692 1.309-.835 1.714-.59 1.666-6.102 12.211-6.993 13.379-.529.694-.962 1.422-.962 1.618 0 .195-.34.664-.756 1.04-.415.376-1.127 1.475-1.582 2.441-.454.967-1.293 2.224-1.864 2.795-.571.57-1.54 1.978-2.155 3.129-.614 1.151-1.954 3.173-2.976 4.492-1.022 1.32-2.197 3.052-2.611 3.85-.413.797-1.23 2.027-1.816 2.734-1.551 1.871-2.917 4-3.242 5.053-.156.506-1.097 1.818-2.09 2.916-.993 1.099-2.325 2.857-2.959 3.907s-1.835 2.788-2.668 3.862c-.832 1.074-2.071 2.865-2.753 3.98-3.08 5.042-6.765 10.288-7.364 10.487-.361.119-.772.742-.913 1.384s-.68 1.446-1.199 1.785c-.521.342-.942 1-.942 1.473s-.63 1.456-1.411 2.201c-.776.74-1.734 2.087-2.129 2.993s-1.43 2.548-2.3 3.648c-.87 1.101-1.582 2.161-1.582 2.356s-.622 1.043-1.381 1.883l-1.381 1.529.006 13.739c.006 12.6.163 17.483.638 19.822l.177.873 46.966.072c25.832.039 47.615.077 48.407.084 3.651.035 4.166-2.274 3.725-16.676-.219-7.142-.635-9.384-1.861-10.04-.876-.469-51.743-.625-55.727-.171-4.687.534-6.598-3.796-2.692-6.1.738-.436 1.518-1.297 1.733-1.914.215-.616.756-1.317 1.203-1.556.446-.239.812-.765.812-1.17 0-.404.713-1.478 1.586-2.386.872-.908 1.883-2.216 2.246-2.907.912-1.736 3.515-5.553 5.026-7.368.691-.831 1.366-2.013 1.501-2.627.135-.613.759-1.548 1.388-2.077s1.143-1.065 1.143-1.192c0-.609 5.124-7.512 7.325-9.868.698-.747 1.269-1.526 1.269-1.73 0-.705 1.292-2.865 2.304-3.852.559-.545 1.504-1.778 2.099-2.739 1.675-2.705 2.682-4.149 4.484-6.43.913-1.156 1.66-2.297 1.66-2.536 0-.238.768-1.261 1.706-2.272.939-1.011 2.015-2.454 2.392-3.206s1.274-2.195 1.993-3.207 1.573-2.477 1.898-3.254c.382-.914.993-1.566 1.728-1.843.922-.348 1.175-.716 1.34-1.95.113-.837.659-2.178 1.214-2.979.556-.802 1.01-1.678 1.01-1.947 0-.697 3.608-7.984 4.185-8.453.264-.215.743-2.029 1.063-4.032.321-2.003.919-4.2 1.33-4.883 2.201-3.659 2.095-36.69-.134-41.471-.562-1.205-1.018-3.132-1.188-5.016-.184-2.047-.455-3.127-.818-3.266-.492-.189-2.177-2.856-4.242-6.712-1.349-2.518-2.609-3.899-4.106-4.498-1.396-.558-3.902-2.706-3.902-3.343 0-.171-.835-.535-1.856-.811-1.02-.275-2.156-.759-2.525-1.075-.368-.316-1.497-.729-2.509-.918s-2.117-.581-2.455-.871c-.549-.47-3.534-.881-11.944-1.647-5.522-.503-17.708-.47-21.995.061m-96.137 2.484c-.653.164-1.317.957-2.153 2.571-3.461 6.681-13.477 18.648-16.376 19.563-.462.146-1.043.554-1.291.907-.248.352-1.979 1.678-3.846 2.947-1.965 1.335-3.567 2.727-3.804 3.306-.541 1.324-1.046 18.979-.591 20.668.225.837.189 2.275-.101 3.993-.714 4.236.18 6.569 2.053 5.353.485-.315 1.828-.885 2.984-1.267 1.157-.382 3.076-1.376 4.264-2.209 1.189-.832 2.336-1.513 2.549-1.513.214 0 1.393-.923 2.621-2.051s3.023-2.702 3.988-3.498l1.755-1.447.784.861c.431.474.972 1.228 1.203 1.676.292.569.427 21.077.449 68.134.017 37.027.138 67.773.27 68.327.502 2.11-.165 2.035 17.217 1.951l16.171-.077.615-.94c1.053-1.606 1.058-2.044 1.176-94.593l.115-90.368-1.346-1.347-1.347-1.346-13.207.081c-7.264.044-13.633.187-14.152.318" fill="#fbfbf9"/><path d="m40.745 5.26c-.686.298-3.055.811-5.265 1.139-2.211.328-4.199.825-4.418 1.103s-1.189 1.033-2.156 1.678c-.967.644-1.933 1.386-2.148 1.647-.215.262-1.038.742-1.829 1.068s-1.555.782-1.698 1.014c-.143.231-.682.581-1.199.777-.574.219-.938.671-.938 1.167 0 1.654-3.31 6.241-4.504 6.241-.293 0-.618.698-.773 1.66-.147.913-.69 2.394-1.206 3.292-.543.943-.939 2.262-.94 3.125 0 .821-.298 2.811-.663 4.423-1.117 4.933-1.264 321.946-.151 324.798.421 1.078.887 2.575 1.036 3.327s.6 1.786 1.002 2.299c.401.512.732 1.303.735 1.757.011 1.636.496 2.589 1.7 3.34.726.454 1.691 1.687 2.37 3.032 1.189 2.352 3.572 4.968 4.916 5.394.426.135.775.41.775.61 0 .201.196.365.436.365.241 0 1.038.527 1.772 1.171.734.645 1.586 1.172 1.893 1.172s.738.335.957.744c.276.517 1.025.829 2.455 1.023 1.131.154 2.672.589 3.424.967.752.379 2.158.818 3.125.977.967.158 2.233.531 2.813.828 1.289.66 320.183.825 320.841.167.205-.205 1.823-.625 3.594-.932 1.772-.308 3.683-.862 4.247-1.231.565-.37 2.059-.766 3.32-.881 2.479-.224 2.909-.762 1.416-1.767-.868-.584-.859-.596.683-.864 1.785-.31 3.871-1.181 4.82-2.013 1.698-1.487 4.076-3.268 4.366-3.268.177 0 .436-.519.576-1.153.139-.635.597-1.591 1.018-2.126.42-.534 1.034-1.553 1.363-2.264.883-1.905 1.513-2.951 2.304-3.825.402-.444.788-1.628.896-2.751.136-1.424.418-2.131 1.017-2.55l.828-.58v-162.395c0-157.124-.024-162.49-.728-165.324-.401-1.612-.817-3.721-.926-4.687-.132-1.17-.508-2.044-1.128-2.618-.511-.474-.929-1.121-.929-1.439 0-.673-1.32-2.888-2.778-4.663-.56-.683-1.255-1.901-1.543-2.707-.288-.805-.633-1.465-.765-1.465-.133 0-.833-.527-1.555-1.171-.722-.645-1.501-1.175-1.73-1.178-.23-.004-1.29-.79-2.356-1.747-1.478-1.328-2.357-1.799-3.711-1.989-.975-.137-2.476-.555-3.336-.929-5.47-2.384 11.734-2.154-167.773-2.247-137.81-.071-162.493-.002-163.552.459m-7.347 4.877c.664.269.564.359-.658.597-1.503.293-2.444.017-2.059-.605.269-.435 1.634-.431 2.717.008m356.25 17.207c-.132.215-.67.39-1.194.39-.525 0-.954-.175-.954-.39s.538-.391 1.195-.391c.697 0 1.094.163.953.391m-131.127 68.756c2 .211 3.975.564 4.387.784.412.221 2.417.511 4.454.645 3.208.211 3.82.366 4.568 1.162.629.67 1.293.92 2.454.924.876.003 2.032.259 2.569.569s1.328.737 1.758.948 1.309.745 1.953 1.186c.645.441 1.455.803 1.802.804.689.003 3.094 1.703 4.658 3.292.545.554 1.171 1.008 1.391 1.008.552 0 1.885 1.886 2.409 3.407.239.692 1.043 1.867 1.788 2.612 1.424 1.424 2.21 3.864 2.21 6.861 0 1.012.303 1.879.914 2.617 1.163 1.404 1.82 4.06 1.82 7.36 0 1.781.183 2.772.586 3.175.85.85.879 29.746.031 31.329-.305.571-.751 2.795-.991 4.944-.34 3.047-.648 4.211-1.398 5.294-.6.866-.962 1.934-.962 2.837 0 .797-.167 1.755-.37 2.128s-.669 1.645-1.034 2.827c-.365 1.181-1.078 2.645-1.583 3.252-.506.607-.919 1.475-.919 1.928 0 1.385-1.598 4.227-2.588 4.604-.628.238-.928.661-.928 1.309 0 .526-.439 1.478-.977 2.117-.537.638-.976 1.427-.976 1.753s-.852 1.619-1.894 2.873c-1.041 1.255-2.003 2.72-2.137 3.257s-.955 1.749-1.823 2.692c-1.581 1.718-2.036 2.408-3.503 5.316-.434.859-1.4 2.002-2.147 2.539s-1.515 1.416-1.709 1.954c-.365 1.018-1.991 3.67-2.876 4.693-.282.326-.853 1.117-1.268 1.758s-.993 1.405-1.285 1.697c-.291.292-.98 1.435-1.53 2.539-.551 1.104-1.723 2.755-2.606 3.668-.882.913-1.876 2.407-2.208 3.32-.427 1.174-.967 1.832-1.842 2.246-.898.426-1.304.935-1.481 1.859-.14.732-.65 1.538-1.202 1.9-.527.345-.958.95-.958 1.344 0 .395-.791 1.554-1.758 2.578-.966 1.023-1.757 2.087-1.757 2.363 0 .277-.308.814-.684 1.193-.376.38-1.021 1.21-1.434 1.845-.412.636-.893 1.336-1.068 1.556-.175.221-.76.954-1.301 1.629-.54.676-.982 1.61-.982 2.077 0 1.359-.7 2.302-2.321 3.129-1.655.844-1.925 1.275-1.661 2.655l.175.915 27.782-.041c25.052-.037 31.377.142 32.147.912.135.135.251 6.829.256 14.875.011 16.088.076 15.657-2.414 16.065-.784.128-1.787.408-2.229.622-.497.24-2.741.288-5.86.126-8.497-.442-80.666-.396-82.203.052-.848.247-2.035.271-3.125.061-1.171-.225-2.456-.176-3.847.147-1.586.368-2.244.376-2.735.033-.355-.248-1.208-.736-1.897-1.084-1.653-.836-2.045-1.36-2.046-2.735-.023-24.503.284-34.5 1.095-35.639.46-.646.836-1.34.836-1.543 0-.202.353-.79.785-1.307 3.468-4.148 4.785-5.956 6.092-8.36.35-.645.938-1.524 1.307-1.953.368-.43.964-1.573 1.324-2.539.36-.967 1.59-2.764 2.732-3.994 1.143-1.23 2.284-2.636 2.536-3.125s1.072-1.68 1.824-2.647c.751-.967 1.525-2.119 1.719-2.561.195-.442.787-1.321 1.316-1.953.528-.633 1.082-1.537 1.23-2.009.148-.473.825-1.439 1.506-2.149.68-.709 1.542-1.948 1.914-2.754s.861-1.465 1.086-1.465c.226 0 .41-.259.41-.577 0-.317.44-.865.977-1.216.537-.352.976-.98.976-1.395 0-.416.401-1.142.891-1.616.489-.473 1.101-1.343 1.359-1.934.257-.591.628-1.074.825-1.074.196 0 .464-.429.595-.952.131-.524 1.117-1.854 2.191-2.956 1.073-1.102 1.952-2.274 1.952-2.605s.439-1.123.976-1.762c.537-.638.977-1.404.977-1.702 0-.299.337-.723.749-.944.413-.22.866-.929 1.008-1.576.273-1.243 1.492-2.347 2.592-2.347.474 0 .737-.469.931-1.66.149-.913.592-2.012.985-2.442.393-.429.902-1.22 1.132-1.757s1.033-1.768 1.784-2.735c.752-.967 1.576-2.197 1.831-2.734.256-.537.759-1.328 1.118-1.758s.847-1.584 1.085-2.565c.469-1.935 2.275-5.443 2.803-5.443.179 0 .444-.571.588-1.269.286-1.391 2.368-6.001 3.132-6.934.263-.322.598-2.012.744-3.755s.525-4.029.842-5.078c.873-2.892.385-19.305-.673-22.609-.523-1.636-.673-2.848-.495-4.03.261-1.744-1.111-3.981-2.442-3.981-.275 0-.682-.341-.905-.757-1.102-2.061-5.179-1.349-7.348 1.282-2.296 2.785-3.738 13.66-3.018 22.76.284 3.586-.133 4.679-1.979 5.188-.787.218-1.756.689-2.152 1.048-.624.564-1.047.595-3.176.233-2.642-.451-20.837-.395-27.391.083-6.688.488-8.083-.545-8.057-5.964.037-7.451 1.903-22.78 3.032-24.909.439-.827.892-2.187 1.008-3.024.115-.836.568-1.902 1.006-2.369.439-.466.8-1.188.803-1.604s.262-1.196.576-1.733c.313-.537.891-1.591 1.284-2.343 1.256-2.405 2.499-4.297 2.822-4.297.172 0 .657-.584 1.078-1.297s1.386-1.591 2.145-1.951c.758-.36 1.474-.903 1.591-1.206.116-.303.794-.672 1.507-.821s1.733-.548 2.267-.887c2.45-1.558 5.26-2.823 6.267-2.823.608 0 1.394-.289 1.748-.644.879-.878 3.004-1.246 8.983-1.555 4.07-.21 5.263-.405 6.009-.984 1.087-.844 10.544-1.023 17.16-.326m-88.064 2.927c.818.342 1.842 1.24 2.433 2.133l1.02 1.542-.822 1.045-.822 1.046.002 89.498c.002 78.627.073 89.634.586 90.617.961 1.843.736 5.209-.5 7.475-1.222 2.241-3.502 2.841-6.021 1.584-1.035-.516-3.339-.608-15.297-.608h-14.079l-1.028.985c-2.141 2.052-5.221-6.524-3.362-9.362.542-.827.835-122.239.303-125.412-.036-.215.046-1.401.182-2.636.136-1.236.15-2.246.03-2.246-1.185 0-3.08 1.339-6.219 4.394-1.048 1.021-2.221 1.856-2.605 1.856-.385 0-1.009.341-1.386.759-.378.417-1.24.876-1.916 1.018-.676.143-1.638.636-2.138 1.095-1.099 1.01-6.685 1.473-7.693.637-.492-.409-.578-2.721-.578-15.589 0-10.989-.124-15.232-.456-15.564-1.587-1.587 1.027-5.868 4.459-7.302.783-.326 1.564-.825 1.737-1.107.173-.283 1.018-.934 1.877-1.448.859-.513 2.529-1.795 3.711-2.849 1.182-1.053 2.541-2.1 3.02-2.327.479-.226.979-.751 1.111-1.168.133-.416 1.377-1.916 2.766-3.332 1.427-1.455 2.62-3.045 2.742-3.654.118-.593.986-1.981 1.929-3.085 1.042-1.222 1.713-2.394 1.713-2.995 0-2.23 5.001-5.557 7.555-5.026 1.969.41 23.043.245 23.472-.184.564-.564 2.67-.46 4.274.21m63.332 62.301c.146.236-.394.391-1.367.391s-1.513-.155-1.367-.391c.132-.215.748-.39 1.367-.39s1.234.175 1.367.39m65.535 19.562c-.195.746-.262.761-.842.181-.544-.544-.553-.678-.063-.981.787-.487 1.156-.161.905.8m-12.996 23.625c0 .926-.531 1.284-.935.631-.307-.497.198-2.04.589-1.798.19.117.346.643.346 1.167m-70.085 5.979c-.194.315-2.18.144-2.18-.188 0-.082.537-.15 1.194-.15.658 0 1.101.152.986.338m-16.283 34.28c-.63.76-1.132.668-1.132-.206 0-.555.201-.692.79-.538.62.162.693.321.342.744m.821 52.492c0 .214-.439.39-.976.39s-.977-.176-.977-.39c0-.215.44-.391.977-.391s.976.176.976.391m164.261 84.771c.241.389-1.672.876-2.188.557-.652-.402.371-1.286 1.229-1.061.425.111.857.338.959.504m-320.332-.033c.344.557-.24.736-1.683.517-.92-.14-1.152-.299-.781-.534.704-.447 2.184-.436 2.464.017" fill="#fbcb04"/><path d="m35.768 3.572c-2.914.258-4.275.572-5.468 1.26-.874.504-2.107 1.042-2.74 1.194-.633.153-1.688.841-2.344 1.531-.656.689-1.994 1.719-2.973 2.289-2.566 1.494-5.615 5.08-7.238 8.513-.735 1.554-.924 1.894-2.347 4.211-.565.919-1.178 2.325-1.364 3.125-.5 2.153-.437 336.561.063 338.758.221.967.929 2.419 1.575 3.227s1.363 2.011 1.594 2.673 1.111 2.198 1.955 3.414c.845 1.215 1.89 2.774 2.323 3.464.432.69 1.696 1.806 2.808 2.482 1.111.675 2.548 1.727 3.193 2.337 1.232 1.167 6.26 3.497 7.546 3.497.414 0 1.61.395 2.658.879l1.905.879h166.406 166.407l1.695-.892c.933-.49 2.515-.997 3.516-1.126 1.001-.13 2.115-.492 2.476-.805.362-.314 1.18-.861 1.818-1.217 3.125-1.742 11.002-8.835 11.002-9.906 0-.302.51-1.243 1.132-2.091.623-.848 1.333-2.291 1.579-3.207.246-.917.792-2.251 1.214-2.965.757-1.284.766-3.127.767-170.521l.001-169.222-1.231-2.618c-2.626-5.586-9.205-13.751-11.079-13.751-.307 0-.736-.332-.954-.739-.51-.952-3.398-2.643-5.342-3.127-.834-.207-2.307-.696-3.274-1.087-1.944-.786-328.574-1.23-337.279-.459m335.949 1.311c1.646.537 3.367.976 3.826.976.801 0 1.824.629 6.762 4.159 4.688 3.35 9.425 10.229 10.886 15.804 1.193 4.558 1.252 12.419 1.248 165.194-.006 181.876.159 173.723-3.617 178.674-.615.806-1.484 2.225-1.932 3.153-.86 1.785-4.072 4.835-7.826 7.43-1.243.86-2.831 2.046-3.53 2.637-.698.591-1.572 1.074-1.942 1.074s-2.28.572-4.245 1.27l-3.574 1.269h-164.453-164.453l-2.344-.843c-1.289-.464-3.046-.972-3.906-1.129-.859-.156-2.029-.611-2.599-1.011s-1.206-.728-1.412-.728c-1.356 0-9.244-6.671-10.296-8.708-.421-.815-1.192-1.853-1.714-2.307-.522-.453-1.242-1.72-1.601-2.815-.358-1.094-.97-2.444-1.359-3-.389-.555-1.067-2.309-1.507-3.898l-.801-2.889.025-162.898c.026-174.973-.057-167.977 2.045-172.196.771-1.547 1.674-3.488 2.006-4.315s1.025-1.834 1.539-2.239c.514-.404 1.205-1.411 1.535-2.236.362-.904 1.273-1.994 2.292-2.741.93-.682 2.887-2.119 4.348-3.194 1.462-1.075 2.801-1.954 2.975-1.954s.816-.392 1.425-.872c.718-.564 2.558-1.172 5.229-1.726l4.12-.855 164.93-.032 164.929-.031zm-133.24 93.541c-4.232.428-11.131 1.886-12.194 2.576-.476.31-1.145.563-1.486.563-1.365 0-7.496 2.955-8.977 4.327-.859.796-2.133 1.734-2.832 2.085-.698.352-1.269.774-1.269.94s-.812 1.524-1.805 3.017c-.993 1.494-2.231 3.595-2.752 4.67-.521 1.074-1.2 2.392-1.51 2.929-.309.537-.565 1.345-.568 1.795-.003.449-.358 1.841-.788 3.092-3.242 9.423-3.823 26.843-.932 27.943 1.401.532 33.29.492 34.828-.045 1.65-.575 1.686-.751 1.891-9.347.128-5.37.35-8.052.753-9.09.313-.81.578-2.216.587-3.125.081-7.889 6.766-11.99 12.552-7.7 1.219.904 2.383 2.107 2.585 2.674 1.808 5.052 1.785 4.833 1.926 18.217.144 13.685.206 12.978-1.859 21.289-.24.967-1.535 4.043-2.878 6.836s-2.946 6.133-3.562 7.422c-1.199 2.511-5.293 8.881-7.511 11.689-.484.611-.879 1.373-.879 1.691 0 .319-.484 1.161-1.074 1.873-.591.711-2.005 2.668-3.142 4.348-1.137 1.681-2.67 3.934-3.405 5.009-.736 1.074-2.213 3.271-3.284 4.882-1.07 1.612-2.495 3.633-3.167 4.493-.672.859-2.091 2.88-3.154 4.492-1.062 1.611-2.362 3.545-2.888 4.297-1.458 2.085-2.39 3.459-4.373 6.445-.999 1.504-2.753 3.988-3.899 5.52-1.146 1.533-2.083 3.153-2.083 3.602 0 .453-.521 1.2-1.172 1.682-.644.476-1.172 1.072-1.172 1.324 0 .251-.678 1.229-1.507 2.172-.828.944-1.631 2.11-1.783 2.592-.152.481-.941 1.716-1.753 2.744-.812 1.027-1.964 2.655-2.561 3.616-.596.961-1.483 2.187-1.971 2.725-.842.925-.895 1.34-1.024 8.007-.272 14.016.029 27.671.628 28.462.806 1.064 99.56 1.153 101.179.092l.98-.642v-13.621c0-12.585-.052-13.647-.684-13.956-.376-.184-14.131-.423-30.566-.53-16.436-.107-30.103-.338-30.371-.511-.804-.521-.558-1.726.631-3.089.615-.705 1.253-1.711 1.416-2.235.164-.523.847-1.498 1.518-2.166 1.331-1.324 2.992-3.484 5.712-7.425.967-1.401 2.857-4.05 4.201-5.888s2.731-3.902 3.083-4.588c.771-1.503 3.69-5.576 5.704-7.96.806-.953 1.465-1.881 1.465-2.062 0-.182.615-1.067 1.367-1.967s1.368-1.862 1.368-2.137c0-.276.272-.728.606-1.004.333-.277 1.922-2.452 3.531-4.833 1.608-2.382 4.06-5.824 5.448-7.651 1.388-1.826 2.989-4.023 3.558-4.882.569-.86 1.863-2.793 2.877-4.297 1.013-1.504 1.967-3.135 2.12-3.624s.703-1.167 1.222-1.507c.553-.363 1.122-1.288 1.375-2.236.238-.89.616-1.841.84-2.115.754-.919 4.595-8.843 4.595-9.479 0-.346.416-1.021.924-1.498.722-.678.968-1.405 1.121-3.309.107-1.342.488-3.004.845-3.695.357-.69.883-2.833 1.17-4.761.286-1.928.741-3.772 1.011-4.096.644-.776.415-28.33-.243-29.159-.234-.296-.536-1.767-.672-3.271s-.683-3.965-1.217-5.469c-.533-1.504-.974-3.483-.978-4.398-.006-1.174-.239-1.862-.79-2.333-.429-.368-.781-.845-.781-1.059 0-1.64-5.911-9.795-7.797-10.757-.802-.409-1.731-1.16-2.065-1.669-.333-.51-1.317-1.139-2.185-1.399s-2.574-.996-3.79-1.636-2.663-1.163-3.215-1.163-1.306-.274-1.676-.609c-1.835-1.661-24.042-3.084-33.373-2.139m20.703 1.353c8.41.766 11.395 1.177 11.944 1.647.338.29 1.443.682 2.455.871s2.141.602 2.509.918c.369.316 1.505.8 2.525 1.075 1.021.276 1.856.64 1.856.811 0 .637 2.506 2.785 3.902 3.343 1.497.599 2.757 1.98 4.106 4.498 2.065 3.856 3.75 6.523 4.242 6.712.363.139.634 1.219.818 3.266.17 1.884.626 3.811 1.188 5.016 2.229 4.781 2.335 37.812.134 41.471-.411.683-1.009 2.88-1.33 4.883-.32 2.003-.799 3.817-1.063 4.032-.577.469-4.185 7.756-4.185 8.453 0 .269-.454 1.145-1.01 1.947-.555.801-1.101 2.142-1.214 2.979-.165 1.234-.418 1.602-1.34 1.95-.735.277-1.346.929-1.728 1.843-.325.777-1.179 2.242-1.898 3.254s-1.616 2.455-1.993 3.207-1.453 2.195-2.392 3.206c-.938 1.011-1.706 2.034-1.706 2.272 0 .239-.747 1.38-1.66 2.536-1.802 2.281-2.809 3.725-4.484 6.43-.595.961-1.54 2.194-2.099 2.739-1.012.987-2.304 3.147-2.304 3.852 0 .204-.571.983-1.269 1.73-2.201 2.356-7.325 9.259-7.325 9.868 0 .127-.514.663-1.143 1.192s-1.253 1.464-1.388 2.077c-.135.614-.81 1.796-1.501 2.627-1.511 1.815-4.114 5.632-5.026 7.368-.363.691-1.374 1.999-2.246 2.907-.873.908-1.586 1.982-1.586 2.386 0 .405-.366.931-.812 1.17-.447.239-.988.94-1.203 1.556-.215.617-.995 1.478-1.733 1.914-3.906 2.304-1.995 6.634 2.692 6.1 3.984-.454 54.851-.298 55.727.171 1.226.656 1.642 2.898 1.861 10.04.441 14.402-.074 16.711-3.725 16.676-.792-.007-22.575-.045-48.407-.084l-46.966-.072-.177-.873c-.475-2.339-.632-7.222-.638-19.822l-.006-13.739 1.381-1.529c.759-.84 1.381-1.688 1.381-1.883s.712-1.255 1.582-2.356c.87-1.1 1.905-2.742 2.3-3.648s1.353-2.253 2.129-2.993c.781-.745 1.411-1.728 1.411-2.201s.421-1.131.942-1.473c.519-.339 1.058-1.143 1.199-1.785s.552-1.265.913-1.384c.599-.199 4.284-5.445 7.364-10.487.682-1.115 1.921-2.906 2.753-3.98.833-1.074 2.034-2.812 2.668-3.862s1.966-2.808 2.959-3.907c.993-1.098 1.934-2.41 2.09-2.916.325-1.053 1.691-3.182 3.242-5.053.586-.707 1.403-1.937 1.816-2.734.414-.798 1.589-2.53 2.611-3.85 1.022-1.319 2.362-3.341 2.976-4.492.615-1.151 1.584-2.559 2.155-3.129.571-.571 1.41-1.828 1.864-2.795.455-.966 1.167-2.065 1.582-2.441.416-.376.756-.845.756-1.04 0-.196.433-.924.962-1.618.891-1.168 6.403-11.713 6.993-13.379.143-.405.519-1.177.835-1.714.315-.537.576-1.7.579-2.584.004-.968.296-1.978.735-2.539 2.127-2.719 3.013-29.487 1.18-35.655-.878-2.957-2.13-5.705-2.6-5.708-.157-.001-.954-.616-1.772-1.367-1.578-1.45-6.4-1.986-8.992-1.001-2.254.857-4.422 4.381-4.721 7.671-.15 1.664-.509 3.481-.797 4.038-.351.679-.619 3.558-.812 8.741-.282 7.558-.311 7.76-1.34 9.18l-1.051 1.451-12.666-.053c-14.786-.062-19.939-.409-20.94-1.412-.787-.789-.824-3.051-.156-9.668.227-2.256.589-5.892.804-8.079.215-2.188.743-4.873 1.174-5.966s.895-2.994 1.032-4.225.551-2.589.92-3.019 1.06-1.605 1.534-2.612c.475-1.006 1.384-2.486 2.021-3.287.637-.802 1.258-1.855 1.38-2.341s.451-.971.731-1.079c.854-.327 5.029-3.622 5.961-4.703.482-.56 1.192-1.017 1.577-1.017.386 0 1.398-.357 2.249-.794 6.504-3.336 22.813-4.992 36.704-3.726m-93.555 1.062c-.62.253-5.217.341-12.589.241-8.326-.113-11.921-.028-12.703.301-1.397.588-3.528 3.01-3.859 4.388-.366 1.523-1.54 3.761-2.305 4.396-.36.299-1.233 1.43-1.941 2.513-1.358 2.08-5.771 6.853-6.336 6.853-.183 0-.646.53-1.028 1.177s-1.396 1.534-2.252 1.971c-.856.436-1.653 1.045-1.77 1.352-.197.513-1.543 1.476-5.754 4.114-3.243 2.031-3.174 1.605-3.174 19.511v15.821l1.378.116c2.26.19 9.812-3.934 14.568-7.956 1.542-1.304 3.368-2.76 4.056-3.237l1.252-.866.593 1.146c.523 1.012.594 9.084.602 68.735.008 66.209.057 68.894 1.266 69.898.439.364 24.751.72 33.805.496.268-.007.839-.364 1.269-.793 1.108-1.109 1.251-187.047.144-188.627-1.127-1.61-3.414-2.288-5.222-1.55m4.129 2.43 1.346 1.347-.115 90.368c-.118 92.549-.123 92.987-1.176 94.593l-.615.94-16.171.077c-17.382.084-16.715.159-17.217-1.951-.132-.554-.253-31.3-.27-68.327-.022-47.057-.157-67.565-.449-68.134-.231-.448-.772-1.202-1.203-1.676l-.784-.861-1.755 1.447c-.965.796-2.76 2.37-3.988 3.498s-2.407 2.051-2.621 2.051c-.213 0-1.36.681-2.549 1.513-1.188.833-3.107 1.827-4.264 2.209-1.156.382-2.499.952-2.984 1.267-1.873 1.216-2.767-1.117-2.053-5.353.29-1.718.326-3.156.101-3.993-.455-1.689.05-19.344.591-20.668.237-.579 1.839-1.971 3.804-3.306 1.867-1.269 3.598-2.595 3.846-2.947.248-.353.829-.761 1.291-.907 2.899-.915 12.915-12.882 16.376-19.563 1.537-2.968.549-2.793 16.305-2.889l13.207-.081z" fill="#fbe99f"/><path d="m34.747 4.824c-2.671.554-4.511 1.162-5.229 1.726-.609.48-1.251.872-1.425.872s-1.513.879-2.975 1.954c-1.461 1.075-3.418 2.512-4.348 3.194-1.019.747-1.93 1.837-2.292 2.741-.33.825-1.021 1.832-1.535 2.236-.514.405-1.207 1.412-1.539 2.239s-1.235 2.768-2.006 4.315c-2.102 4.219-2.019-2.777-2.045 172.196l-.025 162.898.801 2.889c.44 1.589 1.118 3.343 1.507 3.898.389.556 1.001 1.906 1.359 3 .359 1.095 1.079 2.362 1.601 2.815.522.454 1.293 1.492 1.714 2.307 1.052 2.037 8.94 8.708 10.296 8.708.206 0 .842.328 1.412.728s1.74.855 2.599 1.011c.86.157 2.617.665 3.906 1.129l2.344.843h164.453 164.453l3.574-1.269c1.965-.698 3.875-1.27 4.245-1.27s1.244-.483 1.942-1.074c.699-.591 2.287-1.777 3.53-2.637 3.754-2.595 6.966-5.645 7.826-7.43.448-.928 1.317-2.347 1.932-3.153 3.776-4.951 3.611 3.202 3.617-178.674.004-152.775-.055-160.636-1.248-165.194-1.461-5.575-6.198-12.454-10.886-15.804-4.938-3.53-5.961-4.159-6.762-4.159-.459 0-2.18-.439-3.826-.976l-2.991-.977-164.929.031-164.93.032zm335.956.508c.967.462 2.541.967 3.498 1.122 1.989.323 4.292 1.427 5.301 2.541.379.419 1.546 1.311 2.593 1.983 2.518 1.616 4.057 3.087 4.417 4.22.161.508.897 1.715 1.634 2.681s1.618 2.304 1.957 2.974c.339.669.858 1.495 1.155 1.834.296.338.74 1.657.986 2.929.246 1.273.686 2.591.977 2.93.822.958.787 331.068-.035 331.976-.31.343-.753 1.811-.985 3.262-.328 2.051-.738 3.05-1.839 4.486-.78 1.016-1.846 2.811-2.37 3.988-1.129 2.537-3.836 5.027-8.998 8.276-.704.443-1.45 1.122-1.657 1.51-.208.388-.95.829-1.65.981s-3.119.914-5.374 1.692l-4.102 1.416-161.914.104c-102.722.066-162.485-.033-163.477-.271-6.834-1.644-9.823-2.685-12.154-4.234-5.719-3.799-8.959-6.664-9.719-8.594-.362-.917-1.239-2.11-1.949-2.652-.835-.637-1.379-1.45-1.538-2.299-.136-.722-.681-2.131-1.213-3.13-.531-.999-.966-2.12-.966-2.491 0-.37-.307-1.108-.683-1.639-.649-.916-.684-9.453-.684-166.005v-165.039l.899-2.149c.494-1.181 1.222-2.763 1.617-3.515.396-.752.841-1.943.99-2.647.167-.784.939-1.905 1.999-2.898 1.038-.973 1.879-2.184 2.109-3.035.382-1.421 1.13-2.116 5.081-4.723 2.377-1.567 4.286-2.9 5.511-3.846.56-.433 2.142-.976 3.516-1.208 1.373-.231 3.376-.666 4.45-.967 1.663-.466 26.4-.537 166.406-.475l164.453.072zm-128.906 91.887c-.322.186-2.305.459-4.406.607-2.102.149-4.791.522-5.976.831-1.186.309-2.462.562-2.836.562s-1.349.341-2.167.758c-.819.418-2.042.874-2.72 1.015-.677.141-1.934.655-2.794 1.142-.859.487-2.244 1.106-3.078 1.376s-2.152 1.059-2.93 1.754c-.777.695-1.798 1.465-2.268 1.712-1.093.572-4.852 6.21-6.363 9.543-.639 1.41-1.343 2.675-1.562 2.811-.22.136-.4.586-.4 1.001 0 .414-.516 2.381-1.146 4.371-1.291 4.078-1.455 5.078-2 12.212-.213 2.793-.55 6.908-.749 9.145-.703 7.925-1.761 7.524 19.721 7.473 20.925-.05 22.334-.346 20.925-4.389-.462-1.324-.021-10.282.895-18.202l.511-4.41 1.722-1.741c2.958-2.99 5.932-3.203 9.61-.688 2.263 1.548 2.295 1.599 2.667 4.266.146 1.048.499 2.784.785 3.859.666 2.503 1.133 20.636.608 23.632-.206 1.182-.571 3.028-.811 4.102-.239 1.074-.615 2.832-.835 3.906s-1.589 4.414-3.042 7.422c-5.617 11.627-5.17 10.822-9.506 17.11-1.235 1.791-2.246 3.57-2.246 3.952s-.529 1.189-1.175 1.793c-1.157 1.081-5.171 6.885-6.346 9.177-.331.645-.988 1.523-1.461 1.95-.736.666-1.833 2.199-5.735 8.01-.361.537-1.454 2.207-2.43 3.711s-2.186 3.195-2.689 3.758c-.504.563-1.212 1.569-1.575 2.235-.733 1.348-4.261 6.524-6.697 9.828-1.797 2.436-2.751 4.314-2.751 5.413 0 .476-.358.842-.977.997-.537.135-.976.396-.976.581s-.791 1.355-1.758 2.6-1.759 2.453-1.761 2.684-.837 1.515-1.856 2.853c-1.018 1.338-2.291 3.064-2.828 3.835-.537.772-1.383 1.912-1.879 2.534l-.902 1.131-.004 17.494c-.002 9.622.008 17.811.023 18.197.064 1.644 2.42 2.055 10.005 1.746 3.858-.158 25.823-.267 48.811-.242 48.593.051 43.746.142 44.727-.839 1.037-1.037 1.237-28.004.215-29.026-.992-.992-5.966-1.141-33.223-.999-14.609.077-26.759.012-26.998-.143-.482-.312-.265-2.171.342-2.94.214-.27.504-1.061.646-1.758.186-.912.501-1.302 1.128-1.393.54-.077 1.38-.894 2.212-2.148.738-1.113 1.912-2.814 2.608-3.781.697-.966 1.892-2.644 2.656-3.727 2.702-3.827 4.135-5.741 5.004-6.686.483-.525.879-1.283.879-1.683s.533-1.226 1.184-1.835c.652-.609 1.646-1.899 2.208-2.865.563-.967 1.705-2.506 2.537-3.421.832-.914 1.621-2.204 1.754-2.865.132-.662.488-1.298.79-1.415.303-.116 1.2-1.176 1.995-2.356 3.559-5.283 5.11-7.749 5.133-8.16.013-.244.464-.732 1.002-1.084.537-.353 1.445-1.384 2.016-2.291.571-.908 1.757-2.602 2.635-3.765.879-1.163 2.212-3.113 2.964-4.333 1.927-3.127 4.507-7.05 5.394-8.201.414-.537.877-1.547 1.03-2.244s.52-1.403.817-1.568c.296-.166 1.164-1.617 1.93-3.225.765-1.608 1.74-3.537 2.165-4.285.426-.749.774-1.839.774-2.422 0-.584.289-1.223.644-1.421.419-.235.757-1.196.972-2.761.18-1.32.687-3.105 1.127-3.966.515-1.01.882-2.705 1.033-4.778.154-2.122.449-3.459.866-3.938.953-1.095.942-29.111-.012-30.199-.44-.503-.685-1.786-.82-4.299-.146-2.717-.391-3.904-1.013-4.91-.452-.73-.937-2.37-1.08-3.644-.142-1.274-.477-2.58-.743-2.903-.267-.322-.692-1.231-.945-2.019-.253-.789-.709-1.64-1.013-1.893-.304-.252-1.161-1.541-1.903-2.863-1.927-3.432-6.777-7.727-9.37-8.296-.655-.144-1.812-.661-2.572-1.149-.76-.489-2.085-1.104-2.945-1.367-.859-.264-2.353-.807-3.32-1.209-4.068-1.688-27.987-3.552-30.078-2.344m24.163 1.952c3.222.484 5.474 1.016 5.89 1.392.37.335 1.124.609 1.676.609s1.999.523 3.215 1.163 2.922 1.376 3.79 1.636 1.852.889 2.185 1.399c.334.509 1.263 1.26 2.065 1.669 1.886.962 7.797 9.117 7.797 10.757 0 .214.352.691.781 1.059.551.471.784 1.159.79 2.333.004.915.445 2.894.978 4.398.534 1.504 1.081 3.965 1.217 5.469s.438 2.975.672 3.271c.658.829.887 28.383.243 29.159-.27.324-.725 2.168-1.011 4.096-.287 1.928-.813 4.071-1.17 4.761-.357.691-.738 2.353-.845 3.695-.153 1.904-.399 2.631-1.121 3.309-.508.477-.924 1.152-.924 1.498 0 .636-3.841 8.56-4.595 9.479-.224.274-.602 1.225-.84 2.115-.253.948-.822 1.873-1.375 2.236-.519.34-1.069 1.018-1.222 1.507s-1.107 2.12-2.12 3.624c-1.014 1.504-2.308 3.437-2.877 4.297-.569.859-2.17 3.056-3.558 4.882-1.388 1.827-3.84 5.269-5.448 7.651-1.609 2.381-3.198 4.556-3.531 4.833-.334.276-.606.728-.606 1.004 0 .275-.616 1.237-1.368 2.137s-1.367 1.785-1.367 1.967c0 .181-.659 1.109-1.465 2.062-2.014 2.384-4.933 6.457-5.704 7.96-.352.686-1.739 2.75-3.083 4.588s-3.234 4.487-4.201 5.888c-2.72 3.941-4.381 6.101-5.712 7.425-.671.668-1.354 1.643-1.518 2.166-.163.524-.801 1.53-1.416 2.235-1.189 1.363-1.435 2.568-.631 3.089.268.173 13.935.404 30.371.511 16.435.107 30.19.346 30.566.53.632.309.684 1.371.684 13.956v13.621l-.98.642c-1.619 1.061-100.373.972-101.179-.092-.599-.791-.9-14.446-.628-28.462.129-6.667.182-7.082 1.024-8.007.488-.538 1.375-1.764 1.971-2.725.597-.961 1.749-2.589 2.561-3.616.812-1.028 1.601-2.263 1.753-2.744.152-.482.955-1.648 1.783-2.592.829-.943 1.507-1.921 1.507-2.172 0-.252.528-.848 1.172-1.324.651-.482 1.172-1.229 1.172-1.682 0-.449.937-2.069 2.083-3.602 1.146-1.532 2.9-4.016 3.899-5.52 1.983-2.986 2.915-4.36 4.373-6.445.526-.752 1.826-2.686 2.888-4.297 1.063-1.612 2.482-3.633 3.154-4.492.672-.86 2.097-2.881 3.167-4.493 1.071-1.611 2.548-3.808 3.284-4.882.735-1.075 2.268-3.328 3.405-5.009 1.137-1.68 2.551-3.637 3.142-4.348.59-.712 1.074-1.554 1.074-1.873 0-.318.395-1.08.879-1.691 2.218-2.808 6.312-9.178 7.511-11.689.616-1.289 2.219-4.629 3.562-7.422s2.638-5.869 2.878-6.836c2.065-8.311 2.003-7.604 1.859-21.289-.141-13.384-.118-13.165-1.926-18.217-.202-.567-1.366-1.77-2.585-2.674-5.786-4.29-12.471-.189-12.552 7.7-.009.909-.274 2.315-.587 3.125-.403 1.038-.625 3.72-.753 9.09-.205 8.596-.241 8.772-1.891 9.347-1.538.537-33.427.577-34.828.045-2.891-1.1-2.31-18.52.932-27.943.43-1.251.785-2.643.788-3.092.003-.45.259-1.258.568-1.795.31-.537.989-1.855 1.51-2.929.521-1.075 1.759-3.176 2.752-4.67.993-1.493 1.805-2.851 1.805-3.017s.571-.588 1.269-.94c.699-.351 1.973-1.289 2.832-2.085 1.481-1.372 7.612-4.327 8.977-4.327.341 0 1.01-.253 1.486-.563 4.176-2.713 26.826-3.757 39.677-1.829m-125.165.899c-2.065.549-4.416 2.956-5.064 5.184-.333 1.147-1.117 2.619-1.741 3.273-.625.653-1.48 1.862-1.9 2.687-.657 1.287-2.357 3.33-5.461 6.559-.413.43-1.584 1.485-2.602 2.344-1.019.86-2.403 2.085-3.076 2.723s-1.69 1.429-2.259 1.758c-.569.328-1.8 1.121-2.734 1.761-.935.64-2.035 1.343-2.444 1.563-2.392 1.282-2.371 1.125-2.492 18.64-.129 18.79-.248 18.138 3.238 17.778 2.225-.229 10.337-4.456 12.303-6.41 1.82-1.809 5.95-4.84 6.394-4.692.325.109.464 18.119.526 68.542.067 55.103.183 68.636.592 69.64l.508 1.245 15.033-.051c8.268-.028 16.052.12 17.298.33 2.563.431 3.906.095 4.568-1.143.591-1.104.581-189.547-.01-190.651-.22-.413-.872-.868-1.447-1.013-1.386-.347-27.946-.408-29.23-.067m28.112.865c2.825 1.181 2.577-8.032 2.577 95.832 0 92.947-.004 93.472-.781 94.249-.43.429-1.001.786-1.269.793-9.054.224-33.366-.132-33.805-.496-1.209-1.004-1.258-3.689-1.266-69.898-.008-59.651-.079-67.723-.602-68.735l-.593-1.146-1.252.866c-.688.477-2.514 1.933-4.056 3.237-4.756 4.022-12.308 8.146-14.568 7.956l-1.378-.116v-15.821c0-17.906-.069-17.48 3.174-19.511 4.211-2.638 5.557-3.601 5.754-4.114.117-.307.914-.916 1.77-1.352.856-.437 1.87-1.324 2.252-1.971s.845-1.177 1.028-1.177c.565 0 4.978-4.773 6.336-6.853.708-1.083 1.581-2.214 1.941-2.513.765-.635 1.939-2.873 2.305-4.396.331-1.378 2.462-3.8 3.859-4.388.782-.329 4.377-.414 12.703-.301 7.372.1 11.969.012 12.589-.241 1.338-.546 1.775-.533 3.282.096" fill="#fadd60"/><path d="m38.086 4.895c-1.074.301-3.077.736-4.45.967-1.374.232-2.956.775-3.516 1.208-1.225.946-3.134 2.279-5.511 3.846-3.951 2.607-4.699 3.302-5.081 4.723-.23.851-1.071 2.062-2.109 3.035-1.06.993-1.832 2.114-1.999 2.898-.149.704-.594 1.895-.99 2.647-.395.752-1.123 2.334-1.617 3.515l-.899 2.149v165.039c0 156.552.035 165.089.684 166.005.376.531.683 1.269.683 1.639 0 .371.435 1.492.966 2.491.532.999 1.077 2.408 1.213 3.13.159.849.703 1.662 1.538 2.299.71.542 1.587 1.735 1.949 2.652.76 1.93 4 4.795 9.719 8.594 2.331 1.549 5.32 2.59 12.154 4.234.992.238 60.755.337 163.477.271l161.914-.104 4.102-1.416c2.255-.778 4.674-1.54 5.374-1.692s1.442-.593 1.65-.981c.207-.388.953-1.067 1.657-1.51 5.162-3.249 7.869-5.739 8.998-8.276.524-1.177 1.59-2.972 2.37-3.988 1.101-1.436 1.511-2.435 1.839-4.486.232-1.451.675-2.919.985-3.262.457-.504.547-2.029.476-8.014l-.089-7.391-.116 7.196c-.104 6.477-.188 7.247-.837 7.702-.482.337-.784 1.159-.91 2.475-.108 1.123-.494 2.307-.896 2.751-.791.874-1.421 1.92-2.304 3.825-.329.711-.943 1.73-1.363 2.264-.421.535-.879 1.491-1.018 2.126-.14.634-.399 1.153-.576 1.153-.29 0-2.668 1.781-4.366 3.268-.949.832-3.035 1.703-4.82 2.013-1.542.268-1.551.28-.683.864 1.493 1.005 1.063 1.543-1.416 1.767-1.261.115-2.755.511-3.32.881-.564.369-2.475.923-4.247 1.231-1.771.307-3.389.727-3.594.932-.658.658-319.552.493-320.841-.167-.58-.297-1.846-.67-2.813-.828-.967-.159-2.373-.598-3.125-.977-.752-.378-2.293-.813-3.424-.967-1.43-.194-2.179-.506-2.455-1.023-.219-.409-.65-.744-.957-.744s-1.159-.527-1.893-1.172c-.734-.644-1.531-1.171-1.772-1.171-.24 0-.436-.164-.436-.365 0-.2-.349-.475-.775-.61-1.344-.426-3.727-3.042-4.916-5.394-.679-1.345-1.644-2.578-2.37-3.032-1.204-.751-1.689-1.704-1.7-3.34-.003-.454-.334-1.245-.735-1.757-.402-.513-.853-1.547-1.002-2.299s-.615-2.249-1.036-3.327c-1.113-2.852-.966-319.865.151-324.798.365-1.612.663-3.602.663-4.423.001-.863.397-2.182.94-3.125.516-.898 1.059-2.379 1.206-3.292.155-.962.48-1.66.773-1.66 1.194 0 4.504-4.587 4.504-6.241 0-.496.364-.948.938-1.167.517-.196 1.056-.546 1.199-.777.143-.232.907-.688 1.698-1.014s1.614-.806 1.829-1.068c.215-.261 1.181-1.003 2.148-1.647.967-.645 1.936-1.399 2.154-1.676.219-.276 2.152-.764 4.297-1.084 2.146-.32 4.604-.844 5.463-1.165 1.379-.514 20.662-.571 163.672-.476 179.279.118 162.108-.115 167.578 2.269.86.374 2.361.792 3.336.929 1.354.19 2.233.661 3.711 1.989 1.066.957 2.126 1.743 2.356 1.747.229.003 1.008.533 1.73 1.178.722.644 1.422 1.171 1.555 1.171.132 0 .477.66.765 1.465.288.806.983 2.024 1.543 2.707 1.458 1.775 2.778 3.99 2.778 4.663 0 .318.418.965.929 1.439.615.57 1 1.457 1.137 2.618.114.966.416 2.548.67 3.515s.59 4.306.747 7.422l.285 5.664.069-7.196c.053-5.568-.051-7.335-.46-7.813-.291-.339-.731-1.657-.977-2.93-.246-1.272-.69-2.591-.986-2.929-.297-.339-.816-1.165-1.155-1.834-.339-.67-1.22-2.008-1.957-2.974s-1.473-2.173-1.634-2.681c-.36-1.133-1.899-2.604-4.417-4.22-1.047-.672-2.214-1.564-2.593-1.983-1.009-1.114-3.312-2.218-5.301-2.541-.957-.155-2.531-.66-3.498-1.122l-1.758-.84-164.453-.072c-140.006-.062-164.743.009-166.406.475m-7.405 5.234c-.385.622.556.898 2.059.605 1.222-.238 1.322-.328.658-.597-1.083-.439-2.448-.443-2.717-.008m356.819 17.215c0 .215.429.39.954.39.524 0 1.062-.175 1.194-.39.141-.228-.256-.391-.953-.391-.657 0-1.195.176-1.195.391m-146.139 69.082c-.746.579-1.939.774-6.009.984-5.979.309-8.104.677-8.983 1.555-.354.355-1.14.644-1.748.644-1.007 0-3.817 1.265-6.267 2.823-.534.339-1.554.738-2.267.887s-1.391.518-1.507.821c-.117.303-.833.846-1.591 1.206-.759.36-1.724 1.238-2.145 1.951s-.906 1.297-1.078 1.297c-.323 0-1.566 1.892-2.822 4.297-.393.752-.971 1.806-1.284 2.343-.314.537-.573 1.317-.576 1.733s-.364 1.138-.803 1.604c-.438.467-.891 1.533-1.006 2.369-.116.837-.569 2.197-1.008 3.024-1.129 2.129-2.995 17.458-3.032 24.909-.026 5.419 1.369 6.452 8.057 5.964 6.554-.478 24.749-.534 27.391-.083 2.129.362 2.552.331 3.176-.233.396-.359 1.365-.83 2.152-1.048 1.846-.509 2.263-1.602 1.979-5.188-.72-9.1.722-19.975 3.018-22.76 2.169-2.631 6.246-3.343 7.348-1.282.223.416.63.757.905.757 1.331 0 2.703 2.237 2.442 3.981-.178 1.182-.028 2.394.495 4.03 1.058 3.304 1.546 19.717.673 22.609-.317 1.049-.696 3.335-.842 5.078s-.481 3.433-.744 3.755c-.764.933-2.846 5.543-3.132 6.934-.144.698-.409 1.269-.588 1.269-.528 0-2.334 3.508-2.803 5.443-.238.981-.726 2.135-1.085 2.565s-.862 1.221-1.118 1.758c-.255.537-1.079 1.767-1.831 2.734-.751.967-1.554 2.198-1.784 2.735s-.739 1.328-1.132 1.757c-.393.43-.836 1.529-.985 2.442-.194 1.191-.457 1.66-.931 1.66-1.1 0-2.319 1.104-2.592 2.347-.142.647-.595 1.356-1.008 1.576-.412.221-.749.645-.749.944 0 .298-.44 1.064-.977 1.702-.537.639-.976 1.431-.976 1.762s-.879 1.503-1.952 2.605c-1.074 1.102-2.06 2.432-2.191 2.956-.131.523-.399.952-.595.952-.197 0-.568.483-.825 1.074-.258.591-.87 1.461-1.359 1.934-.49.474-.891 1.2-.891 1.616 0 .415-.439 1.043-.976 1.395-.537.351-.977.899-.977 1.216 0 .318-.184.577-.41.577-.225 0-.714.659-1.086 1.465s-1.234 2.045-1.914 2.754c-.681.71-1.358 1.676-1.506 2.149-.148.472-.702 1.376-1.23 2.009-.529.632-1.121 1.511-1.316 1.953-.194.442-.968 1.594-1.719 2.561-.752.967-1.572 2.158-1.824 2.647s-1.393 1.895-2.536 3.125c-1.142 1.23-2.372 3.027-2.732 3.994-.36.966-.956 2.109-1.324 2.539-.369.429-.957 1.308-1.307 1.953-1.307 2.404-2.624 4.212-6.092 8.36-.432.517-.785 1.105-.785 1.307 0 .203-.376.897-.836 1.543-.811 1.139-1.118 11.136-1.095 35.639.001 1.375.393 1.899 2.046 2.735.689.348 1.542.836 1.897 1.084.491.343 1.149.335 2.735-.033 1.391-.323 2.676-.372 3.847-.147 1.09.21 2.277.186 3.125-.061 1.537-.448 73.706-.494 82.203-.052 3.119.162 5.363.114 5.86-.126.442-.214 1.445-.494 2.229-.622 2.49-.408 2.425.023 2.414-16.065-.005-8.046-.121-14.74-.256-14.875-.77-.77-7.095-.949-32.147-.912l-27.782.041-.175-.915c-.264-1.38.006-1.811 1.661-2.655 1.621-.827 2.321-1.77 2.321-3.129 0-.467.442-1.401.982-2.077.541-.675 1.126-1.408 1.301-1.629.175-.22.656-.92 1.068-1.556.413-.635 1.058-1.465 1.434-1.845.376-.379.684-.916.684-1.193 0-.276.791-1.34 1.757-2.363.967-1.024 1.758-2.183 1.758-2.578 0-.394.431-.999.958-1.344.552-.362 1.062-1.168 1.202-1.9.177-.924.583-1.433 1.481-1.859.875-.414 1.415-1.072 1.842-2.246.332-.913 1.326-2.407 2.208-3.32.883-.913 2.055-2.564 2.606-3.668.55-1.104 1.239-2.247 1.53-2.539.292-.292.87-1.056 1.285-1.697s.986-1.432 1.268-1.758c.885-1.023 2.511-3.675 2.876-4.693.194-.538.962-1.417 1.709-1.954s1.713-1.68 2.147-2.539c1.467-2.908 1.922-3.598 3.503-5.316.868-.943 1.689-2.155 1.823-2.692s1.096-2.002 2.137-3.257c1.042-1.254 1.894-2.547 1.894-2.873s.439-1.115.976-1.753c.538-.639.977-1.591.977-2.117 0-.648.3-1.071.928-1.309.99-.377 2.588-3.219 2.588-4.604 0-.453.413-1.321.919-1.928.505-.607 1.218-2.071 1.583-3.252.365-1.182.831-2.454 1.034-2.827s.37-1.331.37-2.128c0-.903.362-1.971.962-2.837.75-1.083 1.058-2.247 1.398-5.294.24-2.149.686-4.373.991-4.944.848-1.583.819-30.479-.031-31.329-.403-.403-.586-1.394-.586-3.175 0-3.3-.657-5.956-1.82-7.36-.611-.738-.914-1.605-.914-2.617 0-2.997-.786-5.437-2.21-6.861-.745-.745-1.549-1.92-1.788-2.612-.524-1.521-1.857-3.407-2.409-3.407-.22 0-.846-.454-1.391-1.008-1.564-1.589-3.969-3.289-4.658-3.292-.347-.001-1.157-.363-1.802-.804-.644-.441-1.523-.975-1.953-1.186s-1.221-.638-1.758-.948-1.693-.566-2.569-.569c-1.161-.004-1.825-.254-2.454-.924-.748-.796-1.36-.951-4.568-1.162-2.037-.134-4.042-.424-4.454-.645-2.414-1.291-19.99-1.666-21.547-.458m19.003 1.158c6.406.625 9.551 1.166 11.511 1.979.967.402 2.461.945 3.32 1.209.86.263 2.185.878 2.945 1.367.76.488 1.917 1.005 2.572 1.149 2.593.569 7.443 4.864 9.37 8.296.742 1.322 1.599 2.611 1.903 2.863.304.253.76 1.104 1.013 1.893.253.788.678 1.697.945 2.019.266.323.601 1.629.743 2.903.143 1.274.628 2.914 1.08 3.644.622 1.006.867 2.193 1.013 4.91.135 2.513.38 3.796.82 4.299.954 1.088.965 29.104.012 30.199-.417.479-.712 1.816-.866 3.938-.151 2.073-.518 3.768-1.033 4.778-.44.861-.947 2.646-1.127 3.966-.215 1.565-.553 2.526-.972 2.761-.355.198-.644.837-.644 1.421 0 .583-.348 1.673-.774 2.422-.425.748-1.4 2.677-2.165 4.285-.766 1.608-1.634 3.059-1.93 3.225-.297.165-.664.871-.817 1.568s-.616 1.707-1.03 2.244c-.887 1.151-3.467 5.074-5.394 8.201-.752 1.22-2.085 3.17-2.964 4.333-.878 1.163-2.064 2.857-2.635 3.765-.571.907-1.479 1.938-2.016 2.291-.538.352-.989.84-1.002 1.084-.023.411-1.574 2.877-5.133 8.16-.795 1.18-1.692 2.24-1.995 2.356-.302.117-.658.753-.79 1.415-.133.661-.922 1.951-1.754 2.865-.832.915-1.974 2.454-2.537 3.421-.562.966-1.556 2.256-2.208 2.865-.651.609-1.184 1.435-1.184 1.835s-.396 1.158-.879 1.683c-.869.945-2.302 2.859-5.004 6.686-.764 1.083-1.959 2.761-2.656 3.727-.696.967-1.87 2.668-2.608 3.781-.832 1.254-1.672 2.071-2.212 2.148-.627.091-.942.481-1.128 1.393-.142.697-.432 1.488-.646 1.758-.607.769-.824 2.628-.342 2.94.239.155 12.389.22 26.998.143 27.257-.142 32.231.007 33.223.999 1.022 1.022.822 27.989-.215 29.026-.981.981 3.866.89-44.727.839-22.988-.025-44.953.084-48.811.242-7.585.309-9.941-.102-10.005-1.746-.015-.386-.025-8.575-.023-18.197l.004-17.494.902-1.131c.496-.622 1.342-1.762 1.879-2.534.537-.771 1.81-2.497 2.828-3.835 1.019-1.338 1.854-2.622 1.856-2.853s.794-1.439 1.761-2.684 1.758-2.415 1.758-2.6.439-.446.976-.581c.619-.155.977-.521.977-.997 0-1.099.954-2.977 2.751-5.413 2.436-3.304 5.964-8.48 6.697-9.828.363-.666 1.071-1.672 1.575-2.235.503-.563 1.713-2.254 2.689-3.758s2.069-3.174 2.43-3.711c3.902-5.811 4.999-7.344 5.735-8.01.473-.427 1.13-1.305 1.461-1.95 1.175-2.292 5.189-8.096 6.346-9.177.646-.604 1.175-1.411 1.175-1.793s1.011-2.161 2.246-3.952c4.336-6.288 3.889-5.483 9.506-17.11 1.453-3.008 2.822-6.348 3.042-7.422s.596-2.832.835-3.906c.24-1.074.605-2.92.811-4.102.525-2.996.058-21.129-.608-23.632-.286-1.075-.639-2.811-.785-3.859-.372-2.667-.404-2.718-2.667-4.266-3.678-2.515-6.652-2.302-9.61.688l-1.722 1.741-.511 4.41c-.916 7.92-1.357 16.878-.895 18.202 1.409 4.043 0 4.339-20.925 4.389-21.482.051-20.424.452-19.721-7.473.199-2.237.536-6.352.749-9.145.545-7.134.709-8.134 2-12.212.63-1.99 1.146-3.957 1.146-4.371 0-.415.18-.865.4-1.001.219-.136.923-1.401 1.562-2.811 1.511-3.333 5.27-8.971 6.363-9.543.47-.247 1.491-1.017 2.268-1.712.778-.695 2.096-1.484 2.93-1.754s2.219-.889 3.078-1.376c.86-.487 2.117-1.001 2.794-1.142.678-.141 1.901-.597 2.72-1.015.818-.417 1.793-.758 2.167-.758s1.65-.253 2.836-.562c1.185-.309 3.874-.682 5.976-.831 2.101-.148 4.084-.421 4.406-.607.742-.429 12.88-.19 18.567.365m-94.181 1.233c-.429.429-21.503.594-23.472.184-2.554-.531-7.555 2.796-7.555 5.026 0 .601-.671 1.773-1.713 2.995-.943 1.104-1.811 2.492-1.929 3.085-.122.609-1.315 2.199-2.742 3.654-1.389 1.416-2.633 2.916-2.766 3.332-.132.417-.632.942-1.111 1.168-.479.227-1.838 1.274-3.02 2.327-1.182 1.054-2.852 2.336-3.711 2.849-.859.514-1.704 1.165-1.877 1.448-.173.282-.954.781-1.737 1.107-3.432 1.434-6.046 5.715-4.459 7.302.332.332.456 4.575.456 15.564 0 12.868.086 15.18.578 15.589 1.008.836 6.594.373 7.693-.637.5-.459 1.462-.952 2.138-1.095.676-.142 1.538-.601 1.916-1.018.377-.418 1.001-.759 1.386-.759.384 0 1.557-.835 2.605-1.856 3.139-3.055 5.034-4.394 6.219-4.394.12 0 .106 1.01-.03 2.246-.136 1.235-.218 2.421-.182 2.636.532 3.173.239 124.585-.303 125.412-1.859 2.838 1.221 11.414 3.362 9.362l1.028-.985h14.079c11.958 0 14.262.092 15.297.608 2.519 1.257 4.799.657 6.021-1.584 1.236-2.266 1.461-5.632.5-7.475-.513-.983-.584-11.99-.586-90.617l-.002-89.498.822-1.046.822-1.045-1.02-1.542c-1.449-2.189-5.459-3.591-6.707-2.343m3.842 1.32c.575.145 1.227.6 1.447 1.013.591 1.104.601 189.547.01 190.651-.662 1.238-2.005 1.574-4.568 1.143-1.246-.21-9.03-.358-17.298-.33l-15.033.051-.508-1.245c-.409-1.004-.525-14.537-.592-69.64-.062-50.423-.201-68.433-.526-68.542-.444-.148-4.574 2.883-6.394 4.692-1.966 1.954-10.078 6.181-12.303 6.41-3.486.36-3.367 1.012-3.238-17.778.121-17.515.1-17.358 2.492-18.64.409-.22 1.509-.923 2.444-1.563.934-.64 2.165-1.433 2.734-1.761.569-.329 1.586-1.12 2.259-1.758s2.057-1.863 3.076-2.723c1.018-.859 2.189-1.914 2.602-2.344 3.104-3.229 4.804-5.272 5.461-6.559.42-.825 1.275-2.034 1.9-2.687.624-.654 1.408-2.126 1.741-3.273.648-2.228 2.999-4.635 5.064-5.184 1.284-.341 27.844-.28 29.23.067m61.03 61.191c-.146.236.394.391 1.367.391s1.513-.155 1.367-.391c-.133-.215-.748-.39-1.367-.39s-1.235.175-1.367.39m67.364 18.762c-.49.303-.481.437.063.981.58.58.647.565.842-.181.251-.961-.118-1.287-.905-.8m-13.004 23.888c-.241.92-.032 1.491.546 1.491.466 0 .484-1.835.021-2.121-.191-.118-.446.166-.567.63m-71.352 6.328c0 .332 1.986.503 2.18.188.115-.186-.328-.338-.986-.338-.657 0-1.194.068-1.194.15m-15.235 34.262c0 .874.502.966 1.132.206.351-.423.278-.582-.342-.744-.589-.154-.79-.017-.79.538m0 52.698c0 .214.44.39.977.39s.976-.176.976-.39c0-.215-.439-.391-.976-.391s-.977.176-.977.391m164.058 84.575c-.279.336-.29.594-.032.753.516.319 2.429-.168 2.188-.557-.357-.578-1.735-.703-2.156-.196m-320.64.146c-.371.235-.139.394.781.534 1.443.219 2.027.04 1.683-.517-.28-.453-1.76-.464-2.464-.017" fill="#f8d22a"/></g></svg>