<svg height="394.339623" viewBox="0 0 400 394.33962264" width="400" xmlns="http://www.w3.org/2000/svg"><g fill-rule="evenodd"><path d="m0 197.239v197.238h200 200v-197.238-197.239h-200-200zm364.061-191.707c6.843 1.329 14.658 5.879 17.649 10.275.622.914 1.568 2.125 2.104 2.691.973 1.027 1.716 2.263 3.825 6.354l1.118 2.17.101 168.995.1 168.996-1.264 3.169c-.696 1.743-1.839 3.921-2.54 4.84-.702.918-1.536 2.172-1.854 2.786-2.473 4.773-11.46 10.35-19.83 12.307l-3.592.84-161.892-.004-161.891-.004-4.142-.946c-4.404-1.005-10.688-3.952-11.444-5.366-.215-.4-.788-.854-1.274-1.008-1.235-.392-4.514-3.225-5.415-4.678-.412-.665-1.085-1.567-1.494-2.004-2.337-2.497-5.318-9.687-6.46-15.582-.195-1.004-.302-72.403-.246-163.708l.1-161.927.892-3.156c1.003-3.551 3.993-9.976 5.564-11.959 5.784-7.298 12.106-11.498 19.724-13.105 5.629-1.188 326.041-1.164 332.161.024m-129.544 88.782c-12.454 1.244-22.19 5.626-27.108 12.202-4.482 5.994-7.638 13.829-8.576 21.295-.177 1.41-.706 5.138-1.174 8.284-1.147 7.703-1.065 105.945.094 112.031.351 1.844.831 5.04 1.066 7.101s.666 4.28.959 4.931c.292.651.718 1.893.947 2.761.922 3.511 2.303 6.841 3.516 8.481.705.953 1.282 1.947 1.282 2.208 0 .828 2.874 4.31 5.307 6.431 4.962 4.323 13.122 7.601 20.728 8.326 2.278.217 5.207.571 6.509.786 3.37.556 9.722.475 13.412-.173 1.736-.304 4.665-.682 6.509-.839 1.844-.158 3.708-.517 4.142-.798.434-.282 1.591-.691 2.571-.91 2.648-.59 5.835-2.109 8.267-3.938 1.187-.894 2.341-1.626 2.564-1.626.619-.002 6.275-6.643 6.668-7.83.19-.575.667-1.4 1.058-1.834.635-.703 1.604-3.173 3.716-9.467.364-1.085.825-3.038 1.024-4.34.2-1.301.701-3.875 1.114-5.719 2.774-12.396 1.562-59.537-1.729-67.259-.278-.651-.73-1.888-1.005-2.749-1-3.13-5.759-9.05-9.259-11.518-6.775-4.777-25.112-5.472-30.176-1.143-.326.278-1.159.696-1.853.928-1.234.413-5.722 3.972-7.374 5.847-1.216 1.379-3.191 1.67-3.786.557-.583-1.089-.299-47.775.307-50.502 1.348-6.063 2.343-7.732 5.701-9.566 4.682-2.557 9.864.067 11.835 5.993.779 2.344 1.694 12.535 1.357 15.107-.142 1.084.013 1.737.586 2.466l.779.99h17.103 17.102l.813-1.033c1.577-2.005-.3-21.544-2.304-23.985-.192-.234-.635-1.413-.985-2.619-4.113-14.202-24.39-21.605-51.707-18.877m-100.587 2.857c-.737.246-1.452 1.18-2.574 3.36-.855 1.661-2.088 3.729-2.74 4.597s-1.488 2.155-1.857 2.86c-.37.705-.811 1.282-.981 1.282s-1.051.984-1.959 2.186c-2.702 3.579-10.536 10.034-16.788 13.833-.777.473-1.349 30.079-.603 31.218.831 1.267 7.146-1.049 10.929-4.008.868-.678 2.302-1.721 3.188-2.318.885-.596 2.128-1.627 2.761-2.292.633-.664 1.75-1.46 2.482-1.767 3.479-1.463 3.211-7.385 3.204 70.867-.003 37.805.099 68.841.228 68.97.367.367 33.988.274 34.356-.094.518-.518.628-186.436.112-187.687-.425-1.028-.458-1.035-6.18-1.318-7.082-.351-22.19-.151-23.578.311m112.894 95.595c5.91 2.804 6.606 7.283 6.316 40.635-.23 26.441-.56 28.773-4.495 31.839-4.52 3.521-10.927 1.835-13.311-3.504-2.554-5.718-2.672-54.572-.154-63.018 1.561-5.233 7.144-8.087 11.644-5.952" fill="#fbf5f4"/><path d="m33.657 7.9c-2.478.261-5.786 1.412-8.016 2.79-.325.201-1.302.698-2.17 1.105-.867.407-2.801 1.913-4.297 3.348s-2.872 2.608-3.058 2.608c-.185 0-.337.246-.337.547 0 .3-.444.837-.986 1.192-.543.356-.986.967-.986 1.358s-.444 1.128-.986 1.637c-.543.51-.987 1.189-.987 1.51s-.47 1.577-1.045 2.791c-.672 1.421-1.162 3.333-1.374 5.364-.181 1.736-.493 4.398-.692 5.917-.215 1.643-.337 67.009-.302 161.341l.06 158.58.874 3.822c.48 2.101 1.235 4.495 1.676 5.319.442.824.806 1.679.809 1.899.004.22.63 1.288 1.392 2.372.762 1.085 1.689 2.417 2.061 2.959 3.239 4.735 9.985 8.966 17.552 11.008l3.061.826 162.422-.013c159.567-.012 162.46-.026 164.591-.776 1.193-.419 2.577-.769 3.076-.776.819-.011 4.399-1.624 7.94-3.575 1.502-.828 8.051-7.518 8.869-9.061.288-.542 1.257-2.363 2.154-4.047.896-1.683 1.63-3.569 1.63-4.191s.266-1.885.591-2.807c.8-2.267.913-325.755.114-326.553-.263-.264-.59-1.675-.727-3.137-.147-1.581-.673-3.581-1.297-4.937-.576-1.254-1.048-2.453-1.048-2.663 0-.211-.181-.383-.403-.383-.44 0-.989-1.161-1.352-2.86-.151-.705-.486-1.085-.957-1.085-.728 0-2.802-2.157-2.821-2.936-.006-.229-.749-.86-1.65-1.403-.901-.542-2.184-1.449-2.849-2.016-1.264-1.075-4.878-3.112-5.521-3.112-.205 0-.739-.331-1.187-.735-1.782-1.609-4.57-1.634-171.446-1.578-87.75.029-160.82.187-162.378.351m223.506 83.96c3.606.245 5.008.489 5.327.926.266.363 1.453.702 3.067.875 1.448.155 3.276.61 4.064 1.011.787.402 2.115.845 2.951.987.836.141 1.829.599 2.207 1.017.379.418.981.76 1.34.76.358 0 1.252.444 1.988.986.735.542 1.529.986 1.764.986 1.284 0 7.649 8.74 7.685 10.553.01.488.174.887.365.887.444 0 1.122 1.728 1.472 3.748.15.868.539 1.987.864 2.487.406.624.693 2.651.912 6.456.175 3.051.529 6.183.786 6.961.256.778.574 3.392.705 5.809.435 7.988 1.888 7.45-20.45 7.581-23.401.139-21.649.924-21.84-9.79-.105-5.865-.259-7.52-.793-8.538-.364-.694-.662-1.724-.662-2.288 0-6.344-9.551-6.344-11.026 0-.252 1.085-.646 2.683-.876 3.55-.442 1.675-.972 44.734-.563 45.8.173.451.623.206 1.908-1.039.925-.896 2.214-1.905 2.865-2.242.651-.338 1.314-.836 1.474-1.108.526-.894 4.034-2.467 6.43-2.883 1.294-.225 3.417-.708 4.719-1.073 3.466-.973 11.869-.893 15.023.142 1.284.422 3.025.871 3.87.998.845.126 1.91.575 2.367.995.457.421 1.186.829 1.62.906s.964.539 1.178 1.025c.272.618.728.886 1.506.886 1.282 0 5.07 3.374 5.82 5.183.244.589.691 1.167.993 1.282.67.258 2.825 4.722 3.176 6.583.141.742.517 1.652.836 2.02.386.446.695 2.203.921 5.242.188 2.515.645 5.408 1.016 6.431 1.369 3.77 1.169 47.475-.224 49.154-.216.26-.507 2.86-.649 5.779-.188 3.882-.451 5.732-.981 6.886-.398.868-.847 2.871-.997 4.451-.173 1.814-.533 3.203-.978 3.769-.387.492-.822 1.507-.967 2.255-.144.747-.87 2.424-1.612 3.726-.741 1.302-1.707 3.145-2.145 4.096-1.141 2.479-2.923 4.584-4.522 5.343-.762.362-1.385.823-1.385 1.025 0 .203-.725.771-1.612 1.264-.886.492-2.141 1.19-2.788 1.549-.648.36-1.488.936-1.869 1.28-.381.345-1.567.745-2.636.89-1.068.146-2.429.622-3.023 1.059-.826.608-1.892.837-4.535.976-2.052.108-3.807.412-4.321.749-2.304 1.51-23.343 1.73-25.575.268-.767-.503-2.251-.779-5.195-.967-3.321-.212-4.342-.427-5.261-1.106-.628-.464-1.548-.847-2.045-.85s-1.347-.265-1.889-.581c-.543-.316-1.608-.865-2.367-1.22-.76-.354-1.647-.902-1.973-1.218-.325-.315-1.568-1.287-2.761-2.159-2.436-1.781-5.565-5.029-6.359-6.598-.288-.571-.928-1.54-1.422-2.154-.494-.613-.898-1.434-.898-1.825s-.251-.919-.557-1.173c-1.048-.87-2.578-5.505-3.03-9.18-.248-2.018-.701-4.238-1.006-4.934-.535-1.219-1.253-6.891-2.237-17.67-.633-6.943-.294-98.419.368-99.249.243-.305.542-2.684.664-5.287.144-3.089.49-5.557.993-7.101.424-1.302.888-3.61 1.03-5.128.143-1.519.589-3.472.992-4.34.403-.867.937-2.229 1.187-3.025.249-.796.692-1.646.984-1.888.291-.242.641-1.031.776-1.753.136-.721.598-1.63 1.028-2.019.429-.389.781-.931.781-1.205 0-1.142 5.138-6.714 7.889-8.556.543-.363 1.745-1.197 2.672-1.853s2.525-1.401 3.55-1.655c1.026-.255 2.277-.729 2.78-1.053.503-.325 1.806-.731 2.895-.903 1.089-.173 2.792-.707 3.785-1.187 1.505-.729 2.665-.902 6.967-1.039 2.839-.091 5.251-.26 5.359-.375.225-.24 10.8.122 18.11.62m-92.565 2.448c2.024.922 1.918-4.497 1.907 97.143-.01 94.537-.015 95.14-.795 95.667-1.237.835-37.668.698-38.957-.147l-.915-.599v-68.432c0-37.638-.1-68.433-.222-68.433s-.699.443-1.282.985c-2.156 2.004-5.431 4.432-6.387 4.734-.541.171-1.675.901-2.519 1.622s-2.442 1.606-3.551 1.967c-1.108.36-2.295.899-2.638 1.196-.655.569-3.803.735-4.545.239-1.248-.833-1.341-2.111-1.341-18.376v-16.363l2.227-2.394c1.542-1.656 2.619-2.466 3.501-2.632 1.896-.355 12.174-9.594 13.412-12.055.367-.731 1.315-1.984 2.105-2.785 1.986-2.012 2.818-3.022 2.818-3.42 0-.187.442-.99.981-1.786.54-.795 1.096-1.929 1.235-2.52.288-1.226 1.941-3.168 3.11-3.655 1.211-.504 30.743-.463 31.856.044m75.763 101.999c-2.207 1.286-2.525 2.298-3.689 11.706-.618 5.004-.309 45.011.373 48.2 1.445 6.761 2.33 7.855 6.35 7.855 2.382 0 2.935-.127 3.382-.772.293-.424.761-1.031 1.04-1.349.459-.523 1.23-3.322 2.309-8.379.754-3.533.298-48.664-.516-51.004-.376-1.085-.782-2.63-.902-3.433-.48-3.239-5.007-4.77-8.347-2.824" fill="#fb0404"/><path d="m32.939 6.508c-6.208 1.168-10.58 3.514-16.178 8.679-3.626 3.346-8.146 11.227-8.929 15.567-.216 1.202-.647 2.945-.957 3.875-.484 1.454-.563 24.041-.563 161.189v159.498l.995 4.886c1.847 9.073 6.169 15.95 13.542 21.552 2.153 1.636 8.513 4.44 11.458 5.052 1.605.333 3.236.775 3.623.983 1.632.873 320.168.47 324.707-.411 2.231-.433 4.501-.789 5.043-.791.543-.001 1.519-.325 2.17-.72s1.718-.903 2.372-1.129c7.261-2.511 18.081-15.573 17.894-21.603l-.049-1.597-.262 1.593c-.245 1.488-2.464 6.246-4.592 9.844-2.194 3.712-10.159 10.399-13.62 11.436-.524.158-1.364.546-1.866.862-.501.317-3.252.921-6.114 1.344-6.56.968-323.856.998-328.082.031-3.379-.773-9.726-3.508-12.314-5.304-6.918-4.803-11.838-12.867-13.363-21.903-.837-4.958-1.161-318.193-.334-323.149.199-1.193.526-3.235.726-4.537 1.613-10.473 13.098-22.411 23.346-24.266 1.392-.252 3.172-.62 3.957-.818 3.459-.872 321.471-.435 326.715.45 11.362 1.917 19.939 9.05 24.64 20.492l1.053 2.565.209 165.286.209 165.286-.006-165.681c-.006-159.058-.035-165.744-.72-167.258-5.629-12.434-13.396-19.182-24.335-21.143-5.401-.968-325.257-1.123-330.375-.16m202.564 85.819c-5.958.415-16.627 3.13-19.684 5.01-5.735 3.527-8.794 6.297-11.75 10.64-2.878 4.23-5.758 12.063-6.412 17.441-.238 1.96-.624 4.054-.857 4.654-2.296 5.906-2.24 114.159.063 123.271.424 1.675.769 3.628.768 4.339s.264 2.091.588 3.068c.325.976.839 2.751 1.143 3.944 2.084 8.191 7.901 15.803 15.424 20.185 1.089.634 2.246 1.307 2.571 1.496.636.369 4.843 1.784 7.101 2.388.759.204 2.357.342 3.55.308l2.17-.061-1.973-.133c-1.802-.121-9.045-2.141-10.454-2.915-10.174-5.593-15.798-12.6-18.007-22.434-.315-1.401-.743-2.753-.951-3.005-.209-.251-.564-1.929-.79-3.728-.225-1.799-.669-4.389-.986-5.755-2.096-9.035-1.92-113.015.203-120.074.228-.759.594-2.82.813-4.579 2.766-22.247 16.824-33.029 43.801-33.592 14.347-.299 22.536.997 32.328 5.116 4.491 1.89 12.623 10.385 12.623 13.188 0 .287.426 1.635.947 2.996 1.499 3.912 2.291 6.975 2.629 10.165l.313 2.959-.105-3.353c-.058-1.844-.395-4.241-.75-5.326-.354-1.084-.916-2.815-1.247-3.846-1.917-5.953-2.043-6.186-5.907-10.904-2.028-2.476-3.532-3.81-5.9-5.235-2.255-1.356-9.175-3.862-12.662-4.586-1.085-.225-2.748-.607-3.695-.85-3.868-.991-16.339-1.388-24.905-.792m-102.797 3.142c-.819.525-1.832 1.979-3.088 4.431-1.028 2.008-2.651 4.627-3.606 5.82-.956 1.193-2.443 3.083-3.304 4.199-.862 1.116-2.763 3.069-4.224 4.339-1.462 1.271-3.024 2.673-3.471 3.116-1.659 1.646-4.464 3.732-5.773 4.292-.743.318-2.085 1.26-2.984 2.093l-1.633 1.515-.268 3.734c-.148 2.053-.212 9.385-.142 16.293l.126 12.559 1.064.915c1.524 1.31 6.014-.076 9.738-3.005.518-.407 1.165-.74 1.437-.74.643 0 4.944-3.171 7.335-5.408 1.783-1.668 1.888-1.711 2.298-.945.305.569.432 20.61.437 69.049l.009 68.246.862.604c.602.421 1.698.584 3.634.54l2.772-.064-2.761-.232c-1.519-.128-2.984-.376-3.255-.551-.391-.254-.493-14.47-.493-68.907 0-61.826-.061-68.649-.62-69.208-.87-.869-1.463-.776-2.566.405-1.349 1.446-6.86 5.609-8.156 6.162-.596.254-2.291 1.163-3.766 2.02-7.26 4.216-7.377 3.995-7.377-13.938 0-18.982-.271-17.801 4.69-20.479 6.129-3.31 16.337-14.335 20.644-22.295 2.734-5.053.943-4.677 21.91-4.605l11.545.04.782 1.282c.775 1.27.781 2.161.684 95.364l-.097 94.083-1.381.471c-1.204.411-1.253.474-.384.493.549.012 1.392-.254 1.874-.592l.877-.614v-93.837c0-57.521-.143-94.215-.37-94.812-1.027-2.7-.565-2.628-16.963-2.621-14.088.007-14.877.045-16.036.788m107.937 21.899c-5.076 2.283-5.848 6.663-6.178 35.053-.292 25.226-.459 24.552 4.983 20.14 5.967-4.839 8.672-6.012 16.365-7.101 5.822-.823 15.179-.03 17.002 1.442.236.19 1.18.611 2.097.935 5.342 1.884 11.077 8.749 13.564 16.236 3.054 9.192 4.716 41.31 2.845 54.98-.311 2.278-.548 5.296-.525 6.706.04 2.513.047 2.493.381-.986.187-1.952.518-4.515.735-5.694.653-3.538.507-35.415-.182-39.671-.316-1.952-.765-5.572-.997-8.042-.233-2.471-.748-5.312-1.147-6.312-.398-1.001-1.192-3.025-1.765-4.498-1.586-4.074-6.026-9.529-8.736-10.732-.656-.29-1.526-.898-1.935-1.35-.409-.451-.941-.821-1.181-.821-.241 0-1.112-.361-1.935-.802-3.505-1.879-12.87-3.106-16.913-2.216-1.584.348-4.178.833-5.763 1.076-3.937.605-6.915 2.149-12.045 6.246-4.249 3.392-3.987 4.395-4.121-15.787-.215-32.413 1.003-38.147 8.18-38.545 5.7-.315 7.882 4.86 7.903 18.745l.007 4.418 1.319 1.007 1.32 1.006h17.334c18.622 0 21.209-.296 20.716-2.371-.077-.323-.364-3.428-.638-6.899-.526-6.667-.72-4.656-.274 2.834l.262 4.412-1.335.637c-1.168.556-3.525.635-18.719.627l-17.382-.008-.959-.959c-.834-.835-.951-1.292-.903-3.533.339-15.6-4.09-23.451-11.38-20.173m-.604 77.256c-4.661 2.194-5.498 7.563-5.512 35.356-.016 30.95 1 35.184 8.595 35.794 4.223.339 6.894-2.602 8.04-8.855.795-4.342 1.192-44.326.503-50.805-1.162-10.943-4.912-14.649-11.626-11.49m7.625 1.22c3.224 2.913 3.618 6.566 3.618 33.569 0 27.889-.29 30.458-3.857 34.182-3.162 3.301-8.193 1.946-10.241-2.757-2.679-6.15-2.864-52.974-.242-61.309 1.561-4.964 7.172-6.893 10.722-3.685m42.747 54.488c-.041 1.104-.343 2.88-.669 3.945-.327 1.065-.788 3.179-1.026 4.697-.75 4.783-4.608 14.413-6.825 17.037-6.414 7.588-14.786 12.181-23.508 12.894-1.628.134-3.935.508-5.129.832-2.43.66-15.011.809-18.146.215-.976-.185-2.485-.449-3.353-.586l-1.577-.25 1.577.629c3.335 1.328 20.199 1.525 22.556.263.449-.24 2.701-.615 5.003-.833 2.775-.263 4.716-.666 5.754-1.196.862-.44 1.885-.803 2.273-.808 1.566-.019 10.371-5.086 10.371-5.968 0-.179.705-.77 1.567-1.314.861-.544 1.862-1.567 2.224-2.273.362-.707.777-1.373.922-1.482.542-.405 3.11-5.422 4.138-8.087.587-1.518 1.3-3.294 1.586-3.944.286-.651.638-2.249.783-3.551s.617-3.459 1.05-4.795c.55-1.697.745-3.181.646-4.931-.132-2.348-.145-2.378-.217-.494" fill="#f8585e"/><path d="m31.9 5.508c-7.618 1.607-13.94 5.807-19.724 13.105-1.571 1.983-4.561 8.408-5.564 11.959l-.892 3.156-.1 161.927c-.056 91.305.051 162.704.246 163.708 1.142 5.895 4.123 13.085 6.46 15.582.409.437 1.082 1.339 1.494 2.004.901 1.453 4.18 4.286 5.415 4.678.486.154 1.059.608 1.274 1.008.756 1.414 7.04 4.361 11.444 5.366l4.142.946 161.891.004 161.892.004 3.592-.84c8.37-1.957 17.357-7.534 19.83-12.307.318-.614 1.152-1.868 1.854-2.786.701-.919 1.844-3.097 2.54-4.84l1.264-3.169-.1-168.996-.101-168.995-1.118-2.17c-2.109-4.091-2.852-5.327-3.825-6.354-.536-.566-1.482-1.777-2.104-2.691-2.991-4.396-10.806-8.946-17.649-10.275-6.12-1.188-326.532-1.212-332.161-.024m331.414 1.16c11.077 1.986 19.709 9.643 24.502 21.734.463 1.17.547 26.928.547 168.639v167.259l-1.666 3.422c-3.951 8.116-10.602 14.985-16.475 17.016-.654.226-1.721.734-2.372 1.129s-1.627.719-2.17.72c-.542.002-2.812.358-5.043.791-4.539.881-323.075 1.284-324.707.411-.387-.208-2.018-.65-3.623-.983-2.945-.612-9.305-3.416-11.458-5.052-7.373-5.602-11.695-12.479-13.542-21.552l-.995-4.886v-159.498c0-137.148.079-159.735.563-161.189.31-.93.741-2.673.957-3.875 1.986-11.009 13.415-22.046 25.107-24.246 5.118-.963 324.974-.808 330.375.16m-129.783 86.449c-21.909 3.148-33.052 13.592-35.498 33.27-.219 1.759-.585 3.82-.813 4.579-2.123 7.059-2.299 111.039-.203 120.074.317 1.366.761 3.956.986 5.755.226 1.799.581 3.477.79 3.728.208.252.636 1.604.951 3.005 2.209 9.834 7.833 16.841 18.007 22.434 1.594.876 8.807 2.766 11.317 2.966 1.56.124 3.335.431 3.945.683 1.978.817 17.211.925 20.212.143 1.394-.363 3.791-.756 5.326-.875 8.486-.654 16.97-5.332 23.34-12.868 2.062-2.44 6.142-12.383 6.667-16.248.147-1.084.598-3.215 1.002-4.733.404-1.519.846-4.714.982-7.101s.5-6.373.809-8.859c1.812-14.574.179-45.803-2.875-54.997-2.487-7.487-8.222-14.352-13.564-16.236-.917-.324-1.861-.745-2.097-.935-1.823-1.472-11.18-2.265-17.002-1.442-7.693 1.089-10.398 2.262-16.365 7.101-5.442 4.412-5.275 5.086-4.983-20.14.338-29.067 1.18-33.42 6.829-35.285 7.104-2.344 11.06 5.179 10.729 20.405-.048 2.241.069 2.698.903 3.533l.959.959 17.417.008c16.028.009 17.522-.047 18.732-.7l1.314-.71-.489-8.481c-.505-8.746-.762-10.612-2.066-14.99-4.162-13.979-10.047-19.084-26.571-23.05-5.393-1.294-22.479-1.885-28.691-.993m21.485 1.194c16.193 1.244 28.205 8.512 31.208 18.88.35 1.206.793 2.385.985 2.619 2.004 2.441 3.881 21.98 2.304 23.985l-.813 1.033h-17.102-17.103l-.779-.99c-.573-.729-.728-1.382-.586-2.466.337-2.572-.578-12.763-1.357-15.107-1.971-5.926-7.153-8.55-11.835-5.993-3.358 1.834-4.353 3.503-5.701 9.566-.606 2.727-.89 49.413-.307 50.502.595 1.113 2.57.822 3.786-.557 1.652-1.875 6.14-5.434 7.374-5.847.694-.232 1.527-.65 1.853-.928 5.064-4.329 23.401-3.634 30.176 1.143 3.5 2.468 8.259 8.388 9.259 11.518.275.861.727 2.098 1.005 2.749 3.291 7.722 4.503 54.863 1.729 67.259-.413 1.844-.914 4.418-1.114 5.719-.199 1.302-.66 3.255-1.024 4.34-2.112 6.294-3.081 8.764-3.716 9.467-.391.434-.868 1.259-1.058 1.834-.393 1.187-6.049 7.828-6.668 7.83-.223 0-1.377.732-2.564 1.626-2.432 1.829-5.619 3.348-8.267 3.938-.98.219-2.137.628-2.571.91-.434.281-2.298.64-4.142.798-1.844.157-4.773.535-6.509.839-3.69.648-10.042.729-13.412.173-1.302-.215-4.231-.569-6.509-.786-7.606-.725-15.766-4.003-20.728-8.326-2.433-2.121-5.307-5.603-5.307-6.431 0-.261-.577-1.255-1.282-2.208-1.213-1.64-2.594-4.97-3.516-8.481-.229-.868-.655-2.11-.947-2.761-.293-.651-.724-2.87-.959-4.931s-.715-5.257-1.066-7.101c-1.159-6.086-1.241-104.328-.094-112.031.468-3.146.997-6.874 1.174-8.284 1.226-9.76 6.156-19.895 12.14-24.96 8.615-7.292 23.281-10.135 44.043-8.54m-118.192 1.125c-4.013.264-4.565.627-6.343 4.17-3.776 7.518-14.655 19.367-20.86 22.718-4.961 2.678-4.69 1.497-4.69 20.479 0 17.933.117 18.154 7.377 13.938 1.475-.857 3.17-1.766 3.766-2.02 1.296-.553 6.807-4.716 8.156-6.162 1.103-1.181 1.696-1.274 2.566-.405.559.559.62 7.382.62 69.217v68.597l.888.489c1.308.721 34.835.738 36.094.018l.888-.507-.001-93.97c-.002-92.983-.01-93.984-.784-95.252l-.781-1.282h-11.216c-6.169 0-11.453-.057-11.742-.127s-2.061-.025-3.938.099m20.684 1.424c5.722.283 5.755.29 6.18 1.318.516 1.251.406 187.169-.112 187.687-.368.368-33.989.461-34.356.094-.129-.129-.231-31.165-.228-68.97.007-78.252.275-72.33-3.204-70.867-.732.307-1.849 1.103-2.482 1.767-.633.665-1.876 1.696-2.761 2.292-.886.597-2.32 1.64-3.188 2.318-3.783 2.959-10.098 5.275-10.929 4.008-.746-1.139-.174-30.745.603-31.218 6.252-3.799 14.086-10.254 16.788-13.833.908-1.202 1.789-2.186 1.959-2.186s.611-.577.981-1.282c.369-.705 1.205-1.992 1.857-2.86s1.885-2.936 2.74-4.597c1.122-2.18 1.837-3.114 2.574-3.36 1.388-.462 16.496-.662 23.578-.311m83.282 95.676c-6.339 1.84-7.259 6.598-7.259 37.535 0 31.631.752 35.27 7.581 36.641 6.196 1.244 9.621-1.475 11.24-8.921.785-3.616 1.208-43.253.545-51.172-.984-11.76-4.803-16.202-12.107-14.083m6.382 1.961c4.342 2.684 4.966 7.557 4.769 37.258-.182 27.472-.464 29.427-4.738 32.887-3.083 2.496-8.163 1.202-10.212-2.601-3.181-5.904-3.655-53.082-.631-62.83 1.454-4.686 6.967-7.09 10.812-4.714" fill="#fc7a84"/><path d="m35.306 6.71c-.651.175-2.322.525-3.714.777-10.255 1.864-21.733 13.796-23.346 24.268-.2 1.302-.527 3.344-.726 4.537-.827 4.956-.503 318.191.334 323.149 1.525 9.036 6.445 17.1 13.363 21.903 2.588 1.796 8.935 4.531 12.314 5.304 4.226.967 321.522.937 328.082-.031 2.862-.423 5.613-1.027 6.114-1.344.502-.316 1.342-.704 1.866-.862 2.096-.628 6.871-4 9.699-6.849 3.211-3.235 3.829-4.139 6.768-9.909l1.908-3.748v-166.666-166.667l-.967-2.564c-4.298-11.393-13.246-18.948-24.737-20.887-5.045-.851-323.826-1.252-326.958-.411m325.817 1.233c4.428.359 5.708.597 6.358 1.184.448.404.982.735 1.187.735.643 0 4.257 2.037 5.521 3.112.665.567 1.948 1.474 2.849 2.016.901.543 1.644 1.174 1.65 1.403.019.779 2.093 2.936 2.821 2.936.471 0 .806.38.957 1.085.363 1.699.912 2.86 1.352 2.86.222 0 .403.172.403.383 0 .21.472 1.409 1.048 2.663.624 1.356 1.15 3.356 1.297 4.937.137 1.462.464 2.873.727 3.137.799.798.686 324.286-.114 326.553-.325.922-.591 2.185-.591 2.807s-.734 2.508-1.63 4.191c-.897 1.684-1.866 3.505-2.154 4.047-.818 1.543-7.367 8.233-8.869 9.061-3.541 1.951-7.121 3.564-7.94 3.575-.499.007-1.883.357-3.076.776-2.131.75-5.024.764-164.591.776l-162.422.013-3.061-.826c-3.062-.827-4.467-1.385-9.065-3.602-2.351-1.134-6.93-5.129-8.487-7.406-.372-.542-1.299-1.874-2.061-2.959-.762-1.084-1.388-2.152-1.392-2.372-.003-.22-.367-1.075-.809-1.899-.441-.824-1.196-3.218-1.676-5.319l-.874-3.822-.06-158.58c-.035-94.332.087-159.698.302-161.341.199-1.519.511-4.181.692-5.917.212-2.031.702-3.943 1.374-5.364.575-1.214 1.045-2.47 1.045-2.791s.444-1 .987-1.51c.542-.509.986-1.246.986-1.637s.443-1.002.986-1.358c.542-.355.986-.892.986-1.192 0-.301.152-.547.337-.547.186 0 1.562-1.173 3.058-2.608s3.43-2.941 4.297-3.348c.868-.407 1.845-.904 2.17-1.105 2.23-1.378 5.538-2.529 8.016-2.79 4.882-.514 321.095-.472 327.466.043m-122.07 83.297c-.108.115-2.52.284-5.359.375-4.302.137-5.462.31-6.967 1.039-.993.48-2.696 1.014-3.785 1.187-1.089.172-2.392.578-2.895.903-.503.324-1.754.798-2.78 1.053-1.025.254-2.623.999-3.55 1.655s-2.129 1.49-2.672 1.853c-2.751 1.842-7.889 7.414-7.889 8.556 0 .274-.352.816-.781 1.205-.43.389-.892 1.298-1.028 2.019-.135.722-.485 1.511-.776 1.753-.292.242-.735 1.092-.984 1.888-.25.796-.784 2.158-1.187 3.025-.403.868-.849 2.821-.992 4.34-.142 1.518-.606 3.826-1.03 5.128-.503 1.544-.849 4.012-.993 7.101-.122 2.603-.421 4.982-.664 5.287-.662.83-1.001 92.306-.368 99.249.984 10.779 1.702 16.451 2.237 17.67.305.696.758 2.916 1.006 4.934.452 3.675 1.982 8.31 3.03 9.18.306.254.557.782.557 1.173s.404 1.212.898 1.825c.494.614 1.134 1.583 1.422 2.154.794 1.569 3.923 4.817 6.359 6.598 1.193.872 2.436 1.844 2.761 2.159.326.316 1.213.864 1.973 1.218.759.355 1.824.904 2.367 1.22.542.316 1.392.578 1.889.581s1.417.386 2.045.85c.919.679 1.94.894 5.261 1.106 2.944.188 4.428.464 5.195.967 2.232 1.462 23.271 1.242 25.575-.268.514-.337 2.269-.641 4.321-.749 2.643-.139 3.709-.368 4.535-.976.594-.437 1.955-.913 3.023-1.059 1.069-.145 2.255-.545 2.636-.89.381-.344 1.221-.92 1.869-1.28.647-.359 1.902-1.057 2.788-1.549.887-.493 1.612-1.061 1.612-1.264 0-.202.623-.663 1.385-1.025 1.599-.759 3.381-2.864 4.522-5.343.438-.951 1.404-2.794 2.145-4.096.742-1.302 1.468-2.979 1.612-3.726.145-.748.58-1.763.967-2.255.445-.566.805-1.955.978-3.769.15-1.58.599-3.583.997-4.451.53-1.154.793-3.004.981-6.886.142-2.919.433-5.519.649-5.779 1.393-1.679 1.593-45.384.224-49.154-.371-1.023-.828-3.916-1.016-6.431-.226-3.039-.535-4.796-.921-5.242-.319-.368-.695-1.278-.836-2.02-.351-1.861-2.506-6.325-3.176-6.583-.302-.115-.749-.693-.993-1.282-.75-1.809-4.538-5.183-5.82-5.183-.778 0-1.234-.268-1.506-.886-.214-.486-.744-.948-1.178-1.025s-1.163-.485-1.62-.906c-.457-.42-1.522-.869-2.367-.995-.845-.127-2.586-.576-3.87-.998-3.154-1.035-11.557-1.115-15.023-.142-1.302.365-3.425.848-4.719 1.073-2.396.416-5.904 1.989-6.43 2.883-.16.272-.823.77-1.474 1.108-.651.337-1.94 1.346-2.865 2.242-1.285 1.245-1.735 1.49-1.908 1.039-.409-1.066.121-44.125.563-45.8.23-.867.624-2.465.876-3.55 1.475-6.344 11.026-6.344 11.026 0 0 .564.298 1.594.662 2.288.534 1.018.688 2.673.793 8.538.191 10.714-1.561 9.929 21.84 9.79 22.338-.131 20.885.407 20.45-7.581-.131-2.417-.449-5.031-.705-5.809-.257-.778-.611-3.91-.786-6.961-.219-3.805-.506-5.832-.912-6.456-.325-.5-.714-1.619-.864-2.487-.35-2.02-1.028-3.748-1.472-3.748-.191 0-.355-.399-.365-.887-.036-1.813-6.401-10.553-7.685-10.553-.235 0-1.029-.444-1.764-.986-.736-.542-1.63-.986-1.988-.986-.359 0-.961-.342-1.34-.76-.378-.418-1.371-.876-2.207-1.017-.836-.142-2.164-.585-2.951-.987-.788-.401-2.616-.856-4.064-1.011-1.614-.173-2.801-.512-3.067-.875-.319-.437-1.721-.681-5.327-.926-7.31-.498-17.885-.86-18.11-.62m13.859 1.063c3.175.206 6.548.573 7.496.816.947.243 2.61.625 3.695.85 3.487.724 10.407 3.23 12.662 4.586 4.172 2.51 9.126 8.33 10.548 12.392.615 1.759.908 2.651 2.495 7.593.389 1.213.901 5.698 1.329 11.638.383 5.315.759 9.929.835 10.252.489 2.075-2.096 2.371-20.717 2.371h-17.334l-1.32-1.006-1.319-1.007-.007-4.418c-.021-13.885-2.203-19.06-7.903-18.745-7.177.398-8.395 6.132-8.18 38.545.134 20.182-.128 19.179 4.121 15.787 5.13-4.097 8.108-5.641 12.045-6.246 1.585-.243 4.179-.728 5.763-1.076 4.043-.89 13.408.337 16.913 2.216.823.441 1.694.802 1.935.802.24 0 .772.37 1.181.821.409.452 1.279 1.06 1.935 1.35 2.71 1.203 7.15 6.658 8.736 10.732.573 1.473 1.367 3.497 1.765 4.498.399 1 .914 3.841 1.147 6.312.232 2.47.681 6.09.997 8.042.81 5.003.825 35.503.02 40.863-.306 2.042-.675 5.843-.82 8.447-.155 2.785-.566 5.708-.999 7.101-.405 1.301-.854 3.431-.999 4.733s-.497 2.9-.783 3.551c-.286.65-.999 2.426-1.586 3.944-1.028 2.665-3.596 7.682-4.138 8.087-.145.109-.56.775-.922 1.482-.362.706-1.363 1.729-2.224 2.273-.862.544-1.567 1.135-1.567 1.314 0 .882-8.805 5.949-10.371 5.968-.388.005-1.411.368-2.273.808-1.038.53-2.979.933-5.754 1.196-2.302.218-4.554.593-5.003.833-2.309 1.237-19.113 1.066-22.556-.228-.867-.326-2.554-.606-3.747-.62-1.193-.015-2.791-.193-3.55-.397-2.258-.604-6.465-2.019-7.101-2.388-.325-.189-1.482-.862-2.571-1.496-7.523-4.382-13.34-11.994-15.424-20.185-.304-1.193-.818-2.968-1.143-3.944-.324-.977-.589-2.357-.588-3.068s-.344-2.664-.768-4.339c-2.303-9.112-2.359-117.365-.063-123.271.233-.6.619-2.694.857-4.654.654-5.378 3.534-13.211 6.412-17.441 2.956-4.343 6.015-7.113 11.75-10.64 6.431-3.955 21.718-6.03 37.093-5.034m-120.17 1.961c-1.169.487-2.822 2.429-3.11 3.655-.139.591-.695 1.725-1.235 2.52-.539.796-.981 1.599-.981 1.786 0 .398-.832 1.408-2.818 3.42-.79.801-1.738 2.054-2.105 2.785-1.238 2.461-11.516 11.7-13.412 12.055-.882.166-1.959.976-3.501 2.632l-2.227 2.394v16.363c0 16.265.093 17.543 1.341 18.376.742.496 3.89.33 4.545-.239.343-.297 1.53-.836 2.638-1.196 1.109-.361 2.707-1.246 3.551-1.967s1.978-1.451 2.519-1.622c.956-.302 4.231-2.73 6.387-4.734.583-.542 1.16-.985 1.282-.985s.222 30.795.222 68.433v68.432l.915.599c1.289.845 37.72.982 38.957.147.78-.527.785-1.13.795-95.667.011-101.64.117-96.221-1.907-97.143-1.113-.507-30.645-.548-31.856-.044m31.705 1.237c.488.455 1.054 1.266 1.258 1.801.227.597.37 37.291.37 94.812v93.837l-.877.614c-1.31.918-36.37.928-37.679.011l-.862-.604-.009-68.246c-.005-48.439-.132-68.48-.437-69.049-.41-.766-.515-.723-2.298.945-2.391 2.237-6.692 5.408-7.335 5.408-.272 0-.919.333-1.437.74-3.724 2.929-8.214 4.315-9.738 3.005l-1.064-.915-.126-12.559c-.07-6.908-.006-14.24.142-16.293l.268-3.734 1.633-1.515c.899-.833 2.241-1.775 2.984-2.093 1.309-.56 4.114-2.646 5.773-4.292.447-.443 2.009-1.845 3.471-3.116 1.461-1.27 3.362-3.223 4.224-4.339.861-1.116 2.348-3.006 3.304-4.199.955-1.193 2.578-3.812 3.606-5.82 2.858-5.582 1.499-5.211 19.124-5.219 14.503-.006 14.836.011 15.705.82m75.953 99.537c-4.384 1.909-5.469 9.779-5.201 37.704.254 26.481.919 30.042 6 32.165 4.744 1.982 8.303-1.539 9.465-9.364.738-4.973.912-46.019.216-50.931-1.255-8.848-4.77-12.06-10.48-9.574m6.311 1.43c1.442.973 1.822 1.479 1.997 2.663.12.803.526 2.348.902 3.433.814 2.34 1.27 47.471.516 51.004-1.079 5.057-1.85 7.856-2.309 8.379-.279.318-.747.925-1.04 1.349-1.04 1.502-5.955 1.109-7.34-.587-2.591-3.175-2.878-6.007-3.046-30.041-.142-20.292-.038-23.275 1.059-30.382.984-6.379 4.841-8.801 9.261-5.818" fill="#f83137"/></g></svg>