<svg height="390.566038" viewBox="0 0 400 390.56603774" width="400" xmlns="http://www.w3.org/2000/svg"><g fill-rule="evenodd"><path d="m0 195.313v195.312h200 200v-195.312-195.313h-13.086c-13.365 0-15.427.254-12.012 1.481 2.985 1.073 12.598 11.266 12.598 13.359 0 .379.242.89.537 1.135.296.245.768 1.278 1.049 2.294.281 1.017.831 2.579 1.222 3.471.685 1.562.708 7.822.612 167.774l-.1 166.15-.887 2.539c-.488 1.397-1.199 2.979-1.582 3.516-.382.537-.902 1.69-1.157 2.562-.479 1.644-2.2 3.804-6.021 7.557-4.783 4.698-6.527 5.782-12.423 7.72-.967.318-2.373.873-3.125 1.233-1.568.75-322.365 1.238-329.526.501-3.329-.343-7.617-1.582-10.122-2.925-.645-.345-1.365-.629-1.6-.63-.235-.002-.742-.35-1.126-.774s-1.07-.879-1.525-1.012c-1.853-.538-10.268-9.288-10.871-11.303-.257-.859-.782-2.089-1.168-2.734-.385-.644-.7-1.401-.701-1.682-.001-.28-.397-1.335-.881-2.343l-.878-1.834v-166.797c0-155.416.044-166.877.655-167.969.361-.644.854-2.038 1.097-3.096.615-2.68 3.03-6.644 5.861-9.621 1.316-1.384 2.837-3.096 3.379-3.803.567-.74 1.476-1.384 2.14-1.517.634-.126 1.367-.531 1.628-.898s.869-.877 1.353-1.134c2.025-1.074.683-1.22-11.231-1.22h-12.109zm236.914-100.443c-2.621.175-4.228.474-4.883.909-.537.356-1.679.77-2.539.919-.859.15-2.09.582-2.734.961-.645.379-1.612.821-2.149.983-.537.161-1.473.708-2.08 1.216-.608.508-1.269.923-1.469.923-3.192 0-11.439 10.416-12.835 16.211-.259 1.074-.732 2.243-1.051 2.596-.32.354-.747 1.814-.949 3.245-.203 1.432-.636 3.12-.964 3.753-.421.814-.708 3.343-.985 8.669-.215 4.135-.605 8.046-.868 8.69-.706 1.732-.683 87.696.025 95.118 1.502 15.732 2.694 23.022 4.087 24.989.376.531.689 1.41.696 1.953.006.543.274 1.333.593 1.756.32.423.771 1.472 1.002 2.33.231.859.755 1.987 1.164 2.507.409.519.744 1.164.744 1.432s.614.955 1.364 1.527 1.469 1.457 1.596 1.966c.133.528.722 1.129 1.371 1.397.625.26 1.138.63 1.138.823 0 .194.436.551.969.793.533.243 1.066.748 1.185 1.123.128.403.791.789 1.623.945.774.145 1.867.587 2.428.983.562.395 2.779 1.278 4.927 1.962 2.149.685 4.434 1.483 5.078 1.774.645.291 2.403.637 3.907.768 1.504.132 4.724.602 7.157 1.044 4.387.798 5.352.793 10.03-.049 1.289-.232 4.413-.594 6.943-.805 2.912-.243 4.936-.605 5.519-.987.507-.332 2.038-.784 3.404-1.003 1.366-.22 2.768-.657 3.115-.972.347-.314 1.623-.779 2.836-1.033 1.479-.31 2.276-.687 2.421-1.143.119-.375.546-.786.949-.914s1.404-.903 2.226-1.722c.821-.82 1.892-1.616 2.379-1.769.487-.154 1.242-.978 1.678-1.832.435-.855 1.041-1.649 1.345-1.766.305-.117.667-.591.805-1.055s1.023-2.177 1.968-3.807c.944-1.63 1.717-3.222 1.717-3.537 0-.316.439-1.169.976-1.897.652-.883.983-1.852.994-2.908.01-.872.283-2.288.608-3.147s.828-3.32 1.119-5.469c.29-2.148.849-6.015 1.241-8.593.896-5.887 1.133-98.897.257-101.271-.351-.955-.363-1.869-.045-3.672.369-2.096.32-2.729-.387-4.979-.445-1.418-.927-3.808-1.07-5.31-.143-1.503-.498-3.349-.788-4.102-.291-.753-.7-2.661-.909-4.239s-.656-3.174-.993-3.546c-.337-.373-.612-.822-.612-1 0-.664-2.095-4.736-2.984-5.798-.507-.607-.923-1.342-.923-1.632 0-.291-.225-.761-.501-1.045s-.932-1.131-1.459-1.883c-1.296-1.848-5.675-5.469-6.615-5.469-.208 0-.693-.33-1.078-.733-.384-.404-1.686-1.017-2.893-1.363-1.208-.347-2.396-.872-2.641-1.168-.246-.295-1.192-.639-2.103-.764-.912-.125-2.536-.616-3.609-1.09-2.107-.932-21.008-1.424-30.468-.793m-95.821 2.27c-.623.25-2.801 3.576-4.43 6.766-.437.856-1.494 2.297-3.16 4.309-.272.329-.73 1.049-1.017 1.6-.786 1.507-4.384 5.084-8.602 8.549-2.072 1.702-4.081 3.371-4.466 3.709-.384.338-1.131.811-1.66 1.052s-.961.559-.961.707c0 .147-.688.578-1.529.957-2.047.924-1.975.289-1.981 17.473-.006 15.932.026 16.197 1.774 14.822.545-.429 1.507-.893 2.137-1.032.63-.138 2.279-.985 3.664-1.882 1.386-.897 3.367-2.148 4.403-2.78 1.963-1.198 2.145-1.347 5.502-4.523 2.24-2.12 3.04-2.335 4.444-1.198l.922.746.102 69.078c.097 65.075.142 69.107.782 69.584 1.014.757 32.501.511 33.431-.262.597-.495.646-7.51.646-93.209v-92.673l-.81-1.029-.809-1.029-13.937.031c-7.665.017-14.165.122-14.445.234m113.498 18.934c2.261 1.361 4.057 3.633 4.687 5.926.305 1.113.759 2.727 1.01 3.586.337 1.16.454 17.961.454 65.234v63.672l-1.1 4.102c-1.897 7.066-3.027 8.008-9.613 8.008-6.963 0-8.824-2.015-9.264-10.03-.121-2.218-.466-4.9-.766-5.959-.814-2.873-.811-112.993.003-117.847.302-1.801.666-4.768.809-6.594.698-8.919 7.483-13.891 13.78-10.098" fill="#f9fbfb"/><path d="m30.659.854c-.234.518-1.076 1.078-2.143 1.425-.967.315-1.852.715-1.967.889-.115.175-.832.578-1.594.896-.761.318-1.612.852-1.889 1.187-.278.335-.744.608-1.035.608s-.812.433-1.159.962c-.346.528-.968 1.069-1.382 1.2s-1.089.885-1.5 1.675c-.41.79-1.392 1.942-2.182 2.56s-1.699 1.76-2.02 2.539c-.322.779-.804 1.68-1.072 2.002-1.163 1.4-2.46 5.772-2.707 9.124-.27 3.675-.302 321.317-.033 327.556.13 2.999.297 3.801.916 4.377.416.388.874 1.238 1.017 1.89.143.651.425 1.286.627 1.411s.63.856.951 1.626c.322.77 1.286 2.16 2.143 3.09.857.929 1.558 1.896 1.558 2.147 0 .566 2.54 3.076 3.114 3.076.23 0 .602.395.828.879.251.539 1.543 1.405 3.34 2.24 1.612.748 3.108 1.575 3.325 1.836.216.261 1.214.591 2.217.732s2.263.545 2.801.898c1.944 1.277 328.929 1.607 330.872.334.531-.348 2.283-.835 3.894-1.082s3.143-.624 3.405-.837c.837-.682 4.88-3.047 5.209-3.047.174 0 .426-.343.558-.761.133-.419.576-.868.983-.997.408-.129.842-.553.966-.941.123-.388.554-.862.959-1.054.975-.462 3.852-4.158 4.565-5.864.312-.745.813-1.449 1.114-1.565.302-.116.742-1.112.978-2.213.236-1.102.665-2.274.954-2.605.98-1.125 1.026-8.574 1.053-167.399.026-161.487-.019-167.594-1.238-169.335-.376-.538-.793-1.619-.926-2.404-.155-.911-.592-1.656-1.209-2.06-.531-.348-.966-.804-.966-1.014 0-.209-.693-1.095-1.54-1.968s-1.739-2.191-1.983-2.93-.592-1.343-.773-1.343-1.441-.943-2.801-2.095c-2.867-2.428-3.821-2.983-5.125-2.983-1.182 0-3.012-1.65-3.012-2.716v-.8h-168.853-168.852zm233.794 91.375c5.121.967 7.699 1.64 8.876 2.319.692.398 1.868.839 2.614.979.745.14 1.927.676 2.626 1.192.699.515 1.456.94 1.683.944.52.009 3.205 1.839 4.581 3.121.574.536 1.598 1.394 2.275 1.906 1.144.867 2.494 2.614 3.908 5.058.322.557.801 1.247 1.064 1.533.262.286.665 1.215.893 2.065.229.849.568 1.545.754 1.545.412 0 1.195 2.152 1.195 3.286 0 .455.364 1.506.809 2.337.492.917 1.01 3.064 1.319 5.463.279 2.174.794 4.722 1.143 5.662.462 1.243.636 3.055.638 6.641.001 3.351.169 5.251.524 5.931 1.315 2.52 1.667 89.202.389 95.817-.338 1.751-.74 5.908-.893 9.238-.236 5.145-.406 6.288-1.127 7.611-.698 1.28-.849 2.199-.849 5.167 0 3.419-.051 3.644-.977 4.25-.754.494-.976.973-.976 2.104 0 .845-.312 1.863-.738 2.403-.405.516-.918 1.592-1.138 2.39-.221.799-.768 1.919-1.216 2.488-.448.57-.814 1.203-.814 1.407 0 1.177-8.824 10.07-9.992 10.07-.702 0-2.585.854-3.219 1.46-.284.271-.987.594-1.563.718s-1.928.651-3.005 1.172c-1.078.521-2.346.947-2.818.947s-1.788.39-2.924.866c-3.221 1.35-30.379 1.365-34.292.018-1.396-.481-2.908-.876-3.36-.879-.451-.003-1.594-.415-2.539-.916-.945-.5-2.319-1.029-3.053-1.175-1.832-.363-5.585-2.222-6.207-3.074-.28-.384-.772-.699-1.092-.699-.613 0-1.062-.416-4.354-4.038-1.128-1.24-2.051-2.488-2.051-2.772s-.255-.728-.567-.987c-.933-.774-2.814-4.402-3.108-5.993-.151-.817-.524-1.581-.828-1.698-.305-.117-.663-.855-.796-1.64-.134-.785-.579-1.904-.989-2.487-.535-.76-.838-2.15-1.072-4.91-.263-3.117-.502-4.089-1.252-5.103-.869-1.176-.931-1.62-1.005-7.2-.043-3.27-.248-7.44-.456-9.266-.507-4.472-.555-87.604-.053-92.969.211-2.256.541-6.211.733-8.789.34-4.558.783-6.83 1.513-7.753.196-.247.451-1.944.567-3.77.209-3.294 1.635-8.041 2.816-9.375.285-.323.726-1.377.981-2.344s.704-2.028.998-2.358.808-1.209 1.142-1.953c.826-1.842 1.475-2.854 2.076-3.237.278-.177 1.069-.954 1.758-1.726 2.14-2.4 3.496-3.617 4.03-3.617.282 0 .827-.328 1.212-.729.384-.401 1.374-.948 2.201-1.215 1.298-.419 1.477-.615 1.318-1.447-.234-1.222 1.326-1.97 2.753-1.319 1.404.639 2.031.516 4.973-.974 2.04-1.034 3.578-1.49 6.055-1.796 1.826-.225 3.381-.467 3.455-.538.324-.309 23.512.272 25.451.638m-100.211 2.086c.421.102 1.973-.021 3.45-.275 2.619-.449 2.701-.437 3.38.462.383.508 1.165 1.117 1.738 1.355l1.041.432-.015 94.922-.016 94.922-.87.657c-1.432 1.083-2.875 1.166-20.197 1.163-19.004-.003-19.753-.121-19.519-3.066.048-.604.06-31.39.028-68.413l-.059-67.315-1.011 1.202c-.604.717-1.383 1.202-1.934 1.202-.507 0-1.063.248-1.235.551-.351.62-4.21 3.355-4.734 3.355-.187 0-.649.341-1.027.759-.378.417-1.233.879-1.9 1.026-.668.146-1.693.62-2.279 1.053-.621.46-1.928.867-3.14.978-1.358.124-2.327.453-2.801.95-.718.752-.736.751-1.661-.118l-.934-.878v-15.479c0-9.407-.148-15.626-.376-15.855-.855-.855 1.916-5.623 3.281-5.646.394-.007 3.025-1.624 4.712-2.895 2.61-1.968 7.113-5.666 7.567-6.216.295-.356.867-.648 1.27-.648.482 0 .733-.278.733-.812 0-.447.879-1.823 1.954-3.058 1.074-1.235 1.953-2.445 1.953-2.69 0-.244.351-.632.781-.862s.781-.615.781-.856c0-.24.44-1.013.977-1.718.537-.704.985-1.511.995-1.794.048-1.348 2.239-4.644 3.768-5.667l1.637-1.098 11.449.092c6.296.051 11.792.176 12.213.278m82.651 24.747c-1.134.559-1.508 1.102-2.344 3.407-.547 1.509-1.299 3.188-1.672 3.732-1.043 1.521-.871 130.332.176 131.489.369.407.858 1.612 1.087 2.678.575 2.672.808 2.939 2.979 3.403 3.063.656 6.619.222 7.214-.88.174-.323 1.036-2.103 1.915-3.956l1.599-3.37-.118-64.013-.117-64.013-.918-3.093c-1.593-5.366-5.491-7.508-9.801-5.384" fill="#049ce2"/><path d="m26.563.539c0 .296-.572.767-1.27 1.046-.698.28-1.929 1.092-2.736 1.805-.806.714-1.647 1.298-1.868 1.298-2.151 0-10.024 10.854-11.191 15.429-.329 1.289-.799 2.591-1.044 2.892-.333.409-.472 42.522-.547 165.434l-.101 164.886 1.126 3.316c3.847 11.33 10.181 18.027 20.853 22.043 4.944 1.861.961 1.822 171.582 1.695l161.328-.12 2.93-.833c9.662-2.747 18.91-10.118 21.129-16.841.263-.799.891-2.226 1.394-3.173.503-.946.921-2.177.928-2.736.008-.559.265-1.455.572-1.992.766-1.339.88-330.38.115-331.764-.259-.47-.765-1.645-1.125-2.611-1.482-3.985-2.374-5.982-3.198-7.155-2.785-3.965-9.374-10.054-12.295-11.362-.914-.408-1.661-.98-1.661-1.269 0-.29-.263-.527-.586-.527-.322 0-.585.254-.586.564 0 .679 1.48 1.78 2.392 1.78.638 0 6.155 4.251 7.418 5.715.347.401 1.401 1.525 2.344 2.498.942.972 1.963 2.246 2.268 2.832.305.585.694 1.064.864 1.064s.566.864.879 1.92c.314 1.055.833 2.33 1.155 2.832 2.163 3.379 2.016-8.996 2.016 169.858 0 178.82.147 166.479-2.012 169.851-.319.498-.807 1.658-1.083 2.578-.277.919-1.193 2.62-2.037 3.781-.843 1.16-1.833 2.584-2.2 3.164-1.553 2.455-9.677 8.226-12.882 9.152-1.021.295-2.779.799-3.907 1.121-1.881.538-319.929.938-330.566.417-2.72-.134-6.916-1.524-9.18-3.041-.537-.36-1.813-1.025-2.836-1.477-1.023-.451-2.123-1.222-2.444-1.713-.321-.49-1.009-1.119-1.528-1.397-.519-.277-1.518-1.317-2.22-2.31-.703-.994-2.035-2.66-2.961-3.704-.925-1.044-1.683-2.124-1.683-2.402 0-.277-.528-1.508-1.174-2.736-2.736-5.201-2.487 10.801-2.635-169.136-.096-116.242-.013-162.773.294-164.453.235-1.289.713-3.556 1.061-5.037 1.359-5.771 6.991-13.611 11.925-16.599.804-.487 1.595-1.1 1.757-1.363.163-.262 1.307-.965 2.542-1.561 2.223-1.073 2.973-2.198 1.465-2.198-.43 0-.781.242-.781.539m211.419 92.444c-.487.196-2.218.522-3.846.724-2.009.249-3.231.614-3.802 1.135-.465.424-1.891.952-3.186 1.178-1.289.225-3.378.993-4.643 1.707-1.265.713-3.235 1.824-4.377 2.468-1.875 1.059-7.174 6.275-7.202 7.09-.006.183-.713 1.387-1.571 2.676s-1.732 3.047-1.942 3.906c-.211.86-.718 2.184-1.127 2.944s-.871 2.254-1.027 3.32c-.155 1.067-.539 2.444-.852 3.062-.314.617-.816 2.871-1.116 5.008-.3 2.138-.636 4.034-.748 4.214-.218.353-.39 2.548-.979 12.507-.914 15.453-.33 96.426.743 103.125.19 1.182.622 3.994.962 6.25s.974 5.108 1.409 6.338.791 2.571.791 2.98c0 1.528 4.78 11.369 6.729 13.852 2.95 3.76 9.683 8.364 13.801 9.436 1.236.322 2.966.927 3.846 1.344.882.417 2.996.882 4.708 1.035 1.709.153 3.701.526 4.426.829 2.038.851 19.228.871 21.373.024.859-.339 2.932-.706 4.606-.816 2.055-.134 3.474-.453 4.37-.981.729-.431 2.172-.904 3.206-1.052s2.407-.583 3.052-.968c.644-.385 1.875-.887 2.734-1.117.86-.229 2.442-1.129 3.516-1.998 4.048-3.277 5.273-4.408 5.273-4.863 0-.258.457-.896 1.014-1.416.558-.521 1.466-1.738 2.019-2.705s1.218-2.022 1.476-2.344c.259-.322.694-1.289.968-2.148.273-.86.808-1.964 1.188-2.453.381-.49.817-1.63.97-2.534s.527-2.349.832-3.211c.305-.863.707-3.173.893-5.135.197-2.077.631-4.117 1.039-4.883 2.232-4.193 2.319-114.817.093-119.284-.507-1.019-.895-2.922-1.114-5.469-.184-2.149-.537-4.434-.784-5.078-.247-.645-.627-2.139-.845-3.321-.217-1.181-.639-2.42-.937-2.753-.297-.333-.808-1.361-1.133-2.285-1.797-5.09-7.299-11.741-11.382-13.755-.838-.413-2.051-1.036-2.695-1.383-2.874-1.55-4.051-2.043-5.491-2.3-.847-.151-2.089-.605-2.759-1.009s-2.077-.837-3.125-.963c-1.049-.126-2.569-.477-3.379-.781-1.713-.642-24.423-.77-25.975-.147m26.666 1.139c3.993.75 8.947 2.28 10.803 3.335.57.325 1.392.59 1.825.59.434 0 1.311.439 1.95.976.638.538 1.34.977 1.56.977 3.441 0 12.53 13.221 13.763 20.021.242 1.331.6 2.72.797 3.088s.529 2.317.738 4.332.685 4.355 1.059 5.201c.918 2.078.943 3.232 1.168 53.296.199 44.453-.127 61.531-1.225 64.161-.297.709-.732 3.015-.967 5.124s-.584 4.126-.775 4.483-.542 1.701-.779 2.986c-.502 2.717-4.472 10.86-6.501 13.337-.74.903-1.345 1.829-1.345 2.058 0 .23-.595.815-1.322 1.302-.727.486-2.535 1.873-4.019 3.081-1.484 1.209-3.303 2.33-4.044 2.493-.74.163-1.702.529-2.138.815-.435.285-2.005.8-3.489 1.144-1.483.344-3.158.864-3.723 1.156-.564.292-2.337.653-3.939.802s-3.967.512-5.256.807c-3.235.74-15.151.736-18.108-.006-1.212-.304-3.347-.676-4.743-.827-4.833-.52-15.505-4.583-17.574-6.688-.389-.397-1.579-1.336-2.644-2.088s-2.225-1.807-2.577-2.344-1.166-1.767-1.809-2.734c-2.113-3.176-4.945-9.721-5.727-13.234-.305-1.37-.709-2.78-.898-3.132-.332-.621-1.545-10.051-2.359-18.343-.507-5.164-.509-95.242-.002-97.713.198-.967.548-4.277.778-7.356.231-3.078.667-6.77.97-8.203.908-4.29 2.158-8.691 2.721-9.582.29-.459.655-1.451.811-2.203 1.477-7.149 12.557-17.51 20.224-18.912.816-.149 2.292-.701 3.28-1.226 1.182-.628 2.479-.967 3.789-.99 1.096-.018 2.872-.171 3.946-.338 4.277-.666 21.622-.428 25.781.354m-125.449 2.147c-.851.37-1.309.893-1.485 1.695-.14.637-.685 1.742-1.211 2.454-.526.713-.956 1.514-.956 1.781 0 .452-2.656 4.177-5.534 7.762-2.625 3.271-8.097 8.136-11.987 10.658-2.224 1.443-4.666 3.163-5.425 3.823l-1.38 1.199.076 16.574c.042 9.116.208 16.708.37 16.871.414.418 4.312-.378 5.427-1.109.511-.335 1.664-.83 2.562-1.101.898-.27 3.279-1.62 5.29-3s4.234-2.895 4.939-3.367c.706-.473 1.666-1.397 2.134-2.054 2.099-2.948 1.999-6.408 1.982 68.455l-.016 69.01.906.594c1.266.829 36.045.92 36.869.096.428-.427.518-17.073.516-95.208l-.002-94.69-.883-.491c-1.335-.741-30.477-.698-32.192.048m32.031.556c.996.828.996 188.335-.001 189.162-1.187.987-34.113.983-35.331-.003l-.937-.759-.064-68.877c-.075-80.291.541-71.808-4.88-67.124-1.781 1.54-3.771 3.069-4.421 3.399-.65.329-1.996 1.176-2.99 1.883-1.572 1.116-4.222 2.387-7.794 3.737-.664.251-1.365.246-2.051-.015l-1.042-.396.001-15.342c.002-17.475-.097-16.92 3.363-18.965 5.939-3.51 12.953-9.799 17.198-15.419 2.771-3.67 3.494-4.812 5.926-9.365.586-1.097 1.394-1.998 1.994-2.224 1.685-.634 30.236-.35 31.029.308m75.827 20.128c-1.279.558-3.698 2.788-3.698 3.411 0 .21-.378 1.207-.84 2.216-.629 1.374-.921 3.059-1.163 6.717-.425 6.438-.393 116.918.036 124.219.578 9.845 2.293 12.304 8.578 12.304 6.278 0 8.366-2.761 9.11-12.046 1.105-13.784.681-125.168-.494-130.048-1.348-5.596-6.833-8.818-11.529-6.773m7.371 1.579c4.467 3.408 4.228-.928 4.09 74.247l-.12 65.24-1.362 2.656c-1.841 3.59-3.827 4.953-7.201 4.943-3.261-.011-5.858-1.566-6.207-3.718-.129-.797-.541-1.788-.916-2.202-1.106-1.223-1.245-8.767-1.245-67.901 0-59.164.138-66.678 1.247-67.903.376-.415.867-1.435 1.091-2.266 1.154-4.269 6.892-5.942 10.623-3.096" fill="#52c1e7"/><path d="m28.125.557c0 .307-1.011 1.045-2.246 1.641s-2.379 1.299-2.542 1.561c-.162.263-.953.876-1.757 1.363-4.934 2.988-10.566 10.828-11.925 16.599-.348 1.481-.826 3.748-1.061 5.037-.307 1.68-.39 48.211-.294 164.453.148 179.937-.101 163.935 2.635 169.136.646 1.228 1.174 2.459 1.174 2.736 0 .278.758 1.358 1.683 2.402.926 1.044 2.258 2.71 2.961 3.704.702.993 1.701 2.033 2.22 2.31.519.278 1.207.907 1.528 1.397.321.491 1.421 1.262 2.444 1.713 1.023.452 2.299 1.117 2.836 1.477 2.264 1.517 6.46 2.907 9.18 3.041 10.637.521 328.685.121 330.566-.417 1.128-.322 2.886-.826 3.907-1.121 3.205-.926 11.329-6.697 12.882-9.152.367-.58 1.357-2.004 2.2-3.164.844-1.161 1.76-2.862 2.037-3.781.276-.92.764-2.08 1.083-2.578 2.159-3.372 2.012 8.969 2.012-169.851 0-178.854.147-166.479-2.016-169.858-.322-.502-.841-1.777-1.155-2.832-.313-1.056-.709-1.92-.879-1.92s-.559-.479-.864-1.064c-.305-.586-1.326-1.86-2.268-2.832-.943-.973-1.997-2.095-2.344-2.494-1.472-1.695-6.349-5.367-7.728-5.817-.871-.284-1.657-.855-1.881-1.367-.491-1.119-1.763-1.176-1.763-.079 0 1.066 1.83 2.716 3.012 2.716 1.304 0 2.258.555 5.125 2.983 1.36 1.152 2.62 2.095 2.801 2.095s.529.604.773 1.343 1.136 2.057 1.983 2.93 1.54 1.759 1.54 1.968c0 .21.435.666.966 1.014.617.404 1.054 1.149 1.209 2.06.133.785.55 1.866.926 2.404 1.219 1.741 1.264 7.848 1.238 169.335-.027 158.825-.073 166.274-1.053 167.399-.289.331-.718 1.503-.954 2.605-.236 1.101-.676 2.097-.978 2.213-.301.116-.802.82-1.114 1.565-.713 1.706-3.59 5.402-4.565 5.864-.405.192-.836.666-.959 1.054-.124.388-.558.812-.966.941-.407.129-.85.578-.983.997-.132.418-.384.761-.558.761-.329 0-4.372 2.365-5.209 3.047-.262.213-1.794.59-3.405.837s-3.363.734-3.894 1.082c-1.943 1.273-328.928.943-330.872-.334-.538-.353-1.798-.757-2.801-.898s-2.001-.471-2.217-.732c-.217-.261-1.713-1.088-3.325-1.836-1.797-.835-3.089-1.701-3.34-2.24-.226-.484-.598-.879-.828-.879-.574 0-3.114-2.51-3.114-3.076 0-.251-.701-1.218-1.558-2.147-.857-.93-1.821-2.32-2.143-3.09-.321-.77-.749-1.501-.951-1.626s-.484-.76-.627-1.411c-.143-.652-.601-1.502-1.017-1.89-.619-.576-.786-1.378-.916-4.377-.269-6.239-.237-323.881.033-327.556.247-3.352 1.544-7.724 2.707-9.124.268-.322.75-1.223 1.072-2.002.321-.779 1.23-1.921 2.02-2.539s1.772-1.77 2.182-2.56c.411-.79 1.086-1.544 1.5-1.675s1.036-.672 1.382-1.2c.347-.529.868-.962 1.159-.962s.761-.278 1.044-.619c.282-.341 1.183-.887 2.001-1.214.817-.327 1.487-.724 1.487-.882 0-.157.747-.508 1.66-.779 2.94-.872 3.741-2.365 1.269-2.365-.923 0-1.367.181-1.367.557m210.877 91.034c-.074.071-1.629.313-3.455.538-2.477.306-4.015.762-6.055 1.796-2.942 1.49-3.569 1.613-4.973.974-1.427-.651-2.987.097-2.753 1.319.159.832-.02 1.028-1.318 1.447-.827.267-1.817.814-2.201 1.215-.385.401-.93.729-1.212.729-.534 0-1.89 1.217-4.03 3.617-.689.772-1.48 1.549-1.758 1.726-.601.383-1.25 1.395-2.076 3.237-.334.744-.848 1.623-1.142 1.953s-.743 1.391-.998 2.358-.696 2.021-.981 2.344c-1.181 1.334-2.607 6.081-2.816 9.375-.116 1.826-.371 3.523-.567 3.77-.73.923-1.173 3.195-1.513 7.753-.192 2.578-.522 6.533-.733 8.789-.502 5.365-.454 88.497.053 92.969.208 1.826.413 5.996.456 9.266.074 5.58.136 6.024 1.005 7.2.75 1.014.989 1.986 1.252 5.103.234 2.76.537 4.15 1.072 4.91.41.583.855 1.702.989 2.487.133.785.491 1.523.796 1.64.304.117.677.881.828 1.698.294 1.591 2.175 5.219 3.108 5.993.312.259.567.703.567.987s.923 1.532 2.051 2.772c3.292 3.622 3.741 4.038 4.354 4.038.32 0 .812.315 1.092.699.622.852 4.375 2.711 6.207 3.074.734.146 2.108.675 3.053 1.175.945.501 2.088.913 2.539.916.452.003 1.964.398 3.36.879 3.913 1.347 31.071 1.332 34.292-.018 1.136-.476 2.452-.866 2.924-.866s1.74-.426 2.818-.947c1.077-.521 2.429-1.048 3.005-1.172s1.279-.447 1.563-.718c.634-.606 2.517-1.46 3.219-1.46 1.168 0 9.992-8.893 9.992-10.07 0-.204.366-.837.814-1.407.448-.569.995-1.689 1.216-2.488.22-.798.733-1.874 1.138-2.39.426-.54.738-1.558.738-2.403 0-1.131.222-1.61.976-2.104.926-.606.977-.831.977-4.25 0-2.968.151-3.887.849-5.167.721-1.323.891-2.466 1.127-7.611.153-3.33.555-7.487.893-9.238 1.278-6.615.926-93.297-.389-95.817-.355-.68-.523-2.58-.524-5.931-.002-3.586-.176-5.398-.638-6.641-.349-.94-.864-3.488-1.143-5.662-.309-2.399-.827-4.546-1.319-5.463-.445-.831-.809-1.882-.809-2.337 0-1.134-.783-3.286-1.195-3.286-.186 0-.525-.696-.754-1.545-.228-.85-.631-1.779-.893-2.065-.263-.286-.742-.976-1.064-1.533-1.414-2.444-2.764-4.191-3.908-5.058-.677-.512-1.701-1.37-2.275-1.906-1.376-1.282-4.061-3.112-4.581-3.121-.227-.004-.984-.429-1.683-.944-.699-.516-1.881-1.052-2.626-1.192-.746-.14-1.922-.581-2.614-.979-1.177-.679-3.755-1.352-8.876-2.319-1.939-.366-25.127-.947-25.451-.638m24.955 1.539c.81.304 2.33.655 3.379.781 1.048.126 2.455.559 3.125.963s1.912.858 2.759 1.009c1.44.257 2.617.75 5.491 2.3.644.347 1.857.97 2.695 1.383 4.083 2.014 9.585 8.665 11.382 13.755.325.924.836 1.952 1.133 2.285.298.333.72 1.572.937 2.753.218 1.182.598 2.676.845 3.321.247.644.6 2.929.784 5.078.219 2.547.607 4.45 1.114 5.469 2.226 4.467 2.139 115.091-.093 119.284-.408.766-.842 2.806-1.039 4.883-.186 1.962-.588 4.272-.893 5.135-.305.862-.679 2.307-.832 3.211s-.589 2.044-.97 2.534c-.38.489-.915 1.593-1.188 2.453-.274.859-.709 1.826-.968 2.148-.258.322-.923 1.377-1.476 2.344s-1.461 2.184-2.019 2.705c-.557.52-1.014 1.158-1.014 1.416 0 .455-1.225 1.586-5.273 4.863-1.074.869-2.656 1.769-3.516 1.998-.859.23-2.09.732-2.734 1.117-.645.385-2.018.82-3.052.968s-2.477.621-3.206 1.052c-.896.528-2.315.847-4.37.981-1.674.11-3.747.477-4.606.816-2.145.847-19.335.827-21.373-.024-.725-.303-2.717-.676-4.426-.829-1.712-.153-3.826-.618-4.708-1.035-.88-.417-2.61-1.022-3.846-1.344-4.118-1.072-10.851-5.676-13.801-9.436-1.949-2.483-6.729-12.324-6.729-13.852 0-.409-.356-1.75-.791-2.98s-1.069-4.082-1.409-6.338-.772-5.068-.962-6.25c-1.073-6.699-1.657-87.672-.743-103.125.589-9.959.761-12.154.979-12.507.112-.18.448-2.076.748-4.214.3-2.137.802-4.391 1.116-5.008.313-.618.697-1.995.852-3.062.156-1.066.618-2.56 1.027-3.32s.916-2.084 1.127-2.944c.21-.859 1.084-2.617 1.942-3.906s1.565-2.493 1.571-2.676c.028-.815 5.327-6.031 7.202-7.09 1.142-.644 3.112-1.755 4.377-2.468 1.265-.714 3.354-1.482 4.643-1.707 1.295-.226 2.721-.754 3.186-1.178.571-.521 1.793-.886 3.802-1.135 1.628-.202 3.359-.528 3.846-.724 1.552-.623 24.262-.495 25.975.147m-125.014 1.913c-1.529 1.023-3.72 4.319-3.768 5.667-.01.283-.458 1.09-.995 1.794-.537.705-.977 1.478-.977 1.718 0 .241-.351.626-.781.856s-.781.618-.781.862c0 .245-.879 1.455-1.953 2.69-1.075 1.235-1.954 2.611-1.954 3.058 0 .534-.251.812-.733.812-.403 0-.975.292-1.27.648-.454.55-4.957 4.248-7.567 6.216-1.687 1.271-4.318 2.888-4.712 2.895-1.365.023-4.136 4.791-3.281 5.646.228.229.376 6.448.376 15.855v15.479l.934.878c.925.869.943.87 1.661.118.474-.497 1.443-.826 2.801-.95 1.212-.111 2.519-.518 3.14-.978.586-.433 1.611-.907 2.279-1.053.667-.147 1.522-.609 1.9-1.026.378-.418.84-.759 1.027-.759.524 0 4.383-2.735 4.734-3.355.172-.303.728-.551 1.235-.551.551 0 1.33-.485 1.934-1.202l1.011-1.202.059 67.315c.032 37.023.02 67.809-.028 68.413-.234 2.945.515 3.063 19.519 3.066 17.322.003 18.765-.08 20.197-1.163l.87-.657.016-94.922.015-94.922-1.041-.432c-.573-.238-1.355-.847-1.738-1.355-.679-.899-.761-.911-3.38-.462-1.477.254-3.029.377-3.45.275s-5.917-.227-12.213-.278l-11.449-.092zm32.448 1.178.883.491.002 94.69c.002 78.135-.088 94.781-.516 95.208-.824.824-35.603.733-36.869-.096l-.906-.594.016-69.01c.017-74.863.117-71.403-1.982-68.455-.468.657-1.428 1.581-2.134 2.054-.705.472-2.928 1.987-4.939 3.367s-4.392 2.73-5.29 3c-.898.271-2.051.766-2.562 1.101-1.115.731-5.013 1.527-5.427 1.109-.162-.163-.328-7.755-.37-16.871l-.076-16.574 1.38-1.199c.759-.66 3.201-2.38 5.425-3.823 3.89-2.522 9.362-7.387 11.987-10.658 2.878-3.585 5.534-7.31 5.534-7.762 0-.267.43-1.068.956-1.781.526-.712 1.071-1.817 1.211-2.454.471-2.148 1.126-2.23 17.755-2.232 11.338-.001 15.256.119 15.922.489m75.679 21.317c-1.309.586-2.834 2.496-3.265 4.09-.224.831-.715 1.851-1.091 2.266-1.109 1.225-1.247 8.739-1.247 67.903 0 59.134.139 66.678 1.245 67.901.375.414.787 1.405.916 2.202.349 2.152 2.946 3.707 6.207 3.718 3.374.01 5.36-1.353 7.201-4.943l1.362-2.656.12-65.24c.128-69.297.151-68.326-1.738-71.55-1.905-3.25-6.656-5.056-9.71-3.691m5.313 1.26c2.126.702 3.299 2.239 4.311 5.648l.918 3.093.117 64.013.118 64.013-1.599 3.37c-.879 1.853-1.741 3.633-1.915 3.956-.595 1.102-4.151 1.536-7.214.88-2.171-.464-2.404-.731-2.979-3.403-.229-1.066-.718-2.271-1.087-2.678-1.047-1.157-1.219-129.968-.176-131.489.373-.544 1.125-2.223 1.672-3.732 1.365-3.763 3.924-4.962 7.834-3.671" fill="#30a9dd"/><path d="m23.633.832c-1.831 1.799-2.401 2.207-3.401 2.442-.581.136-1.493.818-2.027 1.514-.534.697-2.049 2.4-3.365 3.784-2.831 2.977-5.246 6.941-5.861 9.621-.243 1.058-.736 2.452-1.097 3.096-.611 1.092-.655 12.553-.655 167.969v166.797l.878 1.834c.484 1.008.88 2.063.881 2.343.001.281.316 1.038.701 1.682.386.645.911 1.875 1.168 2.734.603 2.015 9.018 10.765 10.871 11.303.455.133 1.141.588 1.525 1.012s.891.772 1.126.774c.235.001.955.285 1.6.63 2.505 1.343 6.793 2.582 10.122 2.925 7.161.737 327.958.249 329.526-.501.752-.36 2.158-.915 3.125-1.233 5.896-1.938 7.64-3.022 12.423-7.72 3.821-3.753 5.542-5.913 6.021-7.557.255-.872.775-2.025 1.157-2.562.383-.537 1.094-2.119 1.582-3.516l.887-2.539.1-166.15c.096-159.952.073-166.212-.612-167.774-.391-.892-.941-2.454-1.222-3.471-.281-1.016-.753-2.049-1.049-2.294-.295-.245-.537-.756-.537-1.135 0-2.093-9.613-12.286-12.598-13.359-.59-.212-1.074-.632-1.074-.933 0-.348-.427-.548-1.172-.548-1.714 0-1.463.923.489 1.796 2.921 1.308 9.51 7.397 12.295 11.362.824 1.173 1.716 3.17 3.198 7.155.36.966.866 2.141 1.125 2.611.765 1.384.651 330.425-.115 331.764-.307.537-.564 1.433-.572 1.992-.007.559-.425 1.79-.928 2.736-.503.947-1.131 2.374-1.394 3.173-2.219 6.723-11.467 14.094-21.129 16.841l-2.93.833-161.328.12c-170.621.127-166.638.166-171.582-1.695-10.672-4.016-17.006-10.713-20.853-22.043l-1.126-3.316.101-164.886c.075-122.912.214-165.025.547-165.434.245-.301.715-1.603 1.044-2.892 1.167-4.575 9.04-15.429 11.191-15.429.221 0 1.062-.584 1.868-1.298.807-.713 2.038-1.525 2.736-1.805.698-.279 1.27-.75 1.27-1.046 0-.808-2.014-.606-2.93.293m215.234 92.936c-1.074.167-2.85.32-3.946.338-1.31.023-2.607.362-3.789.99-.988.525-2.464 1.077-3.28 1.226-7.667 1.402-18.747 11.763-20.224 18.912-.156.752-.521 1.744-.811 2.203-.563.891-1.813 5.292-2.721 9.582-.303 1.433-.739 5.125-.97 8.203-.23 3.079-.58 6.389-.778 7.356-.507 2.471-.505 92.549.002 97.713.814 8.292 2.027 17.722 2.359 18.343.189.352.593 1.762.898 3.132.782 3.513 3.614 10.058 5.727 13.234.643.967 1.457 2.197 1.809 2.734s1.512 1.592 2.577 2.344 2.255 1.691 2.644 2.088c2.069 2.105 12.741 6.168 17.574 6.688 1.396.151 3.531.523 4.743.827 2.957.742 14.873.746 18.108.006 1.289-.295 3.654-.658 5.256-.807s3.375-.51 3.939-.802c.565-.292 2.24-.812 3.723-1.156 1.484-.344 3.054-.859 3.489-1.144.436-.286 1.398-.652 2.138-.815.741-.163 2.56-1.284 4.044-2.493 1.484-1.208 3.292-2.595 4.019-3.081.727-.487 1.322-1.072 1.322-1.302 0-.229.605-1.155 1.345-2.058 2.029-2.477 5.999-10.62 6.501-13.337.237-1.285.588-2.629.779-2.986s.54-2.374.775-4.483.67-4.415.967-5.124c1.098-2.63 1.424-19.708 1.225-64.161-.225-50.064-.25-51.218-1.168-53.296-.374-.846-.85-3.186-1.059-5.201s-.541-3.964-.738-4.332-.555-1.757-.797-3.088c-1.233-6.8-10.322-20.021-13.763-20.021-.22 0-.922-.439-1.56-.977-.639-.537-1.516-.976-1.95-.976-.433 0-1.255-.265-1.825-.59-5.951-3.383-25.736-5.379-36.584-3.689m28.515 1.895c1.073.474 2.697.965 3.609 1.09.911.125 1.857.469 2.103.764.245.296 1.433.821 2.641 1.168 1.207.346 2.509.959 2.893 1.363.385.403.87.733 1.078.733.94 0 5.319 3.621 6.615 5.469.527.752 1.183 1.599 1.459 1.883s.501.754.501 1.045c0 .29.416 1.025.923 1.632.889 1.062 2.984 5.134 2.984 5.798 0 .178.275.627.612 1 .337.372.784 1.968.993 3.546s.618 3.486.909 4.239c.29.753.645 2.599.788 4.102.143 1.502.625 3.892 1.07 5.31.707 2.25.756 2.883.387 4.979-.318 1.803-.306 2.717.045 3.672.876 2.374.639 95.384-.257 101.271-.392 2.578-.951 6.445-1.241 8.593-.291 2.149-.794 4.61-1.119 5.469s-.598 2.275-.608 3.147c-.011 1.056-.342 2.025-.994 2.908-.537.728-.976 1.581-.976 1.897 0 .315-.773 1.907-1.717 3.537-.945 1.63-1.83 3.343-1.968 3.807s-.5.938-.805 1.055c-.304.117-.91.911-1.345 1.766-.436.854-1.191 1.678-1.678 1.832-.487.153-1.558.949-2.379 1.769-.822.819-1.823 1.594-2.226 1.722s-.83.539-.949.914c-.145.456-.942.833-2.421 1.143-1.213.254-2.489.719-2.836 1.033-.347.315-1.749.752-3.115.972-1.366.219-2.897.671-3.404 1.003-.583.382-2.607.744-5.519.987-2.53.211-5.654.573-6.943.805-4.678.842-5.643.847-10.03.049-2.433-.442-5.653-.912-7.157-1.044-1.504-.131-3.262-.477-3.907-.768-.644-.291-2.929-1.089-5.078-1.774-2.148-.684-4.365-1.567-4.927-1.962-.561-.396-1.654-.838-2.428-.983-.832-.156-1.495-.542-1.623-.945-.119-.375-.652-.88-1.185-1.123-.533-.242-.969-.599-.969-.793 0-.193-.513-.563-1.138-.823-.649-.268-1.238-.869-1.371-1.397-.127-.509-.846-1.394-1.596-1.966s-1.364-1.259-1.364-1.527-.335-.913-.744-1.432c-.409-.52-.933-1.648-1.164-2.507-.231-.858-.682-1.907-1.002-2.33-.319-.423-.587-1.213-.593-1.756-.007-.543-.32-1.422-.696-1.953-1.393-1.967-2.585-9.257-4.087-24.989-.708-7.422-.731-93.386-.025-95.118.263-.644.653-4.555.868-8.69.277-5.326.564-7.855.985-8.669.328-.633.761-2.321.964-3.753.202-1.431.629-2.891.949-3.245.319-.353.792-1.522 1.051-2.596 1.396-5.795 9.643-16.211 12.835-16.211.2 0 .861-.415 1.469-.923.607-.508 1.543-1.055 2.08-1.216.537-.162 1.504-.604 2.149-.983.644-.379 1.875-.811 2.734-.961.86-.149 2.002-.563 2.539-.919 2.311-1.534 31.927-1.631 35.351-.116m-127.181.854c-.6.226-1.408 1.127-1.994 2.224-2.432 4.553-3.155 5.695-5.926 9.365-4.245 5.62-11.259 11.909-17.198 15.419-3.46 2.045-3.361 1.49-3.363 18.965l-.001 15.342 1.042.396c.686.261 1.387.266 2.051.015 3.572-1.35 6.222-2.621 7.794-3.737.994-.707 2.34-1.554 2.99-1.883.65-.33 2.64-1.859 4.421-3.399 5.421-4.684 4.805-13.167 4.88 67.124l.064 68.877.937.759c1.218.986 34.144.99 35.331.003.997-.827.997-188.334.001-189.162-.793-.658-29.344-.942-31.029-.308m30.083 1.387.81 1.029v92.673c0 85.699-.049 92.714-.646 93.209-.93.773-32.417 1.019-33.431.262-.64-.477-.685-4.509-.782-69.584l-.102-69.078-.922-.746c-1.404-1.137-2.204-.922-4.444 1.198-3.357 3.176-3.539 3.325-5.502 4.523-1.036.632-3.017 1.883-4.403 2.78-1.385.897-3.034 1.744-3.664 1.882-.63.139-1.592.603-2.137 1.032-1.748 1.375-1.78 1.11-1.774-14.822.006-17.184-.066-16.549 1.981-17.473.841-.379 1.529-.81 1.529-.957 0-.148.432-.466.961-.707s1.276-.714 1.66-1.052c.385-.338 2.394-2.007 4.466-3.709 4.218-3.465 7.816-7.042 8.602-8.549.287-.551.745-1.271 1.017-1.6 1.666-2.012 2.723-3.453 3.16-4.309 1.629-3.19 3.807-6.516 4.43-6.766.28-.112 6.78-.217 14.445-.234l13.937-.031zm76.999 17.532c-4 1.807-6.038 5.188-6.472 10.736-.143 1.826-.507 4.793-.809 6.594-.814 4.854-.817 114.974-.003 117.847.3 1.059.645 3.741.766 5.959.44 8.015 2.301 10.03 9.264 10.03 6.586 0 7.716-.942 9.613-8.008l1.1-4.102v-63.672c0-47.273-.117-64.074-.454-65.234-.251-.859-.705-2.473-1.01-3.586-1.407-5.126-7.635-8.534-11.995-6.564m6.638 1.849c5.834 2.942 5.913 4.05 5.711 79.411-.174 64.88-.18 64.962-4.694 68.026-2.302 1.563-7.528 1.627-9.778.122-4.12-2.758-4.098-2.358-4.114-73.828-.013-60.254.098-65.436 1.473-68.436.462-1.009.84-2.006.84-2.216 0-2.9 6.918-4.916 10.562-3.079" fill="#99daee"/></g></svg>