<svg height="390.566038" viewBox="0 0 400 390.56603774" width="400" xmlns="http://www.w3.org/2000/svg"><g fill-rule="evenodd"><path d="m0 195.313v195.312h200 200v-195.312-195.313h-14.844c-12.405 0-14.843.089-14.843.542 0 .302.564.652 1.269.789 3.808.736 15.918 10.538 15.918 12.882 0 .272.456.921 1.014 1.442.557.52 1.261 1.423 1.564 2.005.742 1.427.862 348.189.121 349.626-.249.483-.771 1.23-1.16 1.659-1.058 1.17-2.583 3.341-3.448 4.91-.423.767-1.489 1.997-2.369 2.734-.88.738-2.431 2.061-3.446 2.942-1.016.881-2.725 2.111-3.799 2.734l-1.954 1.133-173.437.105c-118.703.071-174.041-.024-175.349-.301-1.821-.386-9.221-5.732-9.221-6.661 0-.174-.364-.432-.809-.573-.444-.141-1.411-1.164-2.147-2.272-.736-1.109-1.919-2.895-2.628-3.969-1.838-2.785-2.924-5.544-3.4-8.639-.619-4.02-.332-336.879.292-339.036 1.018-3.521 6.4-11.971 8.126-12.757.518-.236 1.044-.753 1.169-1.148.278-.876 4.759-3.889 8.869-5.964 1.665-.841 3.028-1.676 3.028-1.856s-6.416-.327-14.258-.327h-14.258zm150.586-86.44c-.43.104-1.177.554-1.66 1l-.879.81v82.895 82.895l1.074.728c1.503 1.02 117.029 1.153 119.043.138l1.172-.591.119-12.3c.18-18.499.481-17.759-7.122-17.515-2.164.069-17.927.085-35.029.034l-31.095-.092-1.327-.894-1.327-.895-.204-67.202c-.191-63.171-.245-67.264-.888-68.246l-.684-1.044-20.206.045c-11.113.025-20.557.13-20.987.234" fill="#f5faf6"/><path d="m35.156 2.418c-5.32.557-10.093 2.38-13.146 5.021-.678.586-1.951 1.382-2.829 1.77-.881.389-1.705 1.065-1.838 1.509-.133.443-.791 1.384-1.463 2.091-.671.707-1.697 2.113-2.279 3.125-5.435 9.452-4.812-13.404-4.812 176.449 0 155.338.037 164.246.691 167.51.7 3.497 1.632 5.76 3.241 7.88.49.645 1.003 1.624 1.14 2.176.404 1.617 4.589 5.635 8.698 8.352 2.095 1.384 4.029 2.878 4.3 3.319l.491.802h171.671 171.672l2.565-2.176c1.41-1.197 3.127-2.37 3.813-2.606 1.596-.55 4.872-3.289 5.586-4.671.302-.584.974-1.486 1.493-2.005s1.393-1.832 1.944-2.918c.55-1.086 1.19-2.092 1.423-2.236 1.122-.693 1.164-6.929 1.161-173.108-.002-169.052-.011-170.908-.767-171.971-.421-.591-1.098-1.921-1.504-2.956-.701-1.783-2.278-3.861-5.007-6.594-2.002-2.006-3.522-3.368-3.756-3.369-.121 0-1.337-.678-2.702-1.507-4.236-2.574-7.148-3.581-11.465-3.968-5.129-.459-323.915-.381-328.321.081m158.869 104.187c.903.517 1.736 1.186 1.851 1.486s.215 30.789.222 67.753c.009 45.103.145 67.454.413 67.956.39.728 1.323.747 36.436.719 23.784-.019 36.394.108 37.091.373 2.564.975 2.618 1.355 2.515 17.801-.1 16.128-.109 16.193-2.291 16.953-2.06.719-121.444.601-123.173-.121-2.31-.965-2.184 4.33-2.074-86.764l.102-84.618 1.479-1.355 1.479-1.355 22.154.115 22.154.116z" fill="#04ac53"/><path d="m34.262.512c-.108.282-1.471.82-3.029 1.196-3.106.75-7.401 2.755-10.139 4.735-.967.699-2.11 1.387-2.539 1.529-2.122.701-9.012 11.406-10.128 15.733-.566 2.195-.613 17.658-.521 169.726l.102 167.311.91 2.508c1.979 5.454 7.168 12.589 10.568 14.531.998.57 2.717 1.847 3.82 2.839 2.04 1.834 3.413 2.461 2.178.994-.962-1.143-5.587-4.512-6.636-4.834-.484-.149-.879-.439-.879-.646s-.868-1.267-1.928-2.355c-1.06-1.089-2.294-2.71-2.742-3.602-.447-.892-1.339-2.436-1.982-3.43-.643-.995-1.562-3.192-2.043-4.883l-.876-3.075-.1-165.988c-.099-163.765-.09-166.025.664-168.691 1.296-4.579 7.893-14.722 10.129-15.572.563-.214 1.924-1.083 3.024-1.932 3.031-2.338 7.493-4.094 12.26-4.825 6.421-.983 328.029-.724 332.352.268 4.347.998 12.498 5.583 15.203 8.552 2.538 2.786 3.821 4.514 4.792 6.452.629 1.256 1.587 2.81 2.13 3.455l.988 1.172.002-1.03c.001-.675-.343-1.255-.999-1.685-.551-.361-1.326-1.414-1.723-2.34-.884-2.062-4.895-7.136-5.891-7.452-.399-.127-1.182-.772-1.739-1.434-1.457-1.732-9.132-5.544-12.4-6.159-1.749-.329-2.637-.679-2.637-1.038 0-.788-329.889-.818-330.191-.03m355.672 22.926c0 .751.081 1.059.179.683s.098-.991 0-1.367-.179-.068-.179.684m-239.073 82.774c-3.312.332-4.585 1.261-5.184 3.785-.504 2.121-.417 165.909.089 167.36.868 2.49-3.171 2.348 63.567 2.236l60.567-.101.871-.871c1.072-1.072 1.077-1.143 1.087-17.826.009-13.948-.065-14.47-2.214-15.449-.648-.295-11.848-.424-36.822-.424-32.108 0-35.956-.065-36.505-.614-.553-.553-.618-6.965-.655-64.355-.051-77.915.201-72.58-3.466-73.503-1.443-.364-37.988-.574-41.335-.238m41.777 1.321c.819.344 1.562.989 1.743 1.513.389 1.125.345-5.763.451 70.868l.09 64.485.879.462c.654.344 10.02.486 36.621.555 28.264.073 35.926.197 36.621.594 2.043 1.167 2.051 1.23 2.061 16.429.01 14.686-.047 15.232-1.679 16.165-1.121.641-118.216.943-120.562.312-2.789-.751-2.574 6.403-2.574-85.518 0-89.743-.109-84.627 1.824-85.822 1.79-1.106 41.898-1.145 44.525-.043m196.815 252.87c-.186 3.763-.265 4.061-1.619 6.055-.783 1.153-1.55 2.518-1.705 3.034-.155.515-.92 1.603-1.701 2.416-4.592 4.784-5.472 5.579-6.889 6.231-1.695.78-5.704 4.283-4.901 4.283.271 0 1.208-.571 2.082-1.27.875-.698 2.153-1.621 2.84-2.05 3.031-1.898 5.343-3.921 6.254-5.477.541-.923 1.245-1.779 1.564-1.901.319-.123.938-1.058 1.376-2.079.437-1.021.924-1.947 1.082-2.059 1.589-1.124 2.034-2.727 1.923-6.923l-.111-4.218zm-229.167 22.312c37.346.055 98.342.055 135.547 0 37.204-.055 6.647-.1-67.903-.1-74.551 0-104.991.045-67.644.1m209.543-.017c.486.094 1.189.09 1.562-.008.374-.098-.024-.174-.883-.17-.86.005-1.165.085-.679.178" fill="#4cc883"/><path d="m33.398 1.939c-4.423.797-8.415 2.454-11.328 4.702-1.075.829-2.416 1.683-2.979 1.897-2.236.85-8.833 10.993-10.129 15.572-.754 2.666-.763 4.926-.664 168.691l.1 165.988.876 3.075c.481 1.691 1.4 3.888 2.043 4.883.643.994 1.535 2.538 1.982 3.43.448.892 1.682 2.513 2.742 3.602 1.06 1.088 1.928 2.148 1.928 2.355s.395.497.879.646c1.049.322 5.674 3.691 6.636 4.834.374.444.947.808 1.273.808 1.24 0-.403-1.613-4.198-4.121-4.109-2.717-8.294-6.735-8.698-8.352-.137-.552-.65-1.531-1.14-2.176-1.609-2.12-2.541-4.383-3.241-7.88-.654-3.264-.691-12.172-.691-167.51 0-182.177-.213-167.666 2.527-172.461.675-1.182 1.704-2.976 2.285-3.988.582-1.012 1.608-2.418 2.279-3.125.672-.707 1.33-1.648 1.463-2.091.133-.444.957-1.12 1.838-1.509.878-.388 2.151-1.18 2.829-1.76 3.284-2.813 7.662-4.421 13.75-5.05 5.328-.551 321.595-.61 327.717-.062 4.317.387 7.229 1.394 11.465 3.968 1.365.829 2.581 1.507 2.702 1.507.241.001 1.665 1.275 3.681 3.294 2.804 2.809 4.375 4.87 5.082 6.669.406 1.035 1.083 2.365 1.504 2.956.756 1.063.765 2.919.767 171.971.003 166.179-.039 172.415-1.161 173.108-.233.144-.873 1.15-1.423 2.236-.551 1.086-1.425 2.399-1.944 2.918s-1.191 1.421-1.493 2.005c-.714 1.382-3.99 4.121-5.586 4.671-1.663.573-6.638 4.782-5.651 4.782.399 0 1.588-.802 2.642-1.782 1.053-.98 2.618-2.106 3.477-2.501 1.417-.652 2.297-1.447 6.889-6.231.781-.813 1.546-1.901 1.701-2.416.155-.516.915-1.871 1.689-3.013 2.053-3.026 1.964 4.962 1.996-178.011l.03-166.806-1.187-1.439c-.652-.791-1.542-2.245-1.978-3.229-.664-1.503-2.531-4.02-4.739-6.393-2.82-3.029-10.87-7.555-15.213-8.552-4.604-1.057-327.487-1.164-333.329-.11m113.198 104.849-1.479 1.355-.102 84.618c-.11 91.094-.236 85.799 2.074 86.764 1.729.722 121.113.84 123.173.121 2.182-.76 2.191-.825 2.291-16.953.103-16.446.049-16.826-2.515-17.801-.697-.265-13.307-.392-37.091-.373-35.113.028-36.046.009-36.436-.719-.268-.502-.404-22.853-.413-67.956-.007-36.964-.107-67.453-.222-67.753s-.948-.969-1.851-1.486l-1.642-.941-22.154-.116-22.154-.115zm45.6-.338c3.667.923 3.415-4.412 3.466 73.503.037 57.39.102 63.802.655 64.355.549.549 4.397.614 36.505.614 24.974 0 36.174.129 36.822.424 2.149.979 2.223 1.501 2.214 15.449-.01 16.683-.015 16.754-1.087 17.826l-.871.871-60.567.101c-66.738.112-62.699.254-63.567-2.236-.506-1.451-.593-165.239-.089-167.36.599-2.524 1.872-3.453 5.184-3.785 3.347-.336 39.892-.126 41.335.238m-147.762 276.265c8.862.058 23.364.058 32.226 0 8.862-.059 1.611-.107-16.113-.107-17.725 0-24.976.048-16.113.107m320.322-.007c.919.083 2.325.082 3.125-.002s.049-.152-1.67-.15c-1.719.001-2.373.07-1.455.152" fill="#34c484"/><path d="m28.516.327c0 .18-1.363 1.015-3.028 1.856-4.11 2.075-8.591 5.088-8.869 5.964-.125.395-.651.912-1.169 1.148-1.726.786-7.108 9.236-8.126 12.757-.624 2.157-.911 335.016-.292 339.036.475 3.09 1.559 5.847 3.398 8.639 3.484 5.291 4.03 6.004 4.779 6.241.444.141.807.399.807.573 0 .929 7.4 6.275 9.221 6.661 1.308.277 56.646.372 175.349.301l173.437-.105 1.954-1.133c1.074-.623 2.783-1.853 3.799-2.734 1.015-.881 2.566-2.204 3.446-2.942.88-.737 1.946-1.967 2.369-2.734.865-1.569 2.39-3.74 3.448-4.91.389-.429.911-1.176 1.16-1.659.741-1.437.621-348.199-.121-349.626-.303-.582-1.007-1.485-1.564-2.005-.558-.521-1.014-1.17-1.014-1.442 0-2.344-12.11-12.146-15.918-12.882-.705-.137-1.269-.487-1.269-.789 0-.414-.691-.542-2.93-.542-3.922 0-4.082.866-.293 1.58 3.268.615 10.943 4.427 12.4 6.159.557.662 1.34 1.307 1.739 1.434.987.313 5.003 5.383 5.875 7.415.388.906 1.166 1.983 1.729 2.393l1.023.746-.009 172.6-.009 172.6-.857 1.228c-.472.675-.987 1.319-1.145 1.431s-.645 1.038-1.082 2.059c-.438 1.021-1.057 1.956-1.376 2.079-.319.122-1.023.978-1.564 1.901-.911 1.556-3.223 3.579-6.254 5.477-.687.429-2.02 1.396-2.963 2.148l-1.714 1.367h-173.678-173.678l-2.113-1.9c-1.162-1.045-2.93-2.366-3.928-2.936-3.4-1.942-8.589-9.077-10.568-14.531l-.91-2.508-.102-167.311c-.092-152.068-.045-167.531.521-169.726 1.116-4.327 8.006-15.032 10.128-15.733.429-.142 1.572-.83 2.539-1.529 2.733-1.975 6.542-3.767 9.934-4.673 4.147-1.109 4.315-1.77.45-1.77-1.629 0-2.962.147-2.962.327m122.432 106.664c-2.823.356-3.095.501-3.978 2.116-.948 1.733-1.07 166.61-.125 168.376.992 1.854.2 1.832 62.595 1.722 62.537-.109 60.289-.041 61.264-1.863.709-1.325.529-28.829-.196-29.935-1.284-1.961.009-1.893-38.086-1.991-26.601-.069-35.967-.211-36.621-.555l-.879-.462-.09-64.485c-.106-76.631-.062-69.743-.451-70.868-.694-2.009-1.607-2.101-22.115-2.233-10.42-.067-20.013.013-21.318.178m41.515 2.647c.643.982.697 5.075.888 68.246l.204 67.202 1.327.895 1.327.894 31.095.092c17.102.051 32.865.035 35.029-.034 7.603-.244 7.302-.984 7.122 17.515l-.119 12.3-1.172.591c-2.014 1.015-117.54.882-119.043-.138l-1.074-.728v-82.895-82.895l.879-.81c1.308-1.207.912-1.185 22.647-1.234l20.206-.045z" fill="#84d4a4"/></g></svg>